<?xml version="1.0" encoding="utf-8" standalone="no"?>
<!DOCTYPE svg PUBLIC "-//W3C//DTD SVG 1.1//EN"
  "http://www.w3.org/Graphics/SVG/1.1/DTD/svg11.dtd">
<!-- Created with matplotlib (https://matplotlib.org/) -->
<svg height="345.6pt" version="1.1" viewBox="0 0 460.8 345.6" width="460.8pt" xmlns="http://www.w3.org/2000/svg" xmlns:xlink="http://www.w3.org/1999/xlink">
 <defs>
  <style type="text/css">
*{stroke-linecap:butt;stroke-linejoin:round;}
  </style>
 </defs>
 <g id="figure_1">
  <g id="patch_1">
   <path d="M 0 345.6 
L 460.8 345.6 
L 460.8 0 
L 0 0 
z
" style="fill:#ffffff;"/>
  </g>
  <g id="axes_1">
   <g id="patch_2">
    <path d="M 57.6 307.584 
L 414.72 307.584 
L 414.72 41.472 
L 57.6 41.472 
z
" style="fill:#ffffff;"/>
   </g>
   <g id="PathCollection_1">
    <path clip-path="url(#p98d736b8d8)" d="M 227.232 250.142751 
L 228.5712 249.169171 
L 236.16 243.652215 
L 245.088 243.652215 
L 246.4272 242.678634 
L 246.4272 236.188098 
L 246.4272 229.697561 
L 245.088 228.72398 
L 236.16 228.72398 
L 228.5712 223.207024 
L 227.232 222.233444 
L 219.6432 216.716488 
L 218.304 215.742907 
L 210.7152 210.225951 
L 209.376 209.252371 
L 201.7872 203.735415 
L 201.7872 197.244878 
L 201.7872 190.754341 
L 200.448 189.780761 
L 191.52 189.780761 
L 183.9312 184.263805 
L 182.592 183.290224 
L 173.664 183.290224 
L 164.736 183.290224 
L 157.1472 177.773268 
L 157.1472 171.282732 
L 157.1472 164.792195 
L 155.808 163.818615 
L 146.88 163.818615 
L 139.2912 158.301659 
L 139.2912 151.811122 
L 137.952 150.837541 
L 130.3632 145.320585 
L 130.3632 138.830049 
L 130.3632 132.339512 
L 130.3632 125.848976 
L 137.952 120.33202 
L 139.2912 119.358439 
L 139.2912 112.867902 
L 139.2912 106.377366 
L 139.2912 99.886829 
L 139.2912 93.396293 
L 139.2912 86.905756 
L 137.952 85.932176 
L 130.3632 80.41522 
L 130.3632 73.924683 
L 130.3632 67.434146 
L 130.3632 60.94361 
L 129.024 59.970029 
L 121.4352 54.453073 
L 121.4352 47.962537 
L 121.4352 41.472 
L 120.096 41.472 
L 111.168 41.472 
L 102.24 41.472 
L 93.312 41.472 
L 84.384 41.472 
L 75.456 41.472 
L 66.528 41.472 
L 57.6 41.472 
L 57.6 47.962537 
L 57.6 54.453073 
L 57.6 60.94361 
L 57.6 67.434146 
L 57.6 73.924683 
L 57.6 80.41522 
L 57.6 86.905756 
L 57.6 93.396293 
L 57.6 99.886829 
L 57.6 106.377366 
L 57.6 112.867902 
L 57.6 119.358439 
L 57.6 125.848976 
L 57.6 132.339512 
L 57.6 138.830049 
L 57.6 145.320585 
L 57.6 151.811122 
L 57.6 158.301659 
L 57.6 159.275239 
L 66.528 159.275239 
L 67.8672 158.301659 
L 75.456 152.784702 
L 84.384 152.784702 
L 93.312 152.784702 
L 102.24 152.784702 
L 111.168 152.784702 
L 118.7568 158.301659 
L 120.096 159.275239 
L 129.024 159.275239 
L 136.6128 164.792195 
L 137.952 165.765776 
L 146.88 165.765776 
L 154.4688 171.282732 
L 154.4688 177.773268 
L 146.88 183.290224 
L 145.5408 184.263805 
L 137.952 189.780761 
L 136.6128 190.754341 
L 136.6128 197.244878 
L 129.024 202.761834 
L 127.6848 203.735415 
L 127.6848 210.225951 
L 129.024 211.199532 
L 130.3632 210.225951 
L 137.952 204.708995 
L 146.88 204.708995 
L 148.2192 203.735415 
L 155.808 198.218459 
L 164.736 198.218459 
L 173.664 198.218459 
L 182.592 198.218459 
L 190.1808 203.735415 
L 190.1808 210.225951 
L 190.1808 216.716488 
L 190.1808 223.207024 
L 190.1808 229.697561 
L 191.52 230.671141 
L 192.8592 229.697561 
L 200.448 224.180605 
L 209.376 224.180605 
L 218.304 224.180605 
L 225.8928 229.697561 
L 225.8928 236.188098 
L 225.8928 242.678634 
L 225.8928 249.169171 
z
" style="fill:#481b6d;fill-opacity:0.4;"/>
   </g>
   <g id="PathCollection_2">
    <path clip-path="url(#p98d736b8d8)" d="M 227.232 251.116332 
L 229.9104 249.169171 
L 236.16 244.625795 
L 245.088 244.625795 
L 247.7664 242.678634 
L 247.7664 236.188098 
L 247.7664 229.697561 
L 245.088 227.7504 
L 236.16 227.7504 
L 229.9104 223.207024 
L 227.232 221.259863 
L 220.9824 216.716488 
L 218.304 214.769327 
L 212.0544 210.225951 
L 209.376 208.27879 
L 203.1264 203.735415 
L 203.1264 197.244878 
L 203.1264 190.754341 
L 200.448 188.80718 
L 191.52 188.80718 
L 185.2704 184.263805 
L 182.592 182.316644 
L 173.664 182.316644 
L 164.736 182.316644 
L 158.4864 177.773268 
L 158.4864 171.282732 
L 158.4864 164.792195 
L 155.808 162.845034 
L 146.88 162.845034 
L 140.6304 158.301659 
L 140.6304 151.811122 
L 137.952 149.863961 
L 131.7024 145.320585 
L 131.7024 138.830049 
L 131.7024 132.339512 
L 131.7024 125.848976 
L 137.952 121.3056 
L 140.6304 119.358439 
L 140.6304 112.867902 
L 140.6304 106.377366 
L 140.6304 99.886829 
L 140.6304 93.396293 
L 140.6304 86.905756 
L 137.952 84.958595 
L 131.7024 80.41522 
L 131.7024 73.924683 
L 131.7024 67.434146 
L 131.7024 60.94361 
L 129.024 58.996449 
L 122.7744 54.453073 
L 122.7744 47.962537 
L 122.7744 41.472 
L 121.4352 41.472 
L 121.4352 47.962537 
L 121.4352 54.453073 
L 129.024 59.970029 
L 130.3632 60.94361 
L 130.3632 67.434146 
L 130.3632 73.924683 
L 130.3632 80.41522 
L 137.952 85.932176 
L 139.2912 86.905756 
L 139.2912 93.396293 
L 139.2912 99.886829 
L 139.2912 106.377366 
L 139.2912 112.867902 
L 139.2912 119.358439 
L 137.952 120.33202 
L 130.3632 125.848976 
L 130.3632 132.339512 
L 130.3632 138.830049 
L 130.3632 145.320585 
L 137.952 150.837541 
L 139.2912 151.811122 
L 139.2912 158.301659 
L 146.88 163.818615 
L 155.808 163.818615 
L 157.1472 164.792195 
L 157.1472 171.282732 
L 157.1472 177.773268 
L 164.736 183.290224 
L 173.664 183.290224 
L 182.592 183.290224 
L 183.9312 184.263805 
L 191.52 189.780761 
L 200.448 189.780761 
L 201.7872 190.754341 
L 201.7872 197.244878 
L 201.7872 203.735415 
L 209.376 209.252371 
L 210.7152 210.225951 
L 218.304 215.742907 
L 219.6432 216.716488 
L 227.232 222.233444 
L 228.5712 223.207024 
L 236.16 228.72398 
L 245.088 228.72398 
L 246.4272 229.697561 
L 246.4272 236.188098 
L 246.4272 242.678634 
L 245.088 243.652215 
L 236.16 243.652215 
L 228.5712 249.169171 
L 227.232 250.142751 
L 225.8928 249.169171 
L 225.8928 242.678634 
L 225.8928 236.188098 
L 225.8928 229.697561 
L 218.304 224.180605 
L 209.376 224.180605 
L 200.448 224.180605 
L 192.8592 229.697561 
L 191.52 230.671141 
L 190.1808 229.697561 
L 190.1808 223.207024 
L 190.1808 216.716488 
L 190.1808 210.225951 
L 190.1808 203.735415 
L 182.592 198.218459 
L 173.664 198.218459 
L 164.736 198.218459 
L 155.808 198.218459 
L 148.2192 203.735415 
L 146.88 204.708995 
L 137.952 204.708995 
L 130.3632 210.225951 
L 129.024 211.199532 
L 127.6848 210.225951 
L 127.6848 203.735415 
L 129.024 202.761834 
L 136.6128 197.244878 
L 136.6128 190.754341 
L 137.952 189.780761 
L 145.5408 184.263805 
L 146.88 183.290224 
L 154.4688 177.773268 
L 154.4688 171.282732 
L 146.88 165.765776 
L 137.952 165.765776 
L 136.6128 164.792195 
L 129.024 159.275239 
L 120.096 159.275239 
L 118.7568 158.301659 
L 111.168 152.784702 
L 102.24 152.784702 
L 93.312 152.784702 
L 84.384 152.784702 
L 75.456 152.784702 
L 67.8672 158.301659 
L 66.528 159.275239 
L 57.6 159.275239 
L 57.6 160.24882 
L 66.528 160.24882 
L 69.2064 158.301659 
L 75.456 153.758283 
L 84.384 153.758283 
L 93.312 153.758283 
L 102.24 153.758283 
L 111.168 153.758283 
L 117.4176 158.301659 
L 120.096 160.24882 
L 129.024 160.24882 
L 135.2736 164.792195 
L 137.952 166.739356 
L 146.88 166.739356 
L 153.1296 171.282732 
L 153.1296 177.773268 
L 146.88 182.316644 
L 144.2016 184.263805 
L 137.952 188.80718 
L 135.2736 190.754341 
L 135.2736 197.244878 
L 129.024 201.788254 
L 126.3456 203.735415 
L 126.3456 210.225951 
L 129.024 212.173112 
L 131.7024 210.225951 
L 137.952 205.682576 
L 146.88 205.682576 
L 149.5584 203.735415 
L 155.808 199.192039 
L 164.736 199.192039 
L 173.664 199.192039 
L 182.592 199.192039 
L 188.8416 203.735415 
L 188.8416 210.225951 
L 188.8416 216.716488 
L 188.8416 223.207024 
L 188.8416 229.697561 
L 191.52 231.644722 
L 194.1984 229.697561 
L 200.448 225.154185 
L 209.376 225.154185 
L 218.304 225.154185 
L 224.5536 229.697561 
L 224.5536 236.188098 
L 224.5536 242.678634 
L 224.5536 249.169171 
z
" style="fill:#3f4788;fill-opacity:0.4;"/>
   </g>
   <g id="PathCollection_3">
    <path clip-path="url(#p98d736b8d8)" d="M 227.232 252.089912 
L 231.2496 249.169171 
L 236.16 245.599376 
L 245.088 245.599376 
L 249.1056 242.678634 
L 249.1056 236.188098 
L 249.1056 229.697561 
L 245.088 226.77682 
L 236.16 226.77682 
L 231.2496 223.207024 
L 227.232 220.286283 
L 222.3216 216.716488 
L 218.304 213.795746 
L 213.3936 210.225951 
L 209.376 207.30521 
L 204.4656 203.735415 
L 204.4656 197.244878 
L 204.4656 190.754341 
L 200.448 187.8336 
L 191.52 187.8336 
L 186.6096 184.263805 
L 182.592 181.343063 
L 173.664 181.343063 
L 164.736 181.343063 
L 159.8256 177.773268 
L 159.8256 171.282732 
L 159.8256 164.792195 
L 155.808 161.871454 
L 146.88 161.871454 
L 141.9696 158.301659 
L 141.9696 151.811122 
L 137.952 148.89038 
L 133.0416 145.320585 
L 133.0416 138.830049 
L 133.0416 132.339512 
L 133.0416 125.848976 
L 137.952 122.27918 
L 141.9696 119.358439 
L 141.9696 112.867902 
L 141.9696 106.377366 
L 141.9696 99.886829 
L 141.9696 93.396293 
L 141.9696 86.905756 
L 137.952 83.985015 
L 133.0416 80.41522 
L 133.0416 73.924683 
L 133.0416 67.434146 
L 133.0416 60.94361 
L 129.024 58.022868 
L 124.1136 54.453073 
L 124.1136 47.962537 
L 124.1136 41.472 
L 122.7744 41.472 
L 122.7744 47.962537 
L 122.7744 54.453073 
L 129.024 58.996449 
L 131.7024 60.94361 
L 131.7024 67.434146 
L 131.7024 73.924683 
L 131.7024 80.41522 
L 137.952 84.958595 
L 140.6304 86.905756 
L 140.6304 93.396293 
L 140.6304 99.886829 
L 140.6304 106.377366 
L 140.6304 112.867902 
L 140.6304 119.358439 
L 137.952 121.3056 
L 131.7024 125.848976 
L 131.7024 132.339512 
L 131.7024 138.830049 
L 131.7024 145.320585 
L 137.952 149.863961 
L 140.6304 151.811122 
L 140.6304 158.301659 
L 146.88 162.845034 
L 155.808 162.845034 
L 158.4864 164.792195 
L 158.4864 171.282732 
L 158.4864 177.773268 
L 164.736 182.316644 
L 173.664 182.316644 
L 182.592 182.316644 
L 185.2704 184.263805 
L 191.52 188.80718 
L 200.448 188.80718 
L 203.1264 190.754341 
L 203.1264 197.244878 
L 203.1264 203.735415 
L 209.376 208.27879 
L 212.0544 210.225951 
L 218.304 214.769327 
L 220.9824 216.716488 
L 227.232 221.259863 
L 229.9104 223.207024 
L 236.16 227.7504 
L 245.088 227.7504 
L 247.7664 229.697561 
L 247.7664 236.188098 
L 247.7664 242.678634 
L 245.088 244.625795 
L 236.16 244.625795 
L 229.9104 249.169171 
L 227.232 251.116332 
L 224.5536 249.169171 
L 224.5536 242.678634 
L 224.5536 236.188098 
L 224.5536 229.697561 
L 218.304 225.154185 
L 209.376 225.154185 
L 200.448 225.154185 
L 194.1984 229.697561 
L 191.52 231.644722 
L 188.8416 229.697561 
L 188.8416 223.207024 
L 188.8416 216.716488 
L 188.8416 210.225951 
L 188.8416 203.735415 
L 182.592 199.192039 
L 173.664 199.192039 
L 164.736 199.192039 
L 155.808 199.192039 
L 149.5584 203.735415 
L 146.88 205.682576 
L 137.952 205.682576 
L 131.7024 210.225951 
L 129.024 212.173112 
L 126.3456 210.225951 
L 126.3456 203.735415 
L 129.024 201.788254 
L 135.2736 197.244878 
L 135.2736 190.754341 
L 137.952 188.80718 
L 144.2016 184.263805 
L 146.88 182.316644 
L 153.1296 177.773268 
L 153.1296 171.282732 
L 146.88 166.739356 
L 137.952 166.739356 
L 135.2736 164.792195 
L 129.024 160.24882 
L 120.096 160.24882 
L 117.4176 158.301659 
L 111.168 153.758283 
L 102.24 153.758283 
L 93.312 153.758283 
L 84.384 153.758283 
L 75.456 153.758283 
L 69.2064 158.301659 
L 66.528 160.24882 
L 57.6 160.24882 
L 57.6 161.2224 
L 66.528 161.2224 
L 70.5456 158.301659 
L 75.456 154.731863 
L 84.384 154.731863 
L 93.312 154.731863 
L 102.24 154.731863 
L 111.168 154.731863 
L 116.0784 158.301659 
L 120.096 161.2224 
L 129.024 161.2224 
L 133.9344 164.792195 
L 137.952 167.712937 
L 146.88 167.712937 
L 151.7904 171.282732 
L 151.7904 177.773268 
L 146.88 181.343063 
L 142.8624 184.263805 
L 137.952 187.8336 
L 133.9344 190.754341 
L 133.9344 197.244878 
L 129.024 200.814673 
L 125.0064 203.735415 
L 125.0064 210.225951 
L 129.024 213.146693 
L 133.0416 210.225951 
L 137.952 206.656156 
L 146.88 206.656156 
L 150.8976 203.735415 
L 155.808 200.16562 
L 164.736 200.16562 
L 173.664 200.16562 
L 182.592 200.16562 
L 187.5024 203.735415 
L 187.5024 210.225951 
L 187.5024 216.716488 
L 187.5024 223.207024 
L 187.5024 229.697561 
L 191.52 232.618302 
L 195.5376 229.697561 
L 200.448 226.127766 
L 209.376 226.127766 
L 218.304 226.127766 
L 223.2144 229.697561 
L 223.2144 236.188098 
L 223.2144 242.678634 
L 223.2144 249.169171 
z
" style="fill:#2e6e8e;fill-opacity:0.4;"/>
   </g>
   <g id="PathCollection_4">
    <path clip-path="url(#p98d736b8d8)" d="M 227.232 253.063493 
L 232.5888 249.169171 
L 236.16 246.572956 
L 245.088 246.572956 
L 250.4448 242.678634 
L 250.4448 236.188098 
L 250.4448 229.697561 
L 245.088 225.803239 
L 236.16 225.803239 
L 232.5888 223.207024 
L 227.232 219.312702 
L 223.6608 216.716488 
L 218.304 212.822166 
L 214.7328 210.225951 
L 209.376 206.331629 
L 205.8048 203.735415 
L 205.8048 197.244878 
L 205.8048 190.754341 
L 200.448 186.86002 
L 191.52 186.86002 
L 187.9488 184.263805 
L 182.592 180.369483 
L 173.664 180.369483 
L 164.736 180.369483 
L 161.1648 177.773268 
L 161.1648 171.282732 
L 161.1648 164.792195 
L 155.808 160.897873 
L 146.88 160.897873 
L 143.3088 158.301659 
L 143.3088 151.811122 
L 137.952 147.9168 
L 134.3808 145.320585 
L 134.3808 138.830049 
L 134.3808 132.339512 
L 134.3808 125.848976 
L 137.952 123.252761 
L 143.3088 119.358439 
L 143.3088 112.867902 
L 143.3088 106.377366 
L 143.3088 99.886829 
L 143.3088 93.396293 
L 143.3088 86.905756 
L 137.952 83.011434 
L 134.3808 80.41522 
L 134.3808 73.924683 
L 134.3808 67.434146 
L 134.3808 60.94361 
L 129.024 57.049288 
L 125.4528 54.453073 
L 125.4528 47.962537 
L 125.4528 41.472 
L 124.1136 41.472 
L 124.1136 47.962537 
L 124.1136 54.453073 
L 129.024 58.022868 
L 133.0416 60.94361 
L 133.0416 67.434146 
L 133.0416 73.924683 
L 133.0416 80.41522 
L 137.952 83.985015 
L 141.9696 86.905756 
L 141.9696 93.396293 
L 141.9696 99.886829 
L 141.9696 106.377366 
L 141.9696 112.867902 
L 141.9696 119.358439 
L 137.952 122.27918 
L 133.0416 125.848976 
L 133.0416 132.339512 
L 133.0416 138.830049 
L 133.0416 145.320585 
L 137.952 148.89038 
L 141.9696 151.811122 
L 141.9696 158.301659 
L 146.88 161.871454 
L 155.808 161.871454 
L 159.8256 164.792195 
L 159.8256 171.282732 
L 159.8256 177.773268 
L 164.736 181.343063 
L 173.664 181.343063 
L 182.592 181.343063 
L 186.6096 184.263805 
L 191.52 187.8336 
L 200.448 187.8336 
L 204.4656 190.754341 
L 204.4656 197.244878 
L 204.4656 203.735415 
L 209.376 207.30521 
L 213.3936 210.225951 
L 218.304 213.795746 
L 222.3216 216.716488 
L 227.232 220.286283 
L 231.2496 223.207024 
L 236.16 226.77682 
L 245.088 226.77682 
L 249.1056 229.697561 
L 249.1056 236.188098 
L 249.1056 242.678634 
L 245.088 245.599376 
L 236.16 245.599376 
L 231.2496 249.169171 
L 227.232 252.089912 
L 223.2144 249.169171 
L 223.2144 242.678634 
L 223.2144 236.188098 
L 223.2144 229.697561 
L 218.304 226.127766 
L 209.376 226.127766 
L 200.448 226.127766 
L 195.5376 229.697561 
L 191.52 232.618302 
L 187.5024 229.697561 
L 187.5024 223.207024 
L 187.5024 216.716488 
L 187.5024 210.225951 
L 187.5024 203.735415 
L 182.592 200.16562 
L 173.664 200.16562 
L 164.736 200.16562 
L 155.808 200.16562 
L 150.8976 203.735415 
L 146.88 206.656156 
L 137.952 206.656156 
L 133.0416 210.225951 
L 129.024 213.146693 
L 125.0064 210.225951 
L 125.0064 203.735415 
L 129.024 200.814673 
L 133.9344 197.244878 
L 133.9344 190.754341 
L 137.952 187.8336 
L 142.8624 184.263805 
L 146.88 181.343063 
L 151.7904 177.773268 
L 151.7904 171.282732 
L 146.88 167.712937 
L 137.952 167.712937 
L 133.9344 164.792195 
L 129.024 161.2224 
L 120.096 161.2224 
L 116.0784 158.301659 
L 111.168 154.731863 
L 102.24 154.731863 
L 93.312 154.731863 
L 84.384 154.731863 
L 75.456 154.731863 
L 70.5456 158.301659 
L 66.528 161.2224 
L 57.6 161.2224 
L 57.6 162.19598 
L 66.528 162.19598 
L 71.8848 158.301659 
L 75.456 155.705444 
L 84.384 155.705444 
L 93.312 155.705444 
L 102.24 155.705444 
L 111.168 155.705444 
L 114.7392 158.301659 
L 120.096 162.19598 
L 129.024 162.19598 
L 132.5952 164.792195 
L 137.952 168.686517 
L 146.88 168.686517 
L 150.4512 171.282732 
L 150.4512 177.773268 
L 146.88 180.369483 
L 141.5232 184.263805 
L 137.952 186.86002 
L 132.5952 190.754341 
L 132.5952 197.244878 
L 129.024 199.841093 
L 123.6672 203.735415 
L 123.6672 210.225951 
L 129.024 214.120273 
L 134.3808 210.225951 
L 137.952 207.629737 
L 146.88 207.629737 
L 152.2368 203.735415 
L 155.808 201.1392 
L 164.736 201.1392 
L 173.664 201.1392 
L 182.592 201.1392 
L 186.1632 203.735415 
L 186.1632 210.225951 
L 186.1632 216.716488 
L 186.1632 223.207024 
L 186.1632 229.697561 
L 191.52 233.591883 
L 196.8768 229.697561 
L 200.448 227.101346 
L 209.376 227.101346 
L 218.304 227.101346 
L 221.8752 229.697561 
L 221.8752 236.188098 
L 221.8752 242.678634 
L 221.8752 249.169171 
z
" style="fill:#21918c;fill-opacity:0.4;"/>
   </g>
   <g id="PathCollection_5">
    <path clip-path="url(#p98d736b8d8)" d="M 227.232 254.037073 
L 233.928 249.169171 
L 236.16 247.546537 
L 245.088 247.546537 
L 251.784 242.678634 
L 251.784 236.188098 
L 251.784 229.697561 
L 245.088 224.829659 
L 236.16 224.829659 
L 233.928 223.207024 
L 227.232 218.339122 
L 225 216.716488 
L 218.304 211.848585 
L 216.072 210.225951 
L 209.376 205.358049 
L 207.144 203.735415 
L 207.144 197.244878 
L 207.144 190.754341 
L 200.448 185.886439 
L 191.52 185.886439 
L 189.288 184.263805 
L 182.592 179.395902 
L 173.664 179.395902 
L 164.736 179.395902 
L 162.504 177.773268 
L 162.504 171.282732 
L 162.504 164.792195 
L 155.808 159.924293 
L 146.88 159.924293 
L 144.648 158.301659 
L 144.648 151.811122 
L 137.952 146.94322 
L 135.72 145.320585 
L 135.72 138.830049 
L 135.72 132.339512 
L 135.72 125.848976 
L 137.952 124.226341 
L 144.648 119.358439 
L 144.648 112.867902 
L 144.648 106.377366 
L 144.648 99.886829 
L 144.648 93.396293 
L 144.648 86.905756 
L 137.952 82.037854 
L 135.72 80.41522 
L 135.72 73.924683 
L 135.72 67.434146 
L 135.72 60.94361 
L 129.024 56.075707 
L 126.792 54.453073 
L 126.792 47.962537 
L 126.792 41.472 
L 125.4528 41.472 
L 125.4528 47.962537 
L 125.4528 54.453073 
L 129.024 57.049288 
L 134.3808 60.94361 
L 134.3808 67.434146 
L 134.3808 73.924683 
L 134.3808 80.41522 
L 137.952 83.011434 
L 143.3088 86.905756 
L 143.3088 93.396293 
L 143.3088 99.886829 
L 143.3088 106.377366 
L 143.3088 112.867902 
L 143.3088 119.358439 
L 137.952 123.252761 
L 134.3808 125.848976 
L 134.3808 132.339512 
L 134.3808 138.830049 
L 134.3808 145.320585 
L 137.952 147.9168 
L 143.3088 151.811122 
L 143.3088 158.301659 
L 146.88 160.897873 
L 155.808 160.897873 
L 161.1648 164.792195 
L 161.1648 171.282732 
L 161.1648 177.773268 
L 164.736 180.369483 
L 173.664 180.369483 
L 182.592 180.369483 
L 187.9488 184.263805 
L 191.52 186.86002 
L 200.448 186.86002 
L 205.8048 190.754341 
L 205.8048 197.244878 
L 205.8048 203.735415 
L 209.376 206.331629 
L 214.7328 210.225951 
L 218.304 212.822166 
L 223.6608 216.716488 
L 227.232 219.312702 
L 232.5888 223.207024 
L 236.16 225.803239 
L 245.088 225.803239 
L 250.4448 229.697561 
L 250.4448 236.188098 
L 250.4448 242.678634 
L 245.088 246.572956 
L 236.16 246.572956 
L 232.5888 249.169171 
L 227.232 253.063493 
L 221.8752 249.169171 
L 221.8752 242.678634 
L 221.8752 236.188098 
L 221.8752 229.697561 
L 218.304 227.101346 
L 209.376 227.101346 
L 200.448 227.101346 
L 196.8768 229.697561 
L 191.52 233.591883 
L 186.1632 229.697561 
L 186.1632 223.207024 
L 186.1632 216.716488 
L 186.1632 210.225951 
L 186.1632 203.735415 
L 182.592 201.1392 
L 173.664 201.1392 
L 164.736 201.1392 
L 155.808 201.1392 
L 152.2368 203.735415 
L 146.88 207.629737 
L 137.952 207.629737 
L 134.3808 210.225951 
L 129.024 214.120273 
L 123.6672 210.225951 
L 123.6672 203.735415 
L 129.024 199.841093 
L 132.5952 197.244878 
L 132.5952 190.754341 
L 137.952 186.86002 
L 141.5232 184.263805 
L 146.88 180.369483 
L 150.4512 177.773268 
L 150.4512 171.282732 
L 146.88 168.686517 
L 137.952 168.686517 
L 132.5952 164.792195 
L 129.024 162.19598 
L 120.096 162.19598 
L 114.7392 158.301659 
L 111.168 155.705444 
L 102.24 155.705444 
L 93.312 155.705444 
L 84.384 155.705444 
L 75.456 155.705444 
L 71.8848 158.301659 
L 66.528 162.19598 
L 57.6 162.19598 
L 57.6 163.169561 
L 66.528 163.169561 
L 73.224 158.301659 
L 75.456 156.679024 
L 84.384 156.679024 
L 93.312 156.679024 
L 102.24 156.679024 
L 111.168 156.679024 
L 113.4 158.301659 
L 120.096 163.169561 
L 129.024 163.169561 
L 131.256 164.792195 
L 137.952 169.660098 
L 146.88 169.660098 
L 149.112 171.282732 
L 149.112 177.773268 
L 146.88 179.395902 
L 140.184 184.263805 
L 137.952 185.886439 
L 131.256 190.754341 
L 131.256 197.244878 
L 129.024 198.867512 
L 122.328 203.735415 
L 122.328 210.225951 
L 129.024 215.093854 
L 135.72 210.225951 
L 137.952 208.603317 
L 146.88 208.603317 
L 153.576 203.735415 
L 155.808 202.11278 
L 164.736 202.11278 
L 173.664 202.11278 
L 182.592 202.11278 
L 184.824 203.735415 
L 184.824 210.225951 
L 184.824 216.716488 
L 184.824 223.207024 
L 184.824 229.697561 
L 191.52 234.565463 
L 198.216 229.697561 
L 200.448 228.074927 
L 209.376 228.074927 
L 218.304 228.074927 
L 220.536 229.697561 
L 220.536 236.188098 
L 220.536 242.678634 
L 220.536 249.169171 
z
" style="fill:#2db27d;fill-opacity:0.4;"/>
   </g>
   <g id="PathCollection_6">
    <path clip-path="url(#p98d736b8d8)" d="M 227.232 255.010654 
L 235.2672 249.169171 
L 236.16 248.520117 
L 245.088 248.520117 
L 253.1232 242.678634 
L 253.1232 236.188098 
L 253.1232 229.697561 
L 245.088 223.856078 
L 236.16 223.856078 
L 235.2672 223.207024 
L 227.232 217.365541 
L 226.3392 216.716488 
L 218.304 210.875005 
L 217.4112 210.225951 
L 209.376 204.384468 
L 208.4832 203.735415 
L 208.4832 197.244878 
L 208.4832 190.754341 
L 200.448 184.912859 
L 191.52 184.912859 
L 190.6272 184.263805 
L 182.592 178.422322 
L 173.664 178.422322 
L 164.736 178.422322 
L 163.8432 177.773268 
L 163.8432 171.282732 
L 163.8432 164.792195 
L 155.808 158.950712 
L 146.88 158.950712 
L 145.9872 158.301659 
L 145.9872 151.811122 
L 137.952 145.969639 
L 137.0592 145.320585 
L 137.0592 138.830049 
L 137.0592 132.339512 
L 137.0592 125.848976 
L 137.952 125.199922 
L 145.9872 119.358439 
L 145.9872 112.867902 
L 145.9872 106.377366 
L 145.9872 99.886829 
L 145.9872 93.396293 
L 145.9872 86.905756 
L 137.952 81.064273 
L 137.0592 80.41522 
L 137.0592 73.924683 
L 137.0592 67.434146 
L 137.0592 60.94361 
L 129.024 55.102127 
L 128.1312 54.453073 
L 128.1312 47.962537 
L 128.1312 41.472 
L 126.792 41.472 
L 126.792 47.962537 
L 126.792 54.453073 
L 129.024 56.075707 
L 135.72 60.94361 
L 135.72 67.434146 
L 135.72 73.924683 
L 135.72 80.41522 
L 137.952 82.037854 
L 144.648 86.905756 
L 144.648 93.396293 
L 144.648 99.886829 
L 144.648 106.377366 
L 144.648 112.867902 
L 144.648 119.358439 
L 137.952 124.226341 
L 135.72 125.848976 
L 135.72 132.339512 
L 135.72 138.830049 
L 135.72 145.320585 
L 137.952 146.94322 
L 144.648 151.811122 
L 144.648 158.301659 
L 146.88 159.924293 
L 155.808 159.924293 
L 162.504 164.792195 
L 162.504 171.282732 
L 162.504 177.773268 
L 164.736 179.395902 
L 173.664 179.395902 
L 182.592 179.395902 
L 189.288 184.263805 
L 191.52 185.886439 
L 200.448 185.886439 
L 207.144 190.754341 
L 207.144 197.244878 
L 207.144 203.735415 
L 209.376 205.358049 
L 216.072 210.225951 
L 218.304 211.848585 
L 225 216.716488 
L 227.232 218.339122 
L 233.928 223.207024 
L 236.16 224.829659 
L 245.088 224.829659 
L 251.784 229.697561 
L 251.784 236.188098 
L 251.784 242.678634 
L 245.088 247.546537 
L 236.16 247.546537 
L 233.928 249.169171 
L 227.232 254.037073 
L 220.536 249.169171 
L 220.536 242.678634 
L 220.536 236.188098 
L 220.536 229.697561 
L 218.304 228.074927 
L 209.376 228.074927 
L 200.448 228.074927 
L 198.216 229.697561 
L 191.52 234.565463 
L 184.824 229.697561 
L 184.824 223.207024 
L 184.824 216.716488 
L 184.824 210.225951 
L 184.824 203.735415 
L 182.592 202.11278 
L 173.664 202.11278 
L 164.736 202.11278 
L 155.808 202.11278 
L 153.576 203.735415 
L 146.88 208.603317 
L 137.952 208.603317 
L 135.72 210.225951 
L 129.024 215.093854 
L 122.328 210.225951 
L 122.328 203.735415 
L 129.024 198.867512 
L 131.256 197.244878 
L 131.256 190.754341 
L 137.952 185.886439 
L 140.184 184.263805 
L 146.88 179.395902 
L 149.112 177.773268 
L 149.112 171.282732 
L 146.88 169.660098 
L 137.952 169.660098 
L 131.256 164.792195 
L 129.024 163.169561 
L 120.096 163.169561 
L 113.4 158.301659 
L 111.168 156.679024 
L 102.24 156.679024 
L 93.312 156.679024 
L 84.384 156.679024 
L 75.456 156.679024 
L 73.224 158.301659 
L 66.528 163.169561 
L 57.6 163.169561 
L 57.6 164.143141 
L 66.528 164.143141 
L 74.5632 158.301659 
L 75.456 157.652605 
L 84.384 157.652605 
L 93.312 157.652605 
L 102.24 157.652605 
L 111.168 157.652605 
L 112.0608 158.301659 
L 120.096 164.143141 
L 129.024 164.143141 
L 129.9168 164.792195 
L 137.952 170.633678 
L 146.88 170.633678 
L 147.7728 171.282732 
L 147.7728 177.773268 
L 146.88 178.422322 
L 138.8448 184.263805 
L 137.952 184.912859 
L 129.9168 190.754341 
L 129.9168 197.244878 
L 129.024 197.893932 
L 120.9888 203.735415 
L 120.9888 210.225951 
L 129.024 216.067434 
L 137.0592 210.225951 
L 137.952 209.576898 
L 146.88 209.576898 
L 154.9152 203.735415 
L 155.808 203.086361 
L 164.736 203.086361 
L 173.664 203.086361 
L 182.592 203.086361 
L 183.4848 203.735415 
L 183.4848 210.225951 
L 183.4848 216.716488 
L 183.4848 223.207024 
L 183.4848 229.697561 
L 191.52 235.539044 
L 199.5552 229.697561 
L 200.448 229.048507 
L 209.376 229.048507 
L 218.304 229.048507 
L 219.1968 229.697561 
L 219.1968 236.188098 
L 219.1968 242.678634 
L 219.1968 249.169171 
z
" style="fill:#73d056;fill-opacity:0.4;"/>
   </g>
   <g id="PathCollection_7">
    <path clip-path="url(#p98d736b8d8)" d="M 66.528 307.584 
L 75.456 307.584 
L 84.384 307.584 
L 93.312 307.584 
L 102.24 307.584 
L 111.168 307.584 
L 120.096 307.584 
L 129.024 307.584 
L 137.952 307.584 
L 146.88 307.584 
L 155.808 307.584 
L 164.736 307.584 
L 173.664 307.584 
L 182.592 307.584 
L 191.52 307.584 
L 200.448 307.584 
L 209.376 307.584 
L 218.304 307.584 
L 227.232 307.584 
L 236.16 307.584 
L 245.088 307.584 
L 254.016 307.584 
L 262.944 307.584 
L 271.872 307.584 
L 280.8 307.584 
L 289.728 307.584 
L 298.656 307.584 
L 307.584 307.584 
L 316.512 307.584 
L 325.44 307.584 
L 334.368 307.584 
L 343.296 307.584 
L 352.224 307.584 
L 361.152 307.584 
L 370.08 307.584 
L 379.008 307.584 
L 387.936 307.584 
L 396.864 307.584 
L 405.792 307.584 
L 414.72 307.584 
L 414.72 301.093463 
L 414.72 294.602927 
L 414.72 288.11239 
L 414.72 281.621854 
L 414.72 275.131317 
L 414.72 268.64078 
L 414.72 262.150244 
L 414.72 255.659707 
L 414.72 249.169171 
L 414.72 242.678634 
L 414.72 236.188098 
L 414.72 229.697561 
L 414.72 223.207024 
L 414.72 216.716488 
L 414.72 210.225951 
L 414.72 203.735415 
L 414.72 197.244878 
L 414.72 190.754341 
L 414.72 184.263805 
L 414.72 177.773268 
L 414.72 171.282732 
L 414.72 164.792195 
L 414.72 158.301659 
L 414.72 151.811122 
L 414.72 145.320585 
L 414.72 138.830049 
L 414.72 132.339512 
L 414.72 125.848976 
L 414.72 119.358439 
L 414.72 112.867902 
L 414.72 106.377366 
L 414.72 99.886829 
L 414.72 93.396293 
L 414.72 86.905756 
L 414.72 80.41522 
L 414.72 73.924683 
L 414.72 67.434146 
L 414.72 60.94361 
L 414.72 54.453073 
L 414.72 47.962537 
L 414.72 41.472 
L 405.792 41.472 
L 396.864 41.472 
L 387.936 41.472 
L 379.008 41.472 
L 370.08 41.472 
L 361.152 41.472 
L 352.224 41.472 
L 343.296 41.472 
L 334.368 41.472 
L 325.44 41.472 
L 316.512 41.472 
L 307.584 41.472 
L 298.656 41.472 
L 289.728 41.472 
L 280.8 41.472 
L 271.872 41.472 
L 262.944 41.472 
L 254.016 41.472 
L 245.088 41.472 
L 236.16 41.472 
L 227.232 41.472 
L 218.304 41.472 
L 209.376 41.472 
L 200.448 41.472 
L 191.52 41.472 
L 182.592 41.472 
L 173.664 41.472 
L 164.736 41.472 
L 155.808 41.472 
L 146.88 41.472 
L 137.952 41.472 
L 129.024 41.472 
L 128.1312 41.472 
L 128.1312 47.962537 
L 128.1312 54.453073 
L 129.024 55.102127 
L 137.0592 60.94361 
L 137.0592 67.434146 
L 137.0592 73.924683 
L 137.0592 80.41522 
L 137.952 81.064273 
L 145.9872 86.905756 
L 145.9872 93.396293 
L 145.9872 99.886829 
L 145.9872 106.377366 
L 145.9872 112.867902 
L 145.9872 119.358439 
L 137.952 125.199922 
L 137.0592 125.848976 
L 137.0592 132.339512 
L 137.0592 138.830049 
L 137.0592 145.320585 
L 137.952 145.969639 
L 145.9872 151.811122 
L 145.9872 158.301659 
L 146.88 158.950712 
L 155.808 158.950712 
L 163.8432 164.792195 
L 163.8432 171.282732 
L 163.8432 177.773268 
L 164.736 178.422322 
L 173.664 178.422322 
L 182.592 178.422322 
L 190.6272 184.263805 
L 191.52 184.912859 
L 200.448 184.912859 
L 208.4832 190.754341 
L 208.4832 197.244878 
L 208.4832 203.735415 
L 209.376 204.384468 
L 217.4112 210.225951 
L 218.304 210.875005 
L 226.3392 216.716488 
L 227.232 217.365541 
L 235.2672 223.207024 
L 236.16 223.856078 
L 245.088 223.856078 
L 253.1232 229.697561 
L 253.1232 236.188098 
L 253.1232 242.678634 
L 245.088 248.520117 
L 236.16 248.520117 
L 235.2672 249.169171 
L 227.232 255.010654 
L 219.1968 249.169171 
L 219.1968 242.678634 
L 219.1968 236.188098 
L 219.1968 229.697561 
L 218.304 229.048507 
L 209.376 229.048507 
L 200.448 229.048507 
L 199.5552 229.697561 
L 191.52 235.539044 
L 183.4848 229.697561 
L 183.4848 223.207024 
L 183.4848 216.716488 
L 183.4848 210.225951 
L 183.4848 203.735415 
L 182.592 203.086361 
L 173.664 203.086361 
L 164.736 203.086361 
L 155.808 203.086361 
L 154.9152 203.735415 
L 146.88 209.576898 
L 137.952 209.576898 
L 137.0592 210.225951 
L 129.024 216.067434 
L 120.9888 210.225951 
L 120.9888 203.735415 
L 129.024 197.893932 
L 129.9168 197.244878 
L 129.9168 190.754341 
L 137.952 184.912859 
L 138.8448 184.263805 
L 146.88 178.422322 
L 147.7728 177.773268 
L 147.7728 171.282732 
L 146.88 170.633678 
L 137.952 170.633678 
L 129.9168 164.792195 
L 129.024 164.143141 
L 120.096 164.143141 
L 112.0608 158.301659 
L 111.168 157.652605 
L 102.24 157.652605 
L 93.312 157.652605 
L 84.384 157.652605 
L 75.456 157.652605 
L 74.5632 158.301659 
L 66.528 164.143141 
L 57.6 164.143141 
L 57.6 164.792195 
L 57.6 171.282732 
L 57.6 177.773268 
L 57.6 184.263805 
L 57.6 190.754341 
L 57.6 197.244878 
L 57.6 203.735415 
L 57.6 210.225951 
L 57.6 216.716488 
L 57.6 223.207024 
L 57.6 229.697561 
L 57.6 236.188098 
L 57.6 242.678634 
L 57.6 249.169171 
L 57.6 255.659707 
L 57.6 262.150244 
L 57.6 268.64078 
L 57.6 275.131317 
L 57.6 281.621854 
L 57.6 288.11239 
L 57.6 294.602927 
L 57.6 301.093463 
L 57.6 307.584 
z
" style="fill:#d0e11c;fill-opacity:0.4;"/>
   </g>
   <g id="PathCollection_8">
    <defs>
     <path d="M 0 3 
C 0.795609 3 1.55874 2.683901 2.12132 2.12132 
C 2.683901 1.55874 3 0.795609 3 0 
C 3 -0.795609 2.683901 -1.55874 2.12132 -2.12132 
C 1.55874 -2.683901 0.795609 -3 0 -3 
C -0.795609 -3 -1.55874 -2.683901 -2.12132 -2.12132 
C -2.683901 -1.55874 -3 -0.795609 -3 0 
C -3 0.795609 -2.683901 1.55874 -2.12132 2.12132 
C -1.55874 2.683901 -0.795609 3 0 3 
z
" id="C0_0_c03a5f9c0c"/>
    </defs>
    <g clip-path="url(#p98d736b8d8)">
     <use style="fill:#440154;fill-opacity:0.8;stroke:#000000;stroke-opacity:0.8;" x="158.965332" xlink:href="#C0_0_c03a5f9c0c" y="176.454878"/>
    </g>
    <g clip-path="url(#p98d736b8d8)">
     <use style="fill:#440154;fill-opacity:0.8;stroke:#000000;stroke-opacity:0.8;" x="194.960891" xlink:href="#C0_0_c03a5f9c0c" y="200.342886"/>
    </g>
    <g clip-path="url(#p98d736b8d8)">
     <use style="fill:#fde725;fill-opacity:0.8;stroke:#000000;stroke-opacity:0.8;" x="274.352017" xlink:href="#C0_0_c03a5f9c0c" y="160.304303"/>
    </g>
    <g clip-path="url(#p98d736b8d8)">
     <use style="fill:#fde725;fill-opacity:0.8;stroke:#000000;stroke-opacity:0.8;" x="253.274668" xlink:href="#C0_0_c03a5f9c0c" y="177.156437"/>
    </g>
    <g clip-path="url(#p98d736b8d8)">
     <use style="fill:#fde725;fill-opacity:0.8;stroke:#000000;stroke-opacity:0.8;" x="293.938865" xlink:href="#C0_0_c03a5f9c0c" y="72.017473"/>
    </g>
    <g clip-path="url(#p98d736b8d8)">
     <use style="fill:#440154;fill-opacity:0.8;stroke:#000000;stroke-opacity:0.8;" x="228.400504" xlink:href="#C0_0_c03a5f9c0c" y="229.97609"/>
    </g>
    <g clip-path="url(#p98d736b8d8)">
     <use style="fill:#440154;fill-opacity:0.8;stroke:#000000;stroke-opacity:0.8;" x="229.019446" xlink:href="#C0_0_c03a5f9c0c" y="226.566515"/>
    </g>
    <g clip-path="url(#p98d736b8d8)">
     <use style="fill:#440154;fill-opacity:0.8;stroke:#000000;stroke-opacity:0.8;" x="162.310451" xlink:href="#C0_0_c03a5f9c0c" y="182.797509"/>
    </g>
    <g clip-path="url(#p98d736b8d8)">
     <use style="fill:#440154;fill-opacity:0.8;stroke:#000000;stroke-opacity:0.8;" x="219.158169" xlink:href="#C0_0_c03a5f9c0c" y="231.096049"/>
    </g>
    <g clip-path="url(#p98d736b8d8)">
     <use style="fill:#440154;fill-opacity:0.8;stroke:#000000;stroke-opacity:0.8;" x="218.683478" xlink:href="#C0_0_c03a5f9c0c" y="215.530106"/>
    </g>
    <g clip-path="url(#p98d736b8d8)">
     <use style="fill:#440154;fill-opacity:0.8;stroke:#000000;stroke-opacity:0.8;" x="231.033156" xlink:href="#C0_0_c03a5f9c0c" y="227.238041"/>
    </g>
    <g clip-path="url(#p98d736b8d8)">
     <use style="fill:#fde725;fill-opacity:0.8;stroke:#000000;stroke-opacity:0.8;" x="165.974068" xlink:href="#C0_0_c03a5f9c0c" y="169.809379"/>
    </g>
    <g clip-path="url(#p98d736b8d8)">
     <use style="fill:#440154;fill-opacity:0.8;stroke:#000000;stroke-opacity:0.8;" x="158.810431" xlink:href="#C0_0_c03a5f9c0c" y="179.07491"/>
    </g>
    <g clip-path="url(#p98d736b8d8)">
     <use style="fill:#440154;fill-opacity:0.8;stroke:#000000;stroke-opacity:0.8;" x="107.668073" xlink:href="#C0_0_c03a5f9c0c" y="127.424888"/>
    </g>
    <g clip-path="url(#p98d736b8d8)">
     <use style="fill:#fde725;fill-opacity:0.8;stroke:#000000;stroke-opacity:0.8;" x="252.262778" xlink:href="#C0_0_c03a5f9c0c" y="211.780525"/>
    </g>
    <g clip-path="url(#p98d736b8d8)">
     <use style="fill:#440154;fill-opacity:0.8;stroke:#000000;stroke-opacity:0.8;" x="182.235578" xlink:href="#C0_0_c03a5f9c0c" y="195.336646"/>
    </g>
    <g clip-path="url(#p98d736b8d8)">
     <use style="fill:#fde725;fill-opacity:0.8;stroke:#000000;stroke-opacity:0.8;" x="189.837425" xlink:href="#C0_0_c03a5f9c0c" y="128.177206"/>
    </g>
    <g clip-path="url(#p98d736b8d8)">
     <use style="fill:#fde725;fill-opacity:0.8;stroke:#000000;stroke-opacity:0.8;" x="177.254182" xlink:href="#C0_0_c03a5f9c0c" y="139.360262"/>
    </g>
    <g clip-path="url(#p98d736b8d8)">
     <use style="fill:#fde725;fill-opacity:0.8;stroke:#000000;stroke-opacity:0.8;" x="190.965227" xlink:href="#C0_0_c03a5f9c0c" y="175.959601"/>
    </g>
    <g clip-path="url(#p98d736b8d8)">
     <use style="fill:#440154;fill-opacity:0.8;stroke:#000000;stroke-opacity:0.8;" x="135.791321" xlink:href="#C0_0_c03a5f9c0c" y="154.494054"/>
    </g>
    <g clip-path="url(#p98d736b8d8)">
     <use style="fill:#fde725;fill-opacity:0.8;stroke:#000000;stroke-opacity:0.8;" x="230.635543" xlink:href="#C0_0_c03a5f9c0c" y="264.099245"/>
    </g>
    <g clip-path="url(#p98d736b8d8)">
     <use style="fill:#fde725;fill-opacity:0.8;stroke:#000000;stroke-opacity:0.8;" x="239.164264" xlink:href="#C0_0_c03a5f9c0c" y="155.558887"/>
    </g>
    <g clip-path="url(#p98d736b8d8)">
     <use style="fill:#fde725;fill-opacity:0.8;stroke:#000000;stroke-opacity:0.8;" x="147.458002" xlink:href="#C0_0_c03a5f9c0c" y="145.434774"/>
    </g>
    <g clip-path="url(#p98d736b8d8)">
     <use style="fill:#fde725;fill-opacity:0.8;stroke:#000000;stroke-opacity:0.8;" x="312.641001" xlink:href="#C0_0_c03a5f9c0c" y="249.146111"/>
    </g>
    <g clip-path="url(#p98d736b8d8)">
     <use style="fill:#fde725;fill-opacity:0.8;stroke:#000000;stroke-opacity:0.8;" x="233.634216" xlink:href="#C0_0_c03a5f9c0c" y="219.510094"/>
    </g>
    <g clip-path="url(#p98d736b8d8)">
     <use style="fill:#fde725;fill-opacity:0.8;stroke:#000000;stroke-opacity:0.8;" x="244.651766" xlink:href="#C0_0_c03a5f9c0c" y="201.396876"/>
    </g>
    <g clip-path="url(#p98d736b8d8)">
     <use style="fill:#fde725;fill-opacity:0.8;stroke:#000000;stroke-opacity:0.8;" x="181.482634" xlink:href="#C0_0_c03a5f9c0c" y="209.96168"/>
    </g>
    <g clip-path="url(#p98d736b8d8)">
     <use style="fill:#440154;fill-opacity:0.8;stroke:#000000;stroke-opacity:0.8;" x="131.896381" xlink:href="#C0_0_c03a5f9c0c" y="149.004198"/>
    </g>
    <g clip-path="url(#p98d736b8d8)">
     <use style="fill:#fde725;fill-opacity:0.8;stroke:#000000;stroke-opacity:0.8;" x="271.934563" xlink:href="#C0_0_c03a5f9c0c" y="178.326653"/>
    </g>
    <g clip-path="url(#p98d736b8d8)">
     <use style="fill:#440154;fill-opacity:0.8;stroke:#000000;stroke-opacity:0.8;" x="160.648149" xlink:href="#C0_0_c03a5f9c0c" y="175.489408"/>
    </g>
    <g clip-path="url(#p98d736b8d8)">
     <use style="fill:#fde725;fill-opacity:0.8;stroke:#000000;stroke-opacity:0.8;" x="233.332512" xlink:href="#C0_0_c03a5f9c0c" y="213.243122"/>
    </g>
    <g clip-path="url(#p98d736b8d8)">
     <use style="fill:#fde725;fill-opacity:0.8;stroke:#000000;stroke-opacity:0.8;" x="244.363509" xlink:href="#C0_0_c03a5f9c0c" y="268.937289"/>
    </g>
    <g clip-path="url(#p98d736b8d8)">
     <use style="fill:#fde725;fill-opacity:0.8;stroke:#000000;stroke-opacity:0.8;" x="246.050428" xlink:href="#C0_0_c03a5f9c0c" y="144.958192"/>
    </g>
    <g clip-path="url(#p98d736b8d8)">
     <use style="fill:#fde725;fill-opacity:0.8;stroke:#000000;stroke-opacity:0.8;" x="219.877381" xlink:href="#C0_0_c03a5f9c0c" y="197.023991"/>
    </g>
    <g clip-path="url(#p98d736b8d8)">
     <use style="fill:#fde725;fill-opacity:0.8;stroke:#000000;stroke-opacity:0.8;" x="269.621225" xlink:href="#C0_0_c03a5f9c0c" y="251.349848"/>
    </g>
    <g clip-path="url(#p98d736b8d8)">
     <use style="fill:#440154;fill-opacity:0.8;stroke:#000000;stroke-opacity:0.8;" x="189.105933" xlink:href="#C0_0_c03a5f9c0c" y="208.257217"/>
    </g>
    <g clip-path="url(#p98d736b8d8)">
     <use style="fill:#fde725;fill-opacity:0.8;stroke:#000000;stroke-opacity:0.8;" x="212.719576" xlink:href="#C0_0_c03a5f9c0c" y="233.588366"/>
    </g>
    <g clip-path="url(#p98d736b8d8)">
     <use style="fill:#fde725;fill-opacity:0.8;stroke:#000000;stroke-opacity:0.8;" x="274.119357" xlink:href="#C0_0_c03a5f9c0c" y="195.033629"/>
    </g>
    <g clip-path="url(#p98d736b8d8)">
     <use style="fill:#440154;fill-opacity:0.8;stroke:#000000;stroke-opacity:0.8;" x="231.811396" xlink:href="#C0_0_c03a5f9c0c" y="238.557737"/>
    </g>
    <g clip-path="url(#p98d736b8d8)">
     <use style="fill:#fde725;fill-opacity:0.8;stroke:#000000;stroke-opacity:0.8;" x="188.343663" xlink:href="#C0_0_c03a5f9c0c" y="259.049873"/>
    </g>
    <g clip-path="url(#p98d736b8d8)">
     <use style="fill:#440154;fill-opacity:0.8;stroke:#000000;stroke-opacity:0.8;" x="149.408046" xlink:href="#C0_0_c03a5f9c0c" y="169.559314"/>
    </g>
    <g clip-path="url(#p98d736b8d8)">
     <use style="fill:#fde725;fill-opacity:0.8;stroke:#000000;stroke-opacity:0.8;" x="307.544147" xlink:href="#C0_0_c03a5f9c0c" y="201.749345"/>
    </g>
    <g clip-path="url(#p98d736b8d8)">
     <use style="fill:#fde725;fill-opacity:0.8;stroke:#000000;stroke-opacity:0.8;" x="327.4254" xlink:href="#C0_0_c03a5f9c0c" y="151.925782"/>
    </g>
    <g clip-path="url(#p98d736b8d8)">
     <use style="fill:#440154;fill-opacity:0.8;stroke:#000000;stroke-opacity:0.8;" x="174.522041" xlink:href="#C0_0_c03a5f9c0c" y="188.017572"/>
    </g>
    <g clip-path="url(#p98d736b8d8)">
     <use style="fill:#fde725;fill-opacity:0.8;stroke:#000000;stroke-opacity:0.8;" x="220.710535" xlink:href="#C0_0_c03a5f9c0c" y="134.616745"/>
    </g>
    <g clip-path="url(#p98d736b8d8)">
     <use style="fill:#440154;fill-opacity:0.8;stroke:#000000;stroke-opacity:0.8;" x="223.960203" xlink:href="#C0_0_c03a5f9c0c" y="226.957449"/>
    </g>
    <g clip-path="url(#p98d736b8d8)">
     <use style="fill:#fde725;fill-opacity:0.8;stroke:#000000;stroke-opacity:0.8;" x="213.792562" xlink:href="#C0_0_c03a5f9c0c" y="155.368884"/>
    </g>
    <g clip-path="url(#p98d736b8d8)">
     <use style="fill:#440154;fill-opacity:0.8;stroke:#000000;stroke-opacity:0.8;" x="184.602704" xlink:href="#C0_0_c03a5f9c0c" y="200.170958"/>
    </g>
    <g clip-path="url(#p98d736b8d8)">
     <use style="fill:#fde725;fill-opacity:0.8;stroke:#000000;stroke-opacity:0.8;" x="148.628196" xlink:href="#C0_0_c03a5f9c0c" y="171.673215"/>
    </g>
    <g clip-path="url(#p98d736b8d8)">
     <use style="fill:#440154;fill-opacity:0.8;stroke:#000000;stroke-opacity:0.8;" x="245.012669" xlink:href="#C0_0_c03a5f9c0c" y="250.054825"/>
    </g>
    <g clip-path="url(#p98d736b8d8)">
     <use style="fill:#fde725;fill-opacity:0.8;stroke:#000000;stroke-opacity:0.8;" x="123.972616" xlink:href="#C0_0_c03a5f9c0c" y="171.240332"/>
    </g>
    <g clip-path="url(#p98d736b8d8)">
     <use style="fill:#fde725;fill-opacity:0.8;stroke:#000000;stroke-opacity:0.8;" x="177.57801" xlink:href="#C0_0_c03a5f9c0c" y="172.354409"/>
    </g>
    <g clip-path="url(#p98d736b8d8)">
     <use style="fill:#fde725;fill-opacity:0.8;stroke:#000000;stroke-opacity:0.8;" x="200.053855" xlink:href="#C0_0_c03a5f9c0c" y="163.8289"/>
    </g>
    <g clip-path="url(#p98d736b8d8)">
     <use style="fill:#440154;fill-opacity:0.8;stroke:#000000;stroke-opacity:0.8;" x="170.457277" xlink:href="#C0_0_c03a5f9c0c" y="181.221683"/>
    </g>
    <g clip-path="url(#p98d736b8d8)">
     <use style="fill:#fde725;fill-opacity:0.8;stroke:#000000;stroke-opacity:0.8;" x="165.871543" xlink:href="#C0_0_c03a5f9c0c" y="275.131317"/>
    </g>
    <g clip-path="url(#p98d736b8d8)">
     <use style="fill:#fde725;fill-opacity:0.8;stroke:#000000;stroke-opacity:0.8;" x="194.042819" xlink:href="#C0_0_c03a5f9c0c" y="167.127761"/>
    </g>
    <g clip-path="url(#p98d736b8d8)">
     <use style="fill:#fde725;fill-opacity:0.8;stroke:#000000;stroke-opacity:0.8;" x="302.530753" xlink:href="#C0_0_c03a5f9c0c" y="156.221823"/>
    </g>
    <g clip-path="url(#p98d736b8d8)">
     <use style="fill:#440154;fill-opacity:0.8;stroke:#000000;stroke-opacity:0.8;" x="170.758393" xlink:href="#C0_0_c03a5f9c0c" y="191.633715"/>
    </g>
    <g clip-path="url(#p98d736b8d8)">
     <use style="fill:#440154;fill-opacity:0.8;stroke:#000000;stroke-opacity:0.8;" x="229.009753" xlink:href="#C0_0_c03a5f9c0c" y="228.980442"/>
    </g>
    <g clip-path="url(#p98d736b8d8)">
     <use style="fill:#440154;fill-opacity:0.8;stroke:#000000;stroke-opacity:0.8;" x="131.917871" xlink:href="#C0_0_c03a5f9c0c" y="153.363673"/>
    </g>
    <g clip-path="url(#p98d736b8d8)">
     <use style="fill:#440154;fill-opacity:0.8;stroke:#000000;stroke-opacity:0.8;" x="153.856087" xlink:href="#C0_0_c03a5f9c0c" y="180.176914"/>
    </g>
    <g clip-path="url(#p98d736b8d8)">
     <use style="fill:#fde725;fill-opacity:0.8;stroke:#000000;stroke-opacity:0.8;" x="370.531435" xlink:href="#C0_0_c03a5f9c0c" y="218.791073"/>
    </g>
    <g clip-path="url(#p98d736b8d8)">
     <use style="fill:#440154;fill-opacity:0.8;stroke:#000000;stroke-opacity:0.8;" x="154.824226" xlink:href="#C0_0_c03a5f9c0c" y="169.632715"/>
    </g>
    <g clip-path="url(#p98d736b8d8)">
     <use style="fill:#440154;fill-opacity:0.8;stroke:#000000;stroke-opacity:0.8;" x="195.117587" xlink:href="#C0_0_c03a5f9c0c" y="210.083433"/>
    </g>
    <g clip-path="url(#p98d736b8d8)">
     <use style="fill:#440154;fill-opacity:0.8;stroke:#000000;stroke-opacity:0.8;" x="102.24" xlink:href="#C0_0_c03a5f9c0c" y="134.222165"/>
    </g>
    <g clip-path="url(#p98d736b8d8)">
     <use style="fill:#440154;fill-opacity:0.8;stroke:#000000;stroke-opacity:0.8;" x="192.367161" xlink:href="#C0_0_c03a5f9c0c" y="200.617822"/>
    </g>
    <g clip-path="url(#p98d736b8d8)">
     <use style="fill:#fde725;fill-opacity:0.8;stroke:#000000;stroke-opacity:0.8;" x="305.971433" xlink:href="#C0_0_c03a5f9c0c" y="229.665822"/>
    </g>
    <g clip-path="url(#p98d736b8d8)">
     <use style="fill:#440154;fill-opacity:0.8;stroke:#000000;stroke-opacity:0.8;" x="211.202182" xlink:href="#C0_0_c03a5f9c0c" y="225.241894"/>
    </g>
    <g clip-path="url(#p98d736b8d8)">
     <use style="fill:#440154;fill-opacity:0.8;stroke:#000000;stroke-opacity:0.8;" x="184.06892" xlink:href="#C0_0_c03a5f9c0c" y="189.652914"/>
    </g>
    <g clip-path="url(#p98d736b8d8)">
     <use style="fill:#440154;fill-opacity:0.8;stroke:#000000;stroke-opacity:0.8;" x="119.158513" xlink:href="#C0_0_c03a5f9c0c" y="140.381911"/>
    </g>
    <g clip-path="url(#p98d736b8d8)">
     <use style="fill:#fde725;fill-opacity:0.8;stroke:#000000;stroke-opacity:0.8;" x="236.912296" xlink:href="#C0_0_c03a5f9c0c" y="261.976843"/>
    </g>
    <g clip-path="url(#p98d736b8d8)">
     <use style="fill:#fde725;fill-opacity:0.8;stroke:#000000;stroke-opacity:0.8;" x="302.159299" xlink:href="#C0_0_c03a5f9c0c" y="212.839314"/>
    </g>
    <g clip-path="url(#p98d736b8d8)">
     <use style="fill:#440154;fill-opacity:0.8;stroke:#000000;stroke-opacity:0.8;" x="176.990581" xlink:href="#C0_0_c03a5f9c0c" y="189.513677"/>
    </g>
    <g clip-path="url(#p98d736b8d8)">
     <use style="fill:#fde725;fill-opacity:0.8;stroke:#000000;stroke-opacity:0.8;" x="175.732661" xlink:href="#C0_0_c03a5f9c0c" y="164.805027"/>
    </g>
    <g clip-path="url(#p98d736b8d8)">
     <use style="fill:#440154;fill-opacity:0.8;stroke:#000000;stroke-opacity:0.8;" x="124.764442" xlink:href="#C0_0_c03a5f9c0c" y="143.852203"/>
    </g>
    <g clip-path="url(#p98d736b8d8)">
     <use style="fill:#440154;fill-opacity:0.8;stroke:#000000;stroke-opacity:0.8;" x="139.54309" xlink:href="#C0_0_c03a5f9c0c" y="156.393657"/>
    </g>
    <g clip-path="url(#p98d736b8d8)">
     <use style="fill:#fde725;fill-opacity:0.8;stroke:#000000;stroke-opacity:0.8;" x="149.073568" xlink:href="#C0_0_c03a5f9c0c" y="157.219587"/>
    </g>
    <g clip-path="url(#p98d736b8d8)">
     <use style="fill:#440154;fill-opacity:0.8;stroke:#000000;stroke-opacity:0.8;" x="203.525534" xlink:href="#C0_0_c03a5f9c0c" y="218.236834"/>
    </g>
    <g clip-path="url(#p98d736b8d8)">
     <use style="fill:#440154;fill-opacity:0.8;stroke:#000000;stroke-opacity:0.8;" x="221.221148" xlink:href="#C0_0_c03a5f9c0c" y="238.028955"/>
    </g>
    <g clip-path="url(#p98d736b8d8)">
     <use style="fill:#440154;fill-opacity:0.8;stroke:#000000;stroke-opacity:0.8;" x="198.321356" xlink:href="#C0_0_c03a5f9c0c" y="216.627503"/>
    </g>
    <g clip-path="url(#p98d736b8d8)">
     <use style="fill:#fde725;fill-opacity:0.8;stroke:#000000;stroke-opacity:0.8;" x="202.796151" xlink:href="#C0_0_c03a5f9c0c" y="149.186024"/>
    </g>
    <g clip-path="url(#p98d736b8d8)">
     <use style="fill:#fde725;fill-opacity:0.8;stroke:#000000;stroke-opacity:0.8;" x="303.62725" xlink:href="#C0_0_c03a5f9c0c" y="223.90651"/>
    </g>
    <g clip-path="url(#p98d736b8d8)">
     <use style="fill:#440154;fill-opacity:0.8;stroke:#000000;stroke-opacity:0.8;" x="186.221822" xlink:href="#C0_0_c03a5f9c0c" y="184.155627"/>
    </g>
    <g clip-path="url(#p98d736b8d8)">
     <use style="fill:#fde725;fill-opacity:0.8;stroke:#000000;stroke-opacity:0.8;" x="304.704105" xlink:href="#C0_0_c03a5f9c0c" y="200.721615"/>
    </g>
    <g clip-path="url(#p98d736b8d8)">
     <use style="fill:#fde725;fill-opacity:0.8;stroke:#000000;stroke-opacity:0.8;" x="248.979682" xlink:href="#C0_0_c03a5f9c0c" y="201.463125"/>
    </g>
    <g clip-path="url(#p98d736b8d8)">
     <use style="fill:#440154;fill-opacity:0.8;stroke:#000000;stroke-opacity:0.8;" x="152.57948" xlink:href="#C0_0_c03a5f9c0c" y="164.817115"/>
    </g>
    <g clip-path="url(#p98d736b8d8)">
     <use style="fill:#fde725;fill-opacity:0.8;stroke:#000000;stroke-opacity:0.8;" x="212.209269" xlink:href="#C0_0_c03a5f9c0c" y="117.328111"/>
    </g>
    <g clip-path="url(#p98d736b8d8)">
     <use style="fill:#440154;fill-opacity:0.8;stroke:#000000;stroke-opacity:0.8;" x="189.18244" xlink:href="#C0_0_c03a5f9c0c" y="207.380319"/>
    </g>
    <g clip-path="url(#p98d736b8d8)">
     <use style="fill:#fde725;fill-opacity:0.8;stroke:#000000;stroke-opacity:0.8;" x="166.369401" xlink:href="#C0_0_c03a5f9c0c" y="176.7922"/>
    </g>
    <g clip-path="url(#p98d736b8d8)">
     <use style="fill:#440154;fill-opacity:0.8;stroke:#000000;stroke-opacity:0.8;" x="138.16741" xlink:href="#C0_0_c03a5f9c0c" y="152.976821"/>
    </g>
    <g clip-path="url(#p98d736b8d8)">
     <use style="fill:#fde725;fill-opacity:0.8;stroke:#000000;stroke-opacity:0.8;" x="208.091676" xlink:href="#C0_0_c03a5f9c0c" y="141.969145"/>
    </g>
    <g clip-path="url(#p98d736b8d8)">
     <use style="fill:#440154;fill-opacity:0.8;stroke:#000000;stroke-opacity:0.8;" x="133.041747" xlink:href="#C0_0_c03a5f9c0c" y="168.637256"/>
    </g>
    <g clip-path="url(#p98d736b8d8)">
     <use style="fill:#440154;fill-opacity:0.8;stroke:#000000;stroke-opacity:0.8;" x="150.499455" xlink:href="#C0_0_c03a5f9c0c" y="167.839346"/>
    </g>
    <g clip-path="url(#p98d736b8d8)">
     <use style="fill:#440154;fill-opacity:0.8;stroke:#000000;stroke-opacity:0.8;" x="207.048803" xlink:href="#C0_0_c03a5f9c0c" y="220.391897"/>
    </g>
    <g clip-path="url(#p98d736b8d8)">
     <use style="fill:#440154;fill-opacity:0.8;stroke:#000000;stroke-opacity:0.8;" x="208.334236" xlink:href="#C0_0_c03a5f9c0c" y="219.414658"/>
    </g>
    <g clip-path="url(#p98d736b8d8)">
     <use style="fill:#fde725;fill-opacity:0.8;stroke:#000000;stroke-opacity:0.8;" x="217.484731" xlink:href="#C0_0_c03a5f9c0c" y="180.387519"/>
    </g>
    <g clip-path="url(#p98d736b8d8)">
     <use style="fill:#440154;fill-opacity:0.8;stroke:#000000;stroke-opacity:0.8;" x="164.424805" xlink:href="#C0_0_c03a5f9c0c" y="174.881987"/>
    </g>
    <g clip-path="url(#p98d736b8d8)">
     <use style="fill:#440154;fill-opacity:0.8;stroke:#000000;stroke-opacity:0.8;" x="171.861931" xlink:href="#C0_0_c03a5f9c0c" y="191.540856"/>
    </g>
    <g clip-path="url(#p98d736b8d8)">
     <use style="fill:#fde725;fill-opacity:0.8;stroke:#000000;stroke-opacity:0.8;" x="287.480993" xlink:href="#C0_0_c03a5f9c0c" y="228.174081"/>
    </g>
    <g clip-path="url(#p98d736b8d8)">
     <use style="fill:#440154;fill-opacity:0.8;stroke:#000000;stroke-opacity:0.8;" x="203.615222" xlink:href="#C0_0_c03a5f9c0c" y="209.239887"/>
    </g>
   </g>
   <g id="matplotlib.axis_1">
    <g id="xtick_1">
     <g id="line2d_1">
      <defs>
       <path d="M 0 0 
L 0 3.5 
" id="m7d35f60c9a" style="stroke:#000000;stroke-width:0.8;"/>
      </defs>
      <g>
       <use style="stroke:#000000;stroke-width:0.8;" x="73.257329" xlink:href="#m7d35f60c9a" y="307.584"/>
      </g>
     </g>
     <g id="text_1">
      <!-- 3 -->
      <defs>
       <path d="M 10.59375 35.5 
L 73.1875 35.5 
L 73.1875 27.203125 
L 10.59375 27.203125 
z
" id="DejaVuSans-8722"/>
       <path d="M 40.578125 39.3125 
Q 47.65625 37.796875 51.625 33 
Q 55.609375 28.21875 55.609375 21.1875 
Q 55.609375 10.40625 48.1875 4.484375 
Q 40.765625 -1.421875 27.09375 -1.421875 
Q 22.515625 -1.421875 17.65625 -0.515625 
Q 12.796875 0.390625 7.625 2.203125 
L 7.625 11.71875 
Q 11.71875 9.328125 16.59375 8.109375 
Q 21.484375 6.890625 26.8125 6.890625 
Q 36.078125 6.890625 40.9375 10.546875 
Q 45.796875 14.203125 45.796875 21.1875 
Q 45.796875 27.640625 41.28125 31.265625 
Q 36.765625 34.90625 28.71875 34.90625 
L 20.21875 34.90625 
L 20.21875 43.015625 
L 29.109375 43.015625 
Q 36.375 43.015625 40.234375 45.921875 
Q 44.09375 48.828125 44.09375 54.296875 
Q 44.09375 59.90625 40.109375 62.90625 
Q 36.140625 65.921875 28.71875 65.921875 
Q 24.65625 65.921875 20.015625 65.03125 
Q 15.375 64.15625 9.8125 62.3125 
L 9.8125 71.09375 
Q 15.4375 72.65625 20.34375 73.4375 
Q 25.25 74.21875 29.59375 74.21875 
Q 40.828125 74.21875 47.359375 69.109375 
Q 53.90625 64.015625 53.90625 55.328125 
Q 53.90625 49.265625 50.4375 45.09375 
Q 46.96875 40.921875 40.578125 39.3125 
z
" id="DejaVuSans-51"/>
      </defs>
      <g transform="translate(65.886236 322.182437)scale(0.1 -0.1)">
       <use xlink:href="#DejaVuSans-8722"/>
       <use x="83.789062" xlink:href="#DejaVuSans-51"/>
      </g>
     </g>
    </g>
    <g id="xtick_2">
     <g id="line2d_2">
      <g>
       <use style="stroke:#000000;stroke-width:0.8;" x="117.897329" xlink:href="#m7d35f60c9a" y="307.584"/>
      </g>
     </g>
     <g id="text_2">
      <!-- 2 -->
      <defs>
       <path d="M 19.1875 8.296875 
L 53.609375 8.296875 
L 53.609375 0 
L 7.328125 0 
L 7.328125 8.296875 
Q 12.9375 14.109375 22.625 23.890625 
Q 32.328125 33.6875 34.8125 36.53125 
Q 39.546875 41.84375 41.421875 45.53125 
Q 43.3125 49.21875 43.3125 52.78125 
Q 43.3125 58.59375 39.234375 62.25 
Q 35.15625 65.921875 28.609375 65.921875 
Q 23.96875 65.921875 18.8125 64.3125 
Q 13.671875 62.703125 7.8125 59.421875 
L 7.8125 69.390625 
Q 13.765625 71.78125 18.9375 73 
Q 24.125 74.21875 28.421875 74.21875 
Q 39.75 74.21875 46.484375 68.546875 
Q 53.21875 62.890625 53.21875 53.421875 
Q 53.21875 48.921875 51.53125 44.890625 
Q 49.859375 40.875 45.40625 35.40625 
Q 44.1875 33.984375 37.640625 27.21875 
Q 31.109375 20.453125 19.1875 8.296875 
z
" id="DejaVuSans-50"/>
      </defs>
      <g transform="translate(110.526236 322.182437)scale(0.1 -0.1)">
       <use xlink:href="#DejaVuSans-8722"/>
       <use x="83.789062" xlink:href="#DejaVuSans-50"/>
      </g>
     </g>
    </g>
    <g id="xtick_3">
     <g id="line2d_3">
      <g>
       <use style="stroke:#000000;stroke-width:0.8;" x="162.537329" xlink:href="#m7d35f60c9a" y="307.584"/>
      </g>
     </g>
     <g id="text_3">
      <!-- 1 -->
      <defs>
       <path d="M 12.40625 8.296875 
L 28.515625 8.296875 
L 28.515625 63.921875 
L 10.984375 60.40625 
L 10.984375 69.390625 
L 28.421875 72.90625 
L 38.28125 72.90625 
L 38.28125 8.296875 
L 54.390625 8.296875 
L 54.390625 0 
L 12.40625 0 
z
" id="DejaVuSans-49"/>
      </defs>
      <g transform="translate(155.166236 322.182437)scale(0.1 -0.1)">
       <use xlink:href="#DejaVuSans-8722"/>
       <use x="83.789062" xlink:href="#DejaVuSans-49"/>
      </g>
     </g>
    </g>
    <g id="xtick_4">
     <g id="line2d_4">
      <g>
       <use style="stroke:#000000;stroke-width:0.8;" x="207.177329" xlink:href="#m7d35f60c9a" y="307.584"/>
      </g>
     </g>
     <g id="text_4">
      <!-- 0 -->
      <defs>
       <path d="M 31.78125 66.40625 
Q 24.171875 66.40625 20.328125 58.90625 
Q 16.5 51.421875 16.5 36.375 
Q 16.5 21.390625 20.328125 13.890625 
Q 24.171875 6.390625 31.78125 6.390625 
Q 39.453125 6.390625 43.28125 13.890625 
Q 47.125 21.390625 47.125 36.375 
Q 47.125 51.421875 43.28125 58.90625 
Q 39.453125 66.40625 31.78125 66.40625 
z
M 31.78125 74.21875 
Q 44.046875 74.21875 50.515625 64.515625 
Q 56.984375 54.828125 56.984375 36.375 
Q 56.984375 17.96875 50.515625 8.265625 
Q 44.046875 -1.421875 31.78125 -1.421875 
Q 19.53125 -1.421875 13.0625 8.265625 
Q 6.59375 17.96875 6.59375 36.375 
Q 6.59375 54.828125 13.0625 64.515625 
Q 19.53125 74.21875 31.78125 74.21875 
z
" id="DejaVuSans-48"/>
      </defs>
      <g transform="translate(203.996079 322.182437)scale(0.1 -0.1)">
       <use xlink:href="#DejaVuSans-48"/>
      </g>
     </g>
    </g>
    <g id="xtick_5">
     <g id="line2d_5">
      <g>
       <use style="stroke:#000000;stroke-width:0.8;" x="251.817329" xlink:href="#m7d35f60c9a" y="307.584"/>
      </g>
     </g>
     <g id="text_5">
      <!-- 1 -->
      <g transform="translate(248.636079 322.182437)scale(0.1 -0.1)">
       <use xlink:href="#DejaVuSans-49"/>
      </g>
     </g>
    </g>
    <g id="xtick_6">
     <g id="line2d_6">
      <g>
       <use style="stroke:#000000;stroke-width:0.8;" x="296.457329" xlink:href="#m7d35f60c9a" y="307.584"/>
      </g>
     </g>
     <g id="text_6">
      <!-- 2 -->
      <g transform="translate(293.276079 322.182437)scale(0.1 -0.1)">
       <use xlink:href="#DejaVuSans-50"/>
      </g>
     </g>
    </g>
    <g id="xtick_7">
     <g id="line2d_7">
      <g>
       <use style="stroke:#000000;stroke-width:0.8;" x="341.097329" xlink:href="#m7d35f60c9a" y="307.584"/>
      </g>
     </g>
     <g id="text_7">
      <!-- 3 -->
      <g transform="translate(337.916079 322.182437)scale(0.1 -0.1)">
       <use xlink:href="#DejaVuSans-51"/>
      </g>
     </g>
    </g>
    <g id="xtick_8">
     <g id="line2d_8">
      <g>
       <use style="stroke:#000000;stroke-width:0.8;" x="385.737329" xlink:href="#m7d35f60c9a" y="307.584"/>
      </g>
     </g>
     <g id="text_8">
      <!-- 4 -->
      <defs>
       <path d="M 37.796875 64.3125 
L 12.890625 25.390625 
L 37.796875 25.390625 
z
M 35.203125 72.90625 
L 47.609375 72.90625 
L 47.609375 25.390625 
L 58.015625 25.390625 
L 58.015625 17.1875 
L 47.609375 17.1875 
L 47.609375 0 
L 37.796875 0 
L 37.796875 17.1875 
L 4.890625 17.1875 
L 4.890625 26.703125 
z
" id="DejaVuSans-52"/>
      </defs>
      <g transform="translate(382.556079 322.182437)scale(0.1 -0.1)">
       <use xlink:href="#DejaVuSans-52"/>
      </g>
     </g>
    </g>
   </g>
   <g id="matplotlib.axis_2">
    <g id="ytick_1">
     <g id="line2d_9">
      <defs>
       <path d="M 0 0 
L -3.5 0 
" id="m5c62d32865" style="stroke:#000000;stroke-width:0.8;"/>
      </defs>
      <g>
       <use style="stroke:#000000;stroke-width:0.8;" x="57.6" xlink:href="#m5c62d32865" y="276.215398"/>
      </g>
     </g>
     <g id="text_9">
      <!-- 2 -->
      <g transform="translate(35.857813 280.014617)scale(0.1 -0.1)">
       <use xlink:href="#DejaVuSans-8722"/>
       <use x="83.789062" xlink:href="#DejaVuSans-50"/>
      </g>
     </g>
    </g>
    <g id="ytick_2">
     <g id="line2d_10">
      <g>
       <use style="stroke:#000000;stroke-width:0.8;" x="57.6" xlink:href="#m5c62d32865" y="243.762715"/>
      </g>
     </g>
     <g id="text_10">
      <!-- 1 -->
      <g transform="translate(35.857813 247.561934)scale(0.1 -0.1)">
       <use xlink:href="#DejaVuSans-8722"/>
       <use x="83.789062" xlink:href="#DejaVuSans-49"/>
      </g>
     </g>
    </g>
    <g id="ytick_3">
     <g id="line2d_11">
      <g>
       <use style="stroke:#000000;stroke-width:0.8;" x="57.6" xlink:href="#m5c62d32865" y="211.310032"/>
      </g>
     </g>
     <g id="text_11">
      <!-- 0 -->
      <g transform="translate(44.2375 215.109251)scale(0.1 -0.1)">
       <use xlink:href="#DejaVuSans-48"/>
      </g>
     </g>
    </g>
    <g id="ytick_4">
     <g id="line2d_12">
      <g>
       <use style="stroke:#000000;stroke-width:0.8;" x="57.6" xlink:href="#m5c62d32865" y="178.857349"/>
      </g>
     </g>
     <g id="text_12">
      <!-- 1 -->
      <g transform="translate(44.2375 182.656568)scale(0.1 -0.1)">
       <use xlink:href="#DejaVuSans-49"/>
      </g>
     </g>
    </g>
    <g id="ytick_5">
     <g id="line2d_13">
      <g>
       <use style="stroke:#000000;stroke-width:0.8;" x="57.6" xlink:href="#m5c62d32865" y="146.404666"/>
      </g>
     </g>
     <g id="text_13">
      <!-- 2 -->
      <g transform="translate(44.2375 150.203885)scale(0.1 -0.1)">
       <use xlink:href="#DejaVuSans-50"/>
      </g>
     </g>
    </g>
    <g id="ytick_6">
     <g id="line2d_14">
      <g>
       <use style="stroke:#000000;stroke-width:0.8;" x="57.6" xlink:href="#m5c62d32865" y="113.951983"/>
      </g>
     </g>
     <g id="text_14">
      <!-- 3 -->
      <g transform="translate(44.2375 117.751202)scale(0.1 -0.1)">
       <use xlink:href="#DejaVuSans-51"/>
      </g>
     </g>
    </g>
    <g id="ytick_7">
     <g id="line2d_15">
      <g>
       <use style="stroke:#000000;stroke-width:0.8;" x="57.6" xlink:href="#m5c62d32865" y="81.4993"/>
      </g>
     </g>
     <g id="text_15">
      <!-- 4 -->
      <g transform="translate(44.2375 85.298519)scale(0.1 -0.1)">
       <use xlink:href="#DejaVuSans-52"/>
      </g>
     </g>
    </g>
    <g id="ytick_8">
     <g id="line2d_16">
      <g>
       <use style="stroke:#000000;stroke-width:0.8;" x="57.6" xlink:href="#m5c62d32865" y="49.046617"/>
      </g>
     </g>
     <g id="text_16">
      <!-- 5 -->
      <defs>
       <path d="M 10.796875 72.90625 
L 49.515625 72.90625 
L 49.515625 64.59375 
L 19.828125 64.59375 
L 19.828125 46.734375 
Q 21.96875 47.46875 24.109375 47.828125 
Q 26.265625 48.1875 28.421875 48.1875 
Q 40.625 48.1875 47.75 41.5 
Q 54.890625 34.8125 54.890625 23.390625 
Q 54.890625 11.625 47.5625 5.09375 
Q 40.234375 -1.421875 26.90625 -1.421875 
Q 22.3125 -1.421875 17.546875 -0.640625 
Q 12.796875 0.140625 7.71875 1.703125 
L 7.71875 11.625 
Q 12.109375 9.234375 16.796875 8.0625 
Q 21.484375 6.890625 26.703125 6.890625 
Q 35.15625 6.890625 40.078125 11.328125 
Q 45.015625 15.765625 45.015625 23.390625 
Q 45.015625 31 40.078125 35.4375 
Q 35.15625 39.890625 26.703125 39.890625 
Q 22.75 39.890625 18.8125 39.015625 
Q 14.890625 38.140625 10.796875 36.28125 
z
" id="DejaVuSans-53"/>
      </defs>
      <g transform="translate(44.2375 52.845836)scale(0.1 -0.1)">
       <use xlink:href="#DejaVuSans-53"/>
      </g>
     </g>
    </g>
   </g>
   <g id="patch_3">
    <path d="M 57.6 307.584 
L 57.6 41.472 
" style="fill:none;stroke:#000000;stroke-linecap:square;stroke-linejoin:miter;stroke-width:0.8;"/>
   </g>
   <g id="patch_4">
    <path d="M 414.72 307.584 
L 414.72 41.472 
" style="fill:none;stroke:#000000;stroke-linecap:square;stroke-linejoin:miter;stroke-width:0.8;"/>
   </g>
   <g id="patch_5">
    <path d="M 57.6 307.584 
L 414.72 307.584 
" style="fill:none;stroke:#000000;stroke-linecap:square;stroke-linejoin:miter;stroke-width:0.8;"/>
   </g>
   <g id="patch_6">
    <path d="M 57.6 41.472 
L 414.72 41.472 
" style="fill:none;stroke:#000000;stroke-linecap:square;stroke-linejoin:miter;stroke-width:0.8;"/>
   </g>
   <g id="text_17">
    <!-- KNN -->
    <defs>
     <path d="M 9.8125 72.90625 
L 19.671875 72.90625 
L 19.671875 42.09375 
L 52.390625 72.90625 
L 65.09375 72.90625 
L 28.90625 38.921875 
L 67.671875 0 
L 54.6875 0 
L 19.671875 35.109375 
L 19.671875 0 
L 9.8125 0 
z
" id="DejaVuSans-75"/>
     <path d="M 9.8125 72.90625 
L 23.09375 72.90625 
L 55.421875 11.921875 
L 55.421875 72.90625 
L 64.984375 72.90625 
L 64.984375 0 
L 51.703125 0 
L 19.390625 60.984375 
L 19.390625 0 
L 9.8125 0 
z
" id="DejaVuSans-78"/>
    </defs>
    <g transform="translate(223.247813 35.472)scale(0.12 -0.12)">
     <use xlink:href="#DejaVuSans-75"/>
     <use x="65.576172" xlink:href="#DejaVuSans-78"/>
     <use x="140.380859" xlink:href="#DejaVuSans-78"/>
    </g>
   </g>
  </g>
 </g>
 <defs>
  <clipPath id="p98d736b8d8">
   <rect height="266.112" width="357.12" x="57.6" y="41.472"/>
  </clipPath>
 </defs>
</svg>
