<?xml version="1.0" encoding="utf-8" standalone="no"?>
<!DOCTYPE svg PUBLIC "-//W3C//DTD SVG 1.1//EN"
  "http://www.w3.org/Graphics/SVG/1.1/DTD/svg11.dtd">
<!-- Created with matplotlib (https://matplotlib.org/) -->
<svg height="345.6pt" version="1.1" viewBox="0 0 460.8 345.6" width="460.8pt" xmlns="http://www.w3.org/2000/svg" xmlns:xlink="http://www.w3.org/1999/xlink">
 <defs>
  <style type="text/css">
*{stroke-linecap:butt;stroke-linejoin:round;}
  </style>
 </defs>
 <g id="figure_1">
  <g id="patch_1">
   <path d="M 0 345.6 
L 460.8 345.6 
L 460.8 0 
L 0 0 
z
" style="fill:#ffffff;"/>
  </g>
  <g id="axes_1">
   <g id="patch_2">
    <path d="M 57.6 307.584 
L 414.72 307.584 
L 414.72 41.472 
L 57.6 41.472 
z
" style="fill:#ffffff;"/>
   </g>
   <g id="PathCollection_1">
    <defs>
     <path d="M 0 3 
C 0.795609 3 1.55874 2.683901 2.12132 2.12132 
C 2.683901 1.55874 3 0.795609 3 0 
C 3 -0.795609 2.683901 -1.55874 2.12132 -2.12132 
C 1.55874 -2.683901 0.795609 -3 0 -3 
C -0.795609 -3 -1.55874 -2.683901 -2.12132 -2.12132 
C -2.683901 -1.55874 -3 -0.795609 -3 0 
C -3 0.795609 -2.683901 1.55874 -2.12132 2.12132 
C -1.55874 2.683901 -0.795609 3 0 3 
z
" id="mbd49ebd178" style="stroke:#1f77b4;"/>
    </defs>
    <g clip-path="url(#p80e16494e8)">
     <use style="fill:#1f77b4;stroke:#1f77b4;" x="325.26372" xlink:href="#mbd49ebd178" y="63.062459"/>
     <use style="fill:#1f77b4;stroke:#1f77b4;" x="330.866949" xlink:href="#mbd49ebd178" y="99.209222"/>
     <use style="fill:#1f77b4;stroke:#1f77b4;" x="368.405667" xlink:href="#mbd49ebd178" y="105.086169"/>
     <use style="fill:#1f77b4;stroke:#1f77b4;" x="342.890159" xlink:href="#mbd49ebd178" y="100.188763"/>
     <use style="fill:#1f77b4;stroke:#1f77b4;" x="369.199701" xlink:href="#mbd49ebd178" y="53.568"/>
     <use style="fill:#1f77b4;stroke:#1f77b4;" x="360.863943" xlink:href="#mbd49ebd178" y="103.231329"/>
     <use style="fill:#1f77b4;stroke:#1f77b4;" x="368.997064" xlink:href="#mbd49ebd178" y="95.632616"/>
     <use style="fill:#1f77b4;stroke:#1f77b4;" x="359.872151" xlink:href="#mbd49ebd178" y="69.838392"/>
     <use style="fill:#1f77b4;stroke:#1f77b4;" x="347.959169" xlink:href="#mbd49ebd178" y="86.819032"/>
     <use style="fill:#1f77b4;stroke:#1f77b4;" x="345.830139" xlink:href="#mbd49ebd178" y="89.228693"/>
     <use style="fill:#1f77b4;stroke:#1f77b4;" x="364.379133" xlink:href="#mbd49ebd178" y="101.350511"/>
     <use style="fill:#1f77b4;stroke:#1f77b4;" x="354.64604" xlink:href="#mbd49ebd178" y="90.390127"/>
     <use style="fill:#1f77b4;stroke:#1f77b4;" x="349.760909" xlink:href="#mbd49ebd178" y="104.24621"/>
     <use style="fill:#1f77b4;stroke:#1f77b4;" x="336.951736" xlink:href="#mbd49ebd178" y="89.185891"/>
     <use style="fill:#1f77b4;stroke:#1f77b4;" x="355.786513" xlink:href="#mbd49ebd178" y="54.454058"/>
     <use style="fill:#1f77b4;stroke:#1f77b4;" x="320.382865" xlink:href="#mbd49ebd178" y="85.308783"/>
     <use style="fill:#1f77b4;stroke:#1f77b4;" x="366.240674" xlink:href="#mbd49ebd178" y="67.149503"/>
     <use style="fill:#1f77b4;stroke:#1f77b4;" x="368.388924" xlink:href="#mbd49ebd178" y="99.24514"/>
     <use style="fill:#1f77b4;stroke:#1f77b4;" x="360.185044" xlink:href="#mbd49ebd178" y="79.051943"/>
     <use style="fill:#1f77b4;stroke:#1f77b4;" x="355.059853" xlink:href="#mbd49ebd178" y="75.721875"/>
     <use style="fill:#1f77b4;stroke:#1f77b4;" x="329.646536" xlink:href="#mbd49ebd178" y="61.738439"/>
     <use style="fill:#1f77b4;stroke:#1f77b4;" x="384.177543" xlink:href="#mbd49ebd178" y="91.839093"/>
     <use style="fill:#1f77b4;stroke:#1f77b4;" x="370.178691" xlink:href="#mbd49ebd178" y="86.251853"/>
     <use style="fill:#1f77b4;stroke:#1f77b4;" x="346.630712" xlink:href="#mbd49ebd178" y="85.673107"/>
     <use style="fill:#1f77b4;stroke:#1f77b4;" x="376.538224" xlink:href="#mbd49ebd178" y="92.500495"/>
     <use style="fill:#1f77b4;stroke:#1f77b4;" x="354.043681" xlink:href="#mbd49ebd178" y="88.035022"/>
     <use style="fill:#1f77b4;stroke:#1f77b4;" x="367.271404" xlink:href="#mbd49ebd178" y="68.332851"/>
     <use style="fill:#1f77b4;stroke:#1f77b4;" x="349.809554" xlink:href="#mbd49ebd178" y="79.546464"/>
     <use style="fill:#1f77b4;stroke:#1f77b4;" x="363.71781" xlink:href="#mbd49ebd178" y="114.018291"/>
     <use style="fill:#1f77b4;stroke:#1f77b4;" x="353.330167" xlink:href="#mbd49ebd178" y="88.877637"/>
     <use style="fill:#1f77b4;stroke:#1f77b4;" x="359.538015" xlink:href="#mbd49ebd178" y="82.202734"/>
     <use style="fill:#1f77b4;stroke:#1f77b4;" x="326.830991" xlink:href="#mbd49ebd178" y="86.27683"/>
     <use style="fill:#1f77b4;stroke:#1f77b4;" x="349.106678" xlink:href="#mbd49ebd178" y="107.913678"/>
     <use style="fill:#1f77b4;stroke:#1f77b4;" x="368.755746" xlink:href="#mbd49ebd178" y="76.242259"/>
     <use style="fill:#1f77b4;stroke:#1f77b4;" x="349.505967" xlink:href="#mbd49ebd178" y="74.681396"/>
     <use style="fill:#1f77b4;stroke:#1f77b4;" x="353.948097" xlink:href="#mbd49ebd178" y="85.982161"/>
     <use style="fill:#1f77b4;stroke:#1f77b4;" x="342.223404" xlink:href="#mbd49ebd178" y="63.874863"/>
     <use style="fill:#1f77b4;stroke:#1f77b4;" x="316.709909" xlink:href="#mbd49ebd178" y="88.282337"/>
     <use style="fill:#1f77b4;stroke:#1f77b4;" x="371.548254" xlink:href="#mbd49ebd178" y="116.564772"/>
     <use style="fill:#1f77b4;stroke:#1f77b4;" x="357.087562" xlink:href="#mbd49ebd178" y="88.075041"/>
     <use style="fill:#1f77b4;stroke:#1f77b4;" x="373.6666" xlink:href="#mbd49ebd178" y="68.772177"/>
     <use style="fill:#1f77b4;stroke:#1f77b4;" x="353.582312" xlink:href="#mbd49ebd178" y="107.113848"/>
     <use style="fill:#1f77b4;stroke:#1f77b4;" x="382.535572" xlink:href="#mbd49ebd178" y="69.213847"/>
     <use style="fill:#1f77b4;stroke:#1f77b4;" x="352.632317" xlink:href="#mbd49ebd178" y="81.840322"/>
     <use style="fill:#1f77b4;stroke:#1f77b4;" x="366.427388" xlink:href="#mbd49ebd178" y="78.703543"/>
     <use style="fill:#1f77b4;stroke:#1f77b4;" x="363.523145" xlink:href="#mbd49ebd178" y="66.464112"/>
     <use style="fill:#1f77b4;stroke:#1f77b4;" x="331.773836" xlink:href="#mbd49ebd178" y="71.792477"/>
     <use style="fill:#1f77b4;stroke:#1f77b4;" x="366.404596" xlink:href="#mbd49ebd178" y="90.112711"/>
     <use style="fill:#1f77b4;stroke:#1f77b4;" x="379.369025" xlink:href="#mbd49ebd178" y="121.081433"/>
     <use style="fill:#1f77b4;stroke:#1f77b4;" x="379.172693" xlink:href="#mbd49ebd178" y="81.32784"/>
    </g>
   </g>
   <g id="PathCollection_2">
    <defs>
     <path d="M 0 3 
C 0.795609 3 1.55874 2.683901 2.12132 2.12132 
C 2.683901 1.55874 3 0.795609 3 0 
C 3 -0.795609 2.683901 -1.55874 2.12132 -2.12132 
C 1.55874 -2.683901 0.795609 -3 0 -3 
C -0.795609 -3 -1.55874 -2.683901 -2.12132 -2.12132 
C -2.683901 -1.55874 -3 -0.795609 -3 0 
C -3 0.795609 -2.683901 1.55874 -2.12132 2.12132 
C -1.55874 2.683901 -0.795609 3 0 3 
z
" id="md6396f2d46" style="stroke:#ff7f0e;"/>
    </defs>
    <g clip-path="url(#p80e16494e8)">
     <use style="fill:#ff7f0e;stroke:#ff7f0e;" x="104.228631" xlink:href="#md6396f2d46" y="221.136477"/>
     <use style="fill:#ff7f0e;stroke:#ff7f0e;" x="147.230284" xlink:href="#md6396f2d46" y="213.159421"/>
     <use style="fill:#ff7f0e;stroke:#ff7f0e;" x="81.635229" xlink:href="#md6396f2d46" y="191.576096"/>
     <use style="fill:#ff7f0e;stroke:#ff7f0e;" x="98.183008" xlink:href="#md6396f2d46" y="203.776522"/>
     <use style="fill:#ff7f0e;stroke:#ff7f0e;" x="75.096021" xlink:href="#md6396f2d46" y="190.218672"/>
     <use style="fill:#ff7f0e;stroke:#ff7f0e;" x="83.559509" xlink:href="#md6396f2d46" y="213.640428"/>
     <use style="fill:#ff7f0e;stroke:#ff7f0e;" x="94.671079" xlink:href="#md6396f2d46" y="229.887127"/>
     <use style="fill:#ff7f0e;stroke:#ff7f0e;" x="118.060244" xlink:href="#md6396f2d46" y="200.97513"/>
     <use style="fill:#ff7f0e;stroke:#ff7f0e;" x="109.513152" xlink:href="#md6396f2d46" y="221.586037"/>
     <use style="fill:#ff7f0e;stroke:#ff7f0e;" x="110.190178" xlink:href="#md6396f2d46" y="215.499649"/>
     <use style="fill:#ff7f0e;stroke:#ff7f0e;" x="116.990567" xlink:href="#md6396f2d46" y="195.082531"/>
     <use style="fill:#ff7f0e;stroke:#ff7f0e;" x="90.215215" xlink:href="#md6396f2d46" y="199.740045"/>
     <use style="fill:#ff7f0e;stroke:#ff7f0e;" x="97.320605" xlink:href="#md6396f2d46" y="207.282536"/>
     <use style="fill:#ff7f0e;stroke:#ff7f0e;" x="88.977898" xlink:href="#md6396f2d46" y="201.734516"/>
     <use style="fill:#ff7f0e;stroke:#ff7f0e;" x="125.312472" xlink:href="#md6396f2d46" y="218.257479"/>
     <use style="fill:#ff7f0e;stroke:#ff7f0e;" x="103.446146" xlink:href="#md6396f2d46" y="206.903575"/>
     <use style="fill:#ff7f0e;stroke:#ff7f0e;" x="130.975394" xlink:href="#md6396f2d46" y="219.74368"/>
     <use style="fill:#ff7f0e;stroke:#ff7f0e;" x="112.156462" xlink:href="#md6396f2d46" y="225.374586"/>
     <use style="fill:#ff7f0e;stroke:#ff7f0e;" x="97.505929" xlink:href="#md6396f2d46" y="194.741367"/>
     <use style="fill:#ff7f0e;stroke:#ff7f0e;" x="92.901656" xlink:href="#md6396f2d46" y="223.479486"/>
     <use style="fill:#ff7f0e;stroke:#ff7f0e;" x="105.215195" xlink:href="#md6396f2d46" y="246.162631"/>
     <use style="fill:#ff7f0e;stroke:#ff7f0e;" x="88.993403" xlink:href="#md6396f2d46" y="202.975452"/>
     <use style="fill:#ff7f0e;stroke:#ff7f0e;" x="95.639779" xlink:href="#md6396f2d46" y="221.401724"/>
     <use style="fill:#ff7f0e;stroke:#ff7f0e;" x="114.450516" xlink:href="#md6396f2d46" y="192.896791"/>
     <use style="fill:#ff7f0e;stroke:#ff7f0e;" x="98.878997" xlink:href="#md6396f2d46" y="181.083243"/>
     <use style="fill:#ff7f0e;stroke:#ff7f0e;" x="96.773305" xlink:href="#md6396f2d46" y="198.971402"/>
     <use style="fill:#ff7f0e;stroke:#ff7f0e;" x="125.845005" xlink:href="#md6396f2d46" y="205.268282"/>
     <use style="fill:#ff7f0e;stroke:#ff7f0e;" x="94.417204" xlink:href="#md6396f2d46" y="187.768521"/>
     <use style="fill:#ff7f0e;stroke:#ff7f0e;" x="95.599326" xlink:href="#md6396f2d46" y="186.489698"/>
     <use style="fill:#ff7f0e;stroke:#ff7f0e;" x="103.430608" xlink:href="#md6396f2d46" y="213.969882"/>
     <use style="fill:#ff7f0e;stroke:#ff7f0e;" x="84.061124" xlink:href="#md6396f2d46" y="212.859663"/>
     <use style="fill:#ff7f0e;stroke:#ff7f0e;" x="109.904675" xlink:href="#md6396f2d46" y="206.092278"/>
     <use style="fill:#ff7f0e;stroke:#ff7f0e;" x="111.848695" xlink:href="#md6396f2d46" y="201.471766"/>
     <use style="fill:#ff7f0e;stroke:#ff7f0e;" x="98.814198" xlink:href="#md6396f2d46" y="175.749525"/>
     <use style="fill:#ff7f0e;stroke:#ff7f0e;" x="73.832727" xlink:href="#md6396f2d46" y="202.979953"/>
     <use style="fill:#ff7f0e;stroke:#ff7f0e;" x="115.366541" xlink:href="#md6396f2d46" y="200.94828"/>
     <use style="fill:#ff7f0e;stroke:#ff7f0e;" x="113.416197" xlink:href="#md6396f2d46" y="196.6235"/>
     <use style="fill:#ff7f0e;stroke:#ff7f0e;" x="94.373358" xlink:href="#md6396f2d46" y="200.209163"/>
     <use style="fill:#ff7f0e;stroke:#ff7f0e;" x="79.934068" xlink:href="#md6396f2d46" y="212.220117"/>
     <use style="fill:#ff7f0e;stroke:#ff7f0e;" x="103.734713" xlink:href="#md6396f2d46" y="197.739714"/>
     <use style="fill:#ff7f0e;stroke:#ff7f0e;" x="112.917066" xlink:href="#md6396f2d46" y="231.260776"/>
     <use style="fill:#ff7f0e;stroke:#ff7f0e;" x="106.305589" xlink:href="#md6396f2d46" y="197.193093"/>
     <use style="fill:#ff7f0e;stroke:#ff7f0e;" x="109.50451" xlink:href="#md6396f2d46" y="215.817092"/>
     <use style="fill:#ff7f0e;stroke:#ff7f0e;" x="96.082801" xlink:href="#md6396f2d46" y="217.173988"/>
     <use style="fill:#ff7f0e;stroke:#ff7f0e;" x="104.956854" xlink:href="#md6396f2d46" y="207.593314"/>
     <use style="fill:#ff7f0e;stroke:#ff7f0e;" x="114.57519" xlink:href="#md6396f2d46" y="188.804823"/>
     <use style="fill:#ff7f0e;stroke:#ff7f0e;" x="86.962888" xlink:href="#md6396f2d46" y="186.889915"/>
     <use style="fill:#ff7f0e;stroke:#ff7f0e;" x="108.510087" xlink:href="#md6396f2d46" y="222.370327"/>
     <use style="fill:#ff7f0e;stroke:#ff7f0e;" x="109.572283" xlink:href="#md6396f2d46" y="205.367295"/>
     <use style="fill:#ff7f0e;stroke:#ff7f0e;" x="78.184011" xlink:href="#md6396f2d46" y="180.519209"/>
    </g>
   </g>
   <g id="PathCollection_3">
    <defs>
     <path d="M 0 3 
C 0.795609 3 1.55874 2.683901 2.12132 2.12132 
C 2.683901 1.55874 3 0.795609 3 0 
C 3 -0.795609 2.683901 -1.55874 2.12132 -2.12132 
C 1.55874 -2.683901 0.795609 -3 0 -3 
C -0.795609 -3 -1.55874 -2.683901 -2.12132 -2.12132 
C -2.683901 -1.55874 -3 -0.795609 -3 0 
C -3 0.795609 -2.683901 1.55874 -2.12132 2.12132 
C -1.55874 2.683901 -0.795609 3 0 3 
z
" id="m0c03c3cff7" style="stroke:#2ca02c;"/>
    </defs>
    <g clip-path="url(#p80e16494e8)">
     <use style="fill:#2ca02c;stroke:#2ca02c;" x="237.39318" xlink:href="#m0c03c3cff7" y="262.851312"/>
     <use style="fill:#2ca02c;stroke:#2ca02c;" x="238.797219" xlink:href="#m0c03c3cff7" y="272.546051"/>
     <use style="fill:#2ca02c;stroke:#2ca02c;" x="249.705146" xlink:href="#m0c03c3cff7" y="280.902402"/>
     <use style="fill:#2ca02c;stroke:#2ca02c;" x="209.318757" xlink:href="#m0c03c3cff7" y="252.591907"/>
     <use style="fill:#2ca02c;stroke:#2ca02c;" x="224.555795" xlink:href="#m0c03c3cff7" y="238.164709"/>
     <use style="fill:#2ca02c;stroke:#2ca02c;" x="220.438984" xlink:href="#m0c03c3cff7" y="272.288531"/>
     <use style="fill:#2ca02c;stroke:#2ca02c;" x="217.583365" xlink:href="#m0c03c3cff7" y="239.914802"/>
     <use style="fill:#2ca02c;stroke:#2ca02c;" x="253.16499" xlink:href="#m0c03c3cff7" y="271.940989"/>
     <use style="fill:#2ca02c;stroke:#2ca02c;" x="223.632048" xlink:href="#m0c03c3cff7" y="281.676301"/>
     <use style="fill:#2ca02c;stroke:#2ca02c;" x="241.500814" xlink:href="#m0c03c3cff7" y="255.034595"/>
     <use style="fill:#2ca02c;stroke:#2ca02c;" x="208.408205" xlink:href="#m0c03c3cff7" y="282.138568"/>
     <use style="fill:#2ca02c;stroke:#2ca02c;" x="213.357449" xlink:href="#m0c03c3cff7" y="286.658907"/>
     <use style="fill:#2ca02c;stroke:#2ca02c;" x="246.186785" xlink:href="#m0c03c3cff7" y="260.989843"/>
     <use style="fill:#2ca02c;stroke:#2ca02c;" x="237.742526" xlink:href="#m0c03c3cff7" y="272.675187"/>
     <use style="fill:#2ca02c;stroke:#2ca02c;" x="238.511115" xlink:href="#m0c03c3cff7" y="268.543081"/>
     <use style="fill:#2ca02c;stroke:#2ca02c;" x="225.088724" xlink:href="#m0c03c3cff7" y="273.129198"/>
     <use style="fill:#2ca02c;stroke:#2ca02c;" x="216.191061" xlink:href="#m0c03c3cff7" y="225.918426"/>
     <use style="fill:#2ca02c;stroke:#2ca02c;" x="234.033435" xlink:href="#m0c03c3cff7" y="262.886908"/>
     <use style="fill:#2ca02c;stroke:#2ca02c;" x="190.352738" xlink:href="#m0c03c3cff7" y="250.120752"/>
     <use style="fill:#2ca02c;stroke:#2ca02c;" x="227.839034" xlink:href="#m0c03c3cff7" y="270.896391"/>
     <use style="fill:#2ca02c;stroke:#2ca02c;" x="213.517127" xlink:href="#m0c03c3cff7" y="273.124934"/>
     <use style="fill:#2ca02c;stroke:#2ca02c;" x="215.357704" xlink:href="#m0c03c3cff7" y="252.105652"/>
     <use style="fill:#2ca02c;stroke:#2ca02c;" x="239.646452" xlink:href="#m0c03c3cff7" y="276.056659"/>
     <use style="fill:#2ca02c;stroke:#2ca02c;" x="219.507043" xlink:href="#m0c03c3cff7" y="267.898083"/>
     <use style="fill:#2ca02c;stroke:#2ca02c;" x="240.30899" xlink:href="#m0c03c3cff7" y="277.181747"/>
     <use style="fill:#2ca02c;stroke:#2ca02c;" x="271.330796" xlink:href="#m0c03c3cff7" y="274.809879"/>
     <use style="fill:#2ca02c;stroke:#2ca02c;" x="212.409222" xlink:href="#m0c03c3cff7" y="265.166305"/>
     <use style="fill:#2ca02c;stroke:#2ca02c;" x="214.985845" xlink:href="#m0c03c3cff7" y="267.830063"/>
     <use style="fill:#2ca02c;stroke:#2ca02c;" x="224.479534" xlink:href="#m0c03c3cff7" y="244.721037"/>
     <use style="fill:#2ca02c;stroke:#2ca02c;" x="233.789957" xlink:href="#m0c03c3cff7" y="264.304475"/>
     <use style="fill:#2ca02c;stroke:#2ca02c;" x="223.896361" xlink:href="#m0c03c3cff7" y="289.904969"/>
     <use style="fill:#2ca02c;stroke:#2ca02c;" x="240.998075" xlink:href="#m0c03c3cff7" y="275.893501"/>
     <use style="fill:#2ca02c;stroke:#2ca02c;" x="215.20253" xlink:href="#m0c03c3cff7" y="263.305841"/>
     <use style="fill:#2ca02c;stroke:#2ca02c;" x="195.864429" xlink:href="#m0c03c3cff7" y="259.552622"/>
     <use style="fill:#2ca02c;stroke:#2ca02c;" x="235.918555" xlink:href="#m0c03c3cff7" y="253.080342"/>
     <use style="fill:#2ca02c;stroke:#2ca02c;" x="251.093218" xlink:href="#m0c03c3cff7" y="272.16779"/>
     <use style="fill:#2ca02c;stroke:#2ca02c;" x="188.867913" xlink:href="#m0c03c3cff7" y="259.417663"/>
     <use style="fill:#2ca02c;stroke:#2ca02c;" x="241.7157" xlink:href="#m0c03c3cff7" y="270.419235"/>
     <use style="fill:#2ca02c;stroke:#2ca02c;" x="240.794033" xlink:href="#m0c03c3cff7" y="252.454559"/>
     <use style="fill:#2ca02c;stroke:#2ca02c;" x="235.623267" xlink:href="#m0c03c3cff7" y="278.928295"/>
     <use style="fill:#2ca02c;stroke:#2ca02c;" x="239.226605" xlink:href="#m0c03c3cff7" y="265.062188"/>
     <use style="fill:#2ca02c;stroke:#2ca02c;" x="249.945319" xlink:href="#m0c03c3cff7" y="281.07359"/>
     <use style="fill:#2ca02c;stroke:#2ca02c;" x="231.833724" xlink:href="#m0c03c3cff7" y="263.335867"/>
     <use style="fill:#2ca02c;stroke:#2ca02c;" x="236.642253" xlink:href="#m0c03c3cff7" y="255.531985"/>
     <use style="fill:#2ca02c;stroke:#2ca02c;" x="248.912701" xlink:href="#m0c03c3cff7" y="252.05921"/>
     <use style="fill:#2ca02c;stroke:#2ca02c;" x="241.018647" xlink:href="#m0c03c3cff7" y="255.26794"/>
     <use style="fill:#2ca02c;stroke:#2ca02c;" x="229.314486" xlink:href="#m0c03c3cff7" y="255.333394"/>
     <use style="fill:#2ca02c;stroke:#2ca02c;" x="247.540304" xlink:href="#m0c03c3cff7" y="281.064473"/>
     <use style="fill:#2ca02c;stroke:#2ca02c;" x="231.868534" xlink:href="#m0c03c3cff7" y="268.062095"/>
     <use style="fill:#2ca02c;stroke:#2ca02c;" x="241.900819" xlink:href="#m0c03c3cff7" y="228.737524"/>
    </g>
   </g>
   <g id="PathCollection_4">
    <defs>
     <path d="M 0 3 
C 0.795609 3 1.55874 2.683901 2.12132 2.12132 
C 2.683901 1.55874 3 0.795609 3 0 
C 3 -0.795609 2.683901 -1.55874 2.12132 -2.12132 
C 1.55874 -2.683901 0.795609 -3 0 -3 
C -0.795609 -3 -1.55874 -2.683901 -2.12132 -2.12132 
C -2.683901 -1.55874 -3 -0.795609 -3 0 
C -3 0.795609 -2.683901 1.55874 -2.12132 2.12132 
C -1.55874 2.683901 -0.795609 3 0 3 
z
" id="m397438800b" style="stroke:#d62728;"/>
    </defs>
    <g clip-path="url(#p80e16494e8)">
     <use style="fill:#d62728;stroke:#d62728;" x="374.362927" xlink:href="#m397438800b" y="282.316684"/>
     <use style="fill:#d62728;stroke:#d62728;" x="393.370863" xlink:href="#m397438800b" y="265.236825"/>
     <use style="fill:#d62728;stroke:#d62728;" x="339.934344" xlink:href="#m397438800b" y="262.735621"/>
     <use style="fill:#d62728;stroke:#d62728;" x="354.922431" xlink:href="#m397438800b" y="264.857739"/>
     <use style="fill:#d62728;stroke:#d62728;" x="376.088504" xlink:href="#m397438800b" y="246.926377"/>
     <use style="fill:#d62728;stroke:#d62728;" x="371.765284" xlink:href="#m397438800b" y="280.371159"/>
     <use style="fill:#d62728;stroke:#d62728;" x="350.881784" xlink:href="#m397438800b" y="270.108264"/>
     <use style="fill:#d62728;stroke:#d62728;" x="362.90545" xlink:href="#m397438800b" y="249.360111"/>
     <use style="fill:#d62728;stroke:#d62728;" x="382.180711" xlink:href="#m397438800b" y="268.914388"/>
     <use style="fill:#d62728;stroke:#d62728;" x="359.836554" xlink:href="#m397438800b" y="274.014629"/>
     <use style="fill:#d62728;stroke:#d62728;" x="355.173176" xlink:href="#m397438800b" y="236.51285"/>
     <use style="fill:#d62728;stroke:#d62728;" x="353.834809" xlink:href="#m397438800b" y="253.997375"/>
     <use style="fill:#d62728;stroke:#d62728;" x="365.478544" xlink:href="#m397438800b" y="288.924791"/>
     <use style="fill:#d62728;stroke:#d62728;" x="369.83489" xlink:href="#m397438800b" y="244.102247"/>
     <use style="fill:#d62728;stroke:#d62728;" x="370.212484" xlink:href="#m397438800b" y="254.553995"/>
     <use style="fill:#d62728;stroke:#d62728;" x="346.557126" xlink:href="#m397438800b" y="256.19569"/>
     <use style="fill:#d62728;stroke:#d62728;" x="351.700212" xlink:href="#m397438800b" y="280.499308"/>
     <use style="fill:#d62728;stroke:#d62728;" x="398.487273" xlink:href="#m397438800b" y="264.813482"/>
     <use style="fill:#d62728;stroke:#d62728;" x="355.066361" xlink:href="#m397438800b" y="286.728354"/>
     <use style="fill:#d62728;stroke:#d62728;" x="386.711117" xlink:href="#m397438800b" y="256.507817"/>
     <use style="fill:#d62728;stroke:#d62728;" x="359.114969" xlink:href="#m397438800b" y="260.398762"/>
     <use style="fill:#d62728;stroke:#d62728;" x="353.47487" xlink:href="#m397438800b" y="272.906145"/>
     <use style="fill:#d62728;stroke:#d62728;" x="361.159808" xlink:href="#m397438800b" y="261.738779"/>
     <use style="fill:#d62728;stroke:#d62728;" x="365.505925" xlink:href="#m397438800b" y="235.167405"/>
     <use style="fill:#d62728;stroke:#d62728;" x="349.36693" xlink:href="#m397438800b" y="284.138344"/>
     <use style="fill:#d62728;stroke:#d62728;" x="363.097073" xlink:href="#m397438800b" y="270.772302"/>
     <use style="fill:#d62728;stroke:#d62728;" x="358.345351" xlink:href="#m397438800b" y="265.465932"/>
     <use style="fill:#d62728;stroke:#d62728;" x="345.680142" xlink:href="#m397438800b" y="280.112044"/>
     <use style="fill:#d62728;stroke:#d62728;" x="382.951584" xlink:href="#m397438800b" y="244.673677"/>
     <use style="fill:#d62728;stroke:#d62728;" x="351.948935" xlink:href="#m397438800b" y="245.621632"/>
     <use style="fill:#d62728;stroke:#d62728;" x="365.62475" xlink:href="#m397438800b" y="260.570602"/>
     <use style="fill:#d62728;stroke:#d62728;" x="351.979302" xlink:href="#m397438800b" y="268.148326"/>
     <use style="fill:#d62728;stroke:#d62728;" x="365.288592" xlink:href="#m397438800b" y="247.425701"/>
     <use style="fill:#d62728;stroke:#d62728;" x="367.241272" xlink:href="#m397438800b" y="295.488"/>
     <use style="fill:#d62728;stroke:#d62728;" x="354.038739" xlink:href="#m397438800b" y="279.275586"/>
     <use style="fill:#d62728;stroke:#d62728;" x="341.86598" xlink:href="#m397438800b" y="269.432155"/>
     <use style="fill:#d62728;stroke:#d62728;" x="350.478456" xlink:href="#m397438800b" y="251.302673"/>
     <use style="fill:#d62728;stroke:#d62728;" x="348.430913" xlink:href="#m397438800b" y="261.121015"/>
     <use style="fill:#d62728;stroke:#d62728;" x="352.852844" xlink:href="#m397438800b" y="255.967194"/>
     <use style="fill:#d62728;stroke:#d62728;" x="360.90609" xlink:href="#m397438800b" y="251.412545"/>
     <use style="fill:#d62728;stroke:#d62728;" x="387.306015" xlink:href="#m397438800b" y="245.788838"/>
     <use style="fill:#d62728;stroke:#d62728;" x="391.135185" xlink:href="#m397438800b" y="267.853721"/>
     <use style="fill:#d62728;stroke:#d62728;" x="380.320683" xlink:href="#m397438800b" y="266.372828"/>
     <use style="fill:#d62728;stroke:#d62728;" x="358.016105" xlink:href="#m397438800b" y="255.442607"/>
     <use style="fill:#d62728;stroke:#d62728;" x="361.878531" xlink:href="#m397438800b" y="266.49652"/>
     <use style="fill:#d62728;stroke:#d62728;" x="347.036777" xlink:href="#m397438800b" y="265.387698"/>
     <use style="fill:#d62728;stroke:#d62728;" x="342.270577" xlink:href="#m397438800b" y="276.449759"/>
     <use style="fill:#d62728;stroke:#d62728;" x="350.34499" xlink:href="#m397438800b" y="251.187449"/>
     <use style="fill:#d62728;stroke:#d62728;" x="357.889193" xlink:href="#m397438800b" y="269.282212"/>
     <use style="fill:#d62728;stroke:#d62728;" x="377.112451" xlink:href="#m397438800b" y="276.109369"/>
    </g>
   </g>
   <g id="matplotlib.axis_1">
    <g id="xtick_1">
     <g id="line2d_1">
      <defs>
       <path d="M 0 0 
L 0 3.5 
" id="m0c4772ed3c" style="stroke:#000000;stroke-width:0.8;"/>
      </defs>
      <g>
       <use style="stroke:#000000;stroke-width:0.8;" x="98.627141" xlink:href="#m0c4772ed3c" y="307.584"/>
      </g>
     </g>
     <g id="text_1">
      <!-- 0 -->
      <defs>
       <path d="M 31.78125 66.40625 
Q 24.171875 66.40625 20.328125 58.90625 
Q 16.5 51.421875 16.5 36.375 
Q 16.5 21.390625 20.328125 13.890625 
Q 24.171875 6.390625 31.78125 6.390625 
Q 39.453125 6.390625 43.28125 13.890625 
Q 47.125 21.390625 47.125 36.375 
Q 47.125 51.421875 43.28125 58.90625 
Q 39.453125 66.40625 31.78125 66.40625 
z
M 31.78125 74.21875 
Q 44.046875 74.21875 50.515625 64.515625 
Q 56.984375 54.828125 56.984375 36.375 
Q 56.984375 17.96875 50.515625 8.265625 
Q 44.046875 -1.421875 31.78125 -1.421875 
Q 19.53125 -1.421875 13.0625 8.265625 
Q 6.59375 17.96875 6.59375 36.375 
Q 6.59375 54.828125 13.0625 64.515625 
Q 19.53125 74.21875 31.78125 74.21875 
z
" id="DejaVuSans-48"/>
      </defs>
      <g transform="translate(95.445891 322.182437)scale(0.1 -0.1)">
       <use xlink:href="#DejaVuSans-48"/>
      </g>
     </g>
    </g>
    <g id="xtick_2">
     <g id="line2d_2">
      <g>
       <use style="stroke:#000000;stroke-width:0.8;" x="164.016577" xlink:href="#m0c4772ed3c" y="307.584"/>
      </g>
     </g>
     <g id="text_2">
      <!-- 2 -->
      <defs>
       <path d="M 19.1875 8.296875 
L 53.609375 8.296875 
L 53.609375 0 
L 7.328125 0 
L 7.328125 8.296875 
Q 12.9375 14.109375 22.625 23.890625 
Q 32.328125 33.6875 34.8125 36.53125 
Q 39.546875 41.84375 41.421875 45.53125 
Q 43.3125 49.21875 43.3125 52.78125 
Q 43.3125 58.59375 39.234375 62.25 
Q 35.15625 65.921875 28.609375 65.921875 
Q 23.96875 65.921875 18.8125 64.3125 
Q 13.671875 62.703125 7.8125 59.421875 
L 7.8125 69.390625 
Q 13.765625 71.78125 18.9375 73 
Q 24.125 74.21875 28.421875 74.21875 
Q 39.75 74.21875 46.484375 68.546875 
Q 53.21875 62.890625 53.21875 53.421875 
Q 53.21875 48.921875 51.53125 44.890625 
Q 49.859375 40.875 45.40625 35.40625 
Q 44.1875 33.984375 37.640625 27.21875 
Q 31.109375 20.453125 19.1875 8.296875 
z
" id="DejaVuSans-50"/>
      </defs>
      <g transform="translate(160.835327 322.182437)scale(0.1 -0.1)">
       <use xlink:href="#DejaVuSans-50"/>
      </g>
     </g>
    </g>
    <g id="xtick_3">
     <g id="line2d_3">
      <g>
       <use style="stroke:#000000;stroke-width:0.8;" x="229.406013" xlink:href="#m0c4772ed3c" y="307.584"/>
      </g>
     </g>
     <g id="text_3">
      <!-- 4 -->
      <defs>
       <path d="M 37.796875 64.3125 
L 12.890625 25.390625 
L 37.796875 25.390625 
z
M 35.203125 72.90625 
L 47.609375 72.90625 
L 47.609375 25.390625 
L 58.015625 25.390625 
L 58.015625 17.1875 
L 47.609375 17.1875 
L 47.609375 0 
L 37.796875 0 
L 37.796875 17.1875 
L 4.890625 17.1875 
L 4.890625 26.703125 
z
" id="DejaVuSans-52"/>
      </defs>
      <g transform="translate(226.224763 322.182437)scale(0.1 -0.1)">
       <use xlink:href="#DejaVuSans-52"/>
      </g>
     </g>
    </g>
    <g id="xtick_4">
     <g id="line2d_4">
      <g>
       <use style="stroke:#000000;stroke-width:0.8;" x="294.795448" xlink:href="#m0c4772ed3c" y="307.584"/>
      </g>
     </g>
     <g id="text_4">
      <!-- 6 -->
      <defs>
       <path d="M 33.015625 40.375 
Q 26.375 40.375 22.484375 35.828125 
Q 18.609375 31.296875 18.609375 23.390625 
Q 18.609375 15.53125 22.484375 10.953125 
Q 26.375 6.390625 33.015625 6.390625 
Q 39.65625 6.390625 43.53125 10.953125 
Q 47.40625 15.53125 47.40625 23.390625 
Q 47.40625 31.296875 43.53125 35.828125 
Q 39.65625 40.375 33.015625 40.375 
z
M 52.59375 71.296875 
L 52.59375 62.3125 
Q 48.875 64.0625 45.09375 64.984375 
Q 41.3125 65.921875 37.59375 65.921875 
Q 27.828125 65.921875 22.671875 59.328125 
Q 17.53125 52.734375 16.796875 39.40625 
Q 19.671875 43.65625 24.015625 45.921875 
Q 28.375 48.1875 33.59375 48.1875 
Q 44.578125 48.1875 50.953125 41.515625 
Q 57.328125 34.859375 57.328125 23.390625 
Q 57.328125 12.15625 50.6875 5.359375 
Q 44.046875 -1.421875 33.015625 -1.421875 
Q 20.359375 -1.421875 13.671875 8.265625 
Q 6.984375 17.96875 6.984375 36.375 
Q 6.984375 53.65625 15.1875 63.9375 
Q 23.390625 74.21875 37.203125 74.21875 
Q 40.921875 74.21875 44.703125 73.484375 
Q 48.484375 72.75 52.59375 71.296875 
z
" id="DejaVuSans-54"/>
      </defs>
      <g transform="translate(291.614198 322.182437)scale(0.1 -0.1)">
       <use xlink:href="#DejaVuSans-54"/>
      </g>
     </g>
    </g>
    <g id="xtick_5">
     <g id="line2d_5">
      <g>
       <use style="stroke:#000000;stroke-width:0.8;" x="360.184884" xlink:href="#m0c4772ed3c" y="307.584"/>
      </g>
     </g>
     <g id="text_5">
      <!-- 8 -->
      <defs>
       <path d="M 31.78125 34.625 
Q 24.75 34.625 20.71875 30.859375 
Q 16.703125 27.09375 16.703125 20.515625 
Q 16.703125 13.921875 20.71875 10.15625 
Q 24.75 6.390625 31.78125 6.390625 
Q 38.8125 6.390625 42.859375 10.171875 
Q 46.921875 13.96875 46.921875 20.515625 
Q 46.921875 27.09375 42.890625 30.859375 
Q 38.875 34.625 31.78125 34.625 
z
M 21.921875 38.8125 
Q 15.578125 40.375 12.03125 44.71875 
Q 8.5 49.078125 8.5 55.328125 
Q 8.5 64.0625 14.71875 69.140625 
Q 20.953125 74.21875 31.78125 74.21875 
Q 42.671875 74.21875 48.875 69.140625 
Q 55.078125 64.0625 55.078125 55.328125 
Q 55.078125 49.078125 51.53125 44.71875 
Q 48 40.375 41.703125 38.8125 
Q 48.828125 37.15625 52.796875 32.3125 
Q 56.78125 27.484375 56.78125 20.515625 
Q 56.78125 9.90625 50.3125 4.234375 
Q 43.84375 -1.421875 31.78125 -1.421875 
Q 19.734375 -1.421875 13.25 4.234375 
Q 6.78125 9.90625 6.78125 20.515625 
Q 6.78125 27.484375 10.78125 32.3125 
Q 14.796875 37.15625 21.921875 38.8125 
z
M 18.3125 54.390625 
Q 18.3125 48.734375 21.84375 45.5625 
Q 25.390625 42.390625 31.78125 42.390625 
Q 38.140625 42.390625 41.71875 45.5625 
Q 45.3125 48.734375 45.3125 54.390625 
Q 45.3125 60.0625 41.71875 63.234375 
Q 38.140625 66.40625 31.78125 66.40625 
Q 25.390625 66.40625 21.84375 63.234375 
Q 18.3125 60.0625 18.3125 54.390625 
z
" id="DejaVuSans-56"/>
      </defs>
      <g transform="translate(357.003634 322.182437)scale(0.1 -0.1)">
       <use xlink:href="#DejaVuSans-56"/>
      </g>
     </g>
    </g>
    <g id="text_6">
     <!-- X1 -->
     <defs>
      <path d="M 6.296875 72.90625 
L 16.890625 72.90625 
L 35.015625 45.796875 
L 53.21875 72.90625 
L 63.8125 72.90625 
L 40.375 37.890625 
L 65.375 0 
L 54.78125 0 
L 34.28125 31 
L 13.625 0 
L 2.984375 0 
L 29 38.921875 
z
" id="DejaVuSans-88"/>
      <path d="M 12.40625 8.296875 
L 28.515625 8.296875 
L 28.515625 63.921875 
L 10.984375 60.40625 
L 10.984375 69.390625 
L 28.421875 72.90625 
L 38.28125 72.90625 
L 38.28125 8.296875 
L 54.390625 8.296875 
L 54.390625 0 
L 12.40625 0 
z
" id="DejaVuSans-49"/>
     </defs>
     <g transform="translate(229.55375 335.860562)scale(0.1 -0.1)">
      <use xlink:href="#DejaVuSans-88"/>
      <use x="68.505859" xlink:href="#DejaVuSans-49"/>
     </g>
    </g>
   </g>
   <g id="matplotlib.axis_2">
    <g id="ytick_1">
     <g id="line2d_6">
      <defs>
       <path d="M 0 0 
L -3.5 0 
" id="m77915d662b" style="stroke:#000000;stroke-width:0.8;"/>
      </defs>
      <g>
       <use style="stroke:#000000;stroke-width:0.8;" x="57.6" xlink:href="#m77915d662b" y="261.711944"/>
      </g>
     </g>
     <g id="text_7">
      <!-- 2 -->
      <g transform="translate(44.2375 265.511163)scale(0.1 -0.1)">
       <use xlink:href="#DejaVuSans-50"/>
      </g>
     </g>
    </g>
    <g id="ytick_2">
     <g id="line2d_7">
      <g>
       <use style="stroke:#000000;stroke-width:0.8;" x="57.6" xlink:href="#m77915d662b" y="203.45812"/>
      </g>
     </g>
     <g id="text_8">
      <!-- 4 -->
      <g transform="translate(44.2375 207.257338)scale(0.1 -0.1)">
       <use xlink:href="#DejaVuSans-52"/>
      </g>
     </g>
    </g>
    <g id="ytick_3">
     <g id="line2d_8">
      <g>
       <use style="stroke:#000000;stroke-width:0.8;" x="57.6" xlink:href="#m77915d662b" y="145.204295"/>
      </g>
     </g>
     <g id="text_9">
      <!-- 6 -->
      <g transform="translate(44.2375 149.003514)scale(0.1 -0.1)">
       <use xlink:href="#DejaVuSans-54"/>
      </g>
     </g>
    </g>
    <g id="ytick_4">
     <g id="line2d_9">
      <g>
       <use style="stroke:#000000;stroke-width:0.8;" x="57.6" xlink:href="#m77915d662b" y="86.950471"/>
      </g>
     </g>
     <g id="text_10">
      <!-- 8 -->
      <g transform="translate(44.2375 90.74969)scale(0.1 -0.1)">
       <use xlink:href="#DejaVuSans-56"/>
      </g>
     </g>
    </g>
    <g id="text_11">
     <!-- X2 -->
     <g transform="translate(38.157812 181.13425)rotate(-90)scale(0.1 -0.1)">
      <use xlink:href="#DejaVuSans-88"/>
      <use x="68.505859" xlink:href="#DejaVuSans-50"/>
     </g>
    </g>
   </g>
   <g id="patch_3">
    <path d="M 57.6 307.584 
L 57.6 41.472 
" style="fill:none;stroke:#000000;stroke-linecap:square;stroke-linejoin:miter;stroke-width:0.8;"/>
   </g>
   <g id="patch_4">
    <path d="M 414.72 307.584 
L 414.72 41.472 
" style="fill:none;stroke:#000000;stroke-linecap:square;stroke-linejoin:miter;stroke-width:0.8;"/>
   </g>
   <g id="patch_5">
    <path d="M 57.6 307.584 
L 414.72 307.584 
" style="fill:none;stroke:#000000;stroke-linecap:square;stroke-linejoin:miter;stroke-width:0.8;"/>
   </g>
   <g id="patch_6">
    <path d="M 57.6 41.472 
L 414.72 41.472 
" style="fill:none;stroke:#000000;stroke-linecap:square;stroke-linejoin:miter;stroke-width:0.8;"/>
   </g>
  </g>
 </g>
 <defs>
  <clipPath id="p80e16494e8">
   <rect height="266.112" width="357.12" x="57.6" y="41.472"/>
  </clipPath>
 </defs>
</svg>
