<?xml version="1.0" encoding="utf-8" standalone="no"?>
<!DOCTYPE svg PUBLIC "-//W3C//DTD SVG 1.1//EN"
  "http://www.w3.org/Graphics/SVG/1.1/DTD/svg11.dtd">
<!-- Created with matplotlib (https://matplotlib.org/) -->
<svg height="345.6pt" version="1.1" viewBox="0 0 460.8 345.6" width="460.8pt" xmlns="http://www.w3.org/2000/svg" xmlns:xlink="http://www.w3.org/1999/xlink">
 <defs>
  <style type="text/css">
*{stroke-linecap:butt;stroke-linejoin:round;}
  </style>
 </defs>
 <g id="figure_1">
  <g id="patch_1">
   <path d="M 0 345.6 
L 460.8 345.6 
L 460.8 0 
L 0 0 
z
" style="fill:#ffffff;"/>
  </g>
  <g id="axes_1">
   <g id="patch_2">
    <path d="M 57.6 307.584 
L 414.72 307.584 
L 414.72 41.472 
L 57.6 41.472 
z
" style="fill:#ffffff;"/>
   </g>
   <g id="PathCollection_1">
    <defs>
     <path d="M 0 3 
C 0.795609 3 1.55874 2.683901 2.12132 2.12132 
C 2.683901 1.55874 3 0.795609 3 0 
C 3 -0.795609 2.683901 -1.55874 2.12132 -2.12132 
C 1.55874 -2.683901 0.795609 -3 0 -3 
C -0.795609 -3 -1.55874 -2.683901 -2.12132 -2.12132 
C -2.683901 -1.55874 -3 -0.795609 -3 0 
C -3 0.795609 -2.683901 1.55874 -2.12132 2.12132 
C -1.55874 2.683901 -0.795609 3 0 3 
z
" id="m0bc61936e6" style="stroke:#1f77b4;"/>
    </defs>
    <g clip-path="url(#p1036cbb20e)">
     <use style="fill:#1f77b4;stroke:#1f77b4;" x="161.863833" xlink:href="#m0bc61936e6" y="171.621798"/>
     <use style="fill:#1f77b4;stroke:#1f77b4;" x="156.858465" xlink:href="#m0bc61936e6" y="136.432357"/>
     <use style="fill:#1f77b4;stroke:#1f77b4;" x="172.059328" xlink:href="#m0bc61936e6" y="155.49228"/>
     <use style="fill:#1f77b4;stroke:#1f77b4;" x="172.740103" xlink:href="#m0bc61936e6" y="158.92639"/>
     <use style="fill:#1f77b4;stroke:#1f77b4;" x="175.355941" xlink:href="#m0bc61936e6" y="161.456815"/>
     <use style="fill:#1f77b4;stroke:#1f77b4;" x="158.62864" xlink:href="#m0bc61936e6" y="203.252008"/>
     <use style="fill:#1f77b4;stroke:#1f77b4;" x="203.105346" xlink:href="#m0bc61936e6" y="191.255996"/>
     <use style="fill:#1f77b4;stroke:#1f77b4;" x="130.724985" xlink:href="#m0bc61936e6" y="151.509599"/>
     <use style="fill:#1f77b4;stroke:#1f77b4;" x="199.180773" xlink:href="#m0bc61936e6" y="180.180791"/>
     <use style="fill:#1f77b4;stroke:#1f77b4;" x="162.564825" xlink:href="#m0bc61936e6" y="173.31061"/>
     <use style="fill:#1f77b4;stroke:#1f77b4;" x="150.910076" xlink:href="#m0bc61936e6" y="151.80944"/>
     <use style="fill:#1f77b4;stroke:#1f77b4;" x="157.291761" xlink:href="#m0bc61936e6" y="190.325199"/>
     <use style="fill:#1f77b4;stroke:#1f77b4;" x="91.869091" xlink:href="#m0bc61936e6" y="154.35791"/>
     <use style="fill:#1f77b4;stroke:#1f77b4;" x="141.421779" xlink:href="#m0bc61936e6" y="149.049906"/>
     <use style="fill:#1f77b4;stroke:#1f77b4;" x="173.392559" xlink:href="#m0bc61936e6" y="164.368151"/>
     <use style="fill:#1f77b4;stroke:#1f77b4;" x="175.203458" xlink:href="#m0bc61936e6" y="168.915866"/>
     <use style="fill:#1f77b4;stroke:#1f77b4;" x="127.909239" xlink:href="#m0bc61936e6" y="189.207899"/>
     <use style="fill:#1f77b4;stroke:#1f77b4;" x="236.937488" xlink:href="#m0bc61936e6" y="169.214383"/>
     <use style="fill:#1f77b4;stroke:#1f77b4;" x="189.290641" xlink:href="#m0bc61936e6" y="138.881335"/>
     <use style="fill:#1f77b4;stroke:#1f77b4;" x="138.048648" xlink:href="#m0bc61936e6" y="179.920934"/>
     <use style="fill:#1f77b4;stroke:#1f77b4;" x="193.908247" xlink:href="#m0bc61936e6" y="170.727045"/>
     <use style="fill:#1f77b4;stroke:#1f77b4;" x="127.991664" xlink:href="#m0bc61936e6" y="158.003806"/>
     <use style="fill:#1f77b4;stroke:#1f77b4;" x="242.076614" xlink:href="#m0bc61936e6" y="151.767175"/>
     <use style="fill:#1f77b4;stroke:#1f77b4;" x="203.354772" xlink:href="#m0bc61936e6" y="169.763501"/>
     <use style="fill:#1f77b4;stroke:#1f77b4;" x="102.342103" xlink:href="#m0bc61936e6" y="190.001713"/>
     <use style="fill:#1f77b4;stroke:#1f77b4;" x="173.453621" xlink:href="#m0bc61936e6" y="154.705186"/>
     <use style="fill:#1f77b4;stroke:#1f77b4;" x="153.196397" xlink:href="#m0bc61936e6" y="164.769156"/>
     <use style="fill:#1f77b4;stroke:#1f77b4;" x="160.674418" xlink:href="#m0bc61936e6" y="165.972301"/>
     <use style="fill:#1f77b4;stroke:#1f77b4;" x="199.187361" xlink:href="#m0bc61936e6" y="183.861318"/>
     <use style="fill:#1f77b4;stroke:#1f77b4;" x="125.32012" xlink:href="#m0bc61936e6" y="173.885091"/>
     <use style="fill:#1f77b4;stroke:#1f77b4;" x="195.508186" xlink:href="#m0bc61936e6" y="162.398841"/>
     <use style="fill:#1f77b4;stroke:#1f77b4;" x="127.885367" xlink:href="#m0bc61936e6" y="162.33743"/>
     <use style="fill:#1f77b4;stroke:#1f77b4;" x="112.479337" xlink:href="#m0bc61936e6" y="170.6604"/>
     <use style="fill:#1f77b4;stroke:#1f77b4;" x="157.743665" xlink:href="#m0bc61936e6" y="157.64825"/>
     <use style="fill:#1f77b4;stroke:#1f77b4;" x="181.912052" xlink:href="#m0bc61936e6" y="213.3979"/>
     <use style="fill:#1f77b4;stroke:#1f77b4;" x="135.171901" xlink:href="#m0bc61936e6" y="152.630334"/>
     <use style="fill:#1f77b4;stroke:#1f77b4;" x="201.490297" xlink:href="#m0bc61936e6" y="159.63247"/>
     <use style="fill:#1f77b4;stroke:#1f77b4;" x="207.370662" xlink:href="#m0bc61936e6" y="157.449194"/>
     <use style="fill:#1f77b4;stroke:#1f77b4;" x="185.597087" xlink:href="#m0bc61936e6" y="179.502348"/>
     <use style="fill:#1f77b4;stroke:#1f77b4;" x="143.164447" xlink:href="#m0bc61936e6" y="179.521717"/>
     <use style="fill:#1f77b4;stroke:#1f77b4;" x="111.17165" xlink:href="#m0bc61936e6" y="177.487828"/>
     <use style="fill:#1f77b4;stroke:#1f77b4;" x="184.483055" xlink:href="#m0bc61936e6" y="174.734168"/>
     <use style="fill:#1f77b4;stroke:#1f77b4;" x="102.691181" xlink:href="#m0bc61936e6" y="174.315097"/>
     <use style="fill:#1f77b4;stroke:#1f77b4;" x="166.586419" xlink:href="#m0bc61936e6" y="153.583379"/>
     <use style="fill:#1f77b4;stroke:#1f77b4;" x="173.716819" xlink:href="#m0bc61936e6" y="177.252888"/>
     <use style="fill:#1f77b4;stroke:#1f77b4;" x="181.992899" xlink:href="#m0bc61936e6" y="155.59354"/>
     <use style="fill:#1f77b4;stroke:#1f77b4;" x="121.530847" xlink:href="#m0bc61936e6" y="162.236606"/>
     <use style="fill:#1f77b4;stroke:#1f77b4;" x="196.144641" xlink:href="#m0bc61936e6" y="176.769739"/>
     <use style="fill:#1f77b4;stroke:#1f77b4;" x="195.186854" xlink:href="#m0bc61936e6" y="172.601846"/>
     <use style="fill:#1f77b4;stroke:#1f77b4;" x="160.193021" xlink:href="#m0bc61936e6" y="182.235949"/>
    </g>
   </g>
   <g id="PathCollection_2">
    <defs>
     <path d="M 0 3 
C 0.795609 3 1.55874 2.683901 2.12132 2.12132 
C 2.683901 1.55874 3 0.795609 3 0 
C 3 -0.795609 2.683901 -1.55874 2.12132 -2.12132 
C 1.55874 -2.683901 0.795609 -3 0 -3 
C -0.795609 -3 -1.55874 -2.683901 -2.12132 -2.12132 
C -2.683901 -1.55874 -3 -0.795609 -3 0 
C -3 0.795609 -2.683901 1.55874 -2.12132 2.12132 
C -1.55874 2.683901 -0.795609 3 0 3 
z
" id="m137f6f5b2d" style="stroke:#ff7f0e;"/>
    </defs>
    <g clip-path="url(#p1036cbb20e)">
     <use style="fill:#ff7f0e;stroke:#ff7f0e;" x="313.861009" xlink:href="#m137f6f5b2d" y="216.259388"/>
     <use style="fill:#ff7f0e;stroke:#ff7f0e;" x="251.541937" xlink:href="#m137f6f5b2d" y="196.629194"/>
     <use style="fill:#ff7f0e;stroke:#ff7f0e;" x="354.536503" xlink:href="#m137f6f5b2d" y="207.301803"/>
     <use style="fill:#ff7f0e;stroke:#ff7f0e;" x="338.370017" xlink:href="#m137f6f5b2d" y="190.966779"/>
     <use style="fill:#ff7f0e;stroke:#ff7f0e;" x="345.131195" xlink:href="#m137f6f5b2d" y="188.04064"/>
     <use style="fill:#ff7f0e;stroke:#ff7f0e;" x="333.49762" xlink:href="#m137f6f5b2d" y="193.422259"/>
     <use style="fill:#ff7f0e;stroke:#ff7f0e;" x="314.751604" xlink:href="#m137f6f5b2d" y="213.941283"/>
     <use style="fill:#ff7f0e;stroke:#ff7f0e;" x="305.680497" xlink:href="#m137f6f5b2d" y="185.992539"/>
     <use style="fill:#ff7f0e;stroke:#ff7f0e;" x="263.426319" xlink:href="#m137f6f5b2d" y="162.509574"/>
     <use style="fill:#ff7f0e;stroke:#ff7f0e;" x="315.861447" xlink:href="#m137f6f5b2d" y="198.232491"/>
     <use style="fill:#ff7f0e;stroke:#ff7f0e;" x="280.537659" xlink:href="#m137f6f5b2d" y="217.726076"/>
     <use style="fill:#ff7f0e;stroke:#ff7f0e;" x="290.869211" xlink:href="#m137f6f5b2d" y="175.841175"/>
     <use style="fill:#ff7f0e;stroke:#ff7f0e;" x="364.96686" xlink:href="#m137f6f5b2d" y="199.999806"/>
     <use style="fill:#ff7f0e;stroke:#ff7f0e;" x="299.854097" xlink:href="#m137f6f5b2d" y="154.544166"/>
     <use style="fill:#ff7f0e;stroke:#ff7f0e;" x="381.311588" xlink:href="#m137f6f5b2d" y="214.692001"/>
     <use style="fill:#ff7f0e;stroke:#ff7f0e;" x="376.37736" xlink:href="#m137f6f5b2d" y="187.830963"/>
     <use style="fill:#ff7f0e;stroke:#ff7f0e;" x="331.934503" xlink:href="#m137f6f5b2d" y="204.272541"/>
     <use style="fill:#ff7f0e;stroke:#ff7f0e;" x="278.975584" xlink:href="#m137f6f5b2d" y="172.936186"/>
     <use style="fill:#ff7f0e;stroke:#ff7f0e;" x="331.485374" xlink:href="#m137f6f5b2d" y="159.899048"/>
     <use style="fill:#ff7f0e;stroke:#ff7f0e;" x="324.430225" xlink:href="#m137f6f5b2d" y="180.824438"/>
     <use style="fill:#ff7f0e;stroke:#ff7f0e;" x="349.818195" xlink:href="#m137f6f5b2d" y="207.532116"/>
     <use style="fill:#ff7f0e;stroke:#ff7f0e;" x="336.053793" xlink:href="#m137f6f5b2d" y="212.728479"/>
     <use style="fill:#ff7f0e;stroke:#ff7f0e;" x="343.162904" xlink:href="#m137f6f5b2d" y="173.163768"/>
     <use style="fill:#ff7f0e;stroke:#ff7f0e;" x="344.522375" xlink:href="#m137f6f5b2d" y="164.729274"/>
     <use style="fill:#ff7f0e;stroke:#ff7f0e;" x="342.56288" xlink:href="#m137f6f5b2d" y="221.679638"/>
     <use style="fill:#ff7f0e;stroke:#ff7f0e;" x="345.158056" xlink:href="#m137f6f5b2d" y="185.962989"/>
     <use style="fill:#ff7f0e;stroke:#ff7f0e;" x="346.596774" xlink:href="#m137f6f5b2d" y="222.782842"/>
     <use style="fill:#ff7f0e;stroke:#ff7f0e;" x="333.567241" xlink:href="#m137f6f5b2d" y="161.407765"/>
     <use style="fill:#ff7f0e;stroke:#ff7f0e;" x="313.958824" xlink:href="#m137f6f5b2d" y="197.496196"/>
     <use style="fill:#ff7f0e;stroke:#ff7f0e;" x="330.870365" xlink:href="#m137f6f5b2d" y="171.141975"/>
     <use style="fill:#ff7f0e;stroke:#ff7f0e;" x="320.565112" xlink:href="#m137f6f5b2d" y="200.904263"/>
     <use style="fill:#ff7f0e;stroke:#ff7f0e;" x="350.872539" xlink:href="#m137f6f5b2d" y="199.268508"/>
     <use style="fill:#ff7f0e;stroke:#ff7f0e;" x="371.945493" xlink:href="#m137f6f5b2d" y="196.140096"/>
     <use style="fill:#ff7f0e;stroke:#ff7f0e;" x="326.301708" xlink:href="#m137f6f5b2d" y="189.272965"/>
     <use style="fill:#ff7f0e;stroke:#ff7f0e;" x="359.451309" xlink:href="#m137f6f5b2d" y="190.528544"/>
     <use style="fill:#ff7f0e;stroke:#ff7f0e;" x="304.908078" xlink:href="#m137f6f5b2d" y="182.635894"/>
     <use style="fill:#ff7f0e;stroke:#ff7f0e;" x="307.04947" xlink:href="#m137f6f5b2d" y="207.993889"/>
     <use style="fill:#ff7f0e;stroke:#ff7f0e;" x="369.267591" xlink:href="#m137f6f5b2d" y="167.736844"/>
     <use style="fill:#ff7f0e;stroke:#ff7f0e;" x="349.431373" xlink:href="#m137f6f5b2d" y="178.74646"/>
     <use style="fill:#ff7f0e;stroke:#ff7f0e;" x="277.625566" xlink:href="#m137f6f5b2d" y="199.373152"/>
     <use style="fill:#ff7f0e;stroke:#ff7f0e;" x="318.526146" xlink:href="#m137f6f5b2d" y="181.281207"/>
     <use style="fill:#ff7f0e;stroke:#ff7f0e;" x="254.203532" xlink:href="#m137f6f5b2d" y="203.316113"/>
     <use style="fill:#ff7f0e;stroke:#ff7f0e;" x="336.883612" xlink:href="#m137f6f5b2d" y="180.67941"/>
     <use style="fill:#ff7f0e;stroke:#ff7f0e;" x="290.613592" xlink:href="#m137f6f5b2d" y="165.007042"/>
     <use style="fill:#ff7f0e;stroke:#ff7f0e;" x="340.386807" xlink:href="#m137f6f5b2d" y="186.883785"/>
     <use style="fill:#ff7f0e;stroke:#ff7f0e;" x="309.129143" xlink:href="#m137f6f5b2d" y="178.564233"/>
     <use style="fill:#ff7f0e;stroke:#ff7f0e;" x="277.602118" xlink:href="#m137f6f5b2d" y="190.677787"/>
     <use style="fill:#ff7f0e;stroke:#ff7f0e;" x="354.438224" xlink:href="#m137f6f5b2d" y="212.847765"/>
     <use style="fill:#ff7f0e;stroke:#ff7f0e;" x="300.028828" xlink:href="#m137f6f5b2d" y="195.228595"/>
     <use style="fill:#ff7f0e;stroke:#ff7f0e;" x="342.194455" xlink:href="#m137f6f5b2d" y="187.633877"/>
    </g>
   </g>
   <g id="matplotlib.axis_1">
    <g id="xtick_1">
     <g id="line2d_1">
      <defs>
       <path d="M 0 0 
L 0 3.5 
" id="m797745368b" style="stroke:#000000;stroke-width:0.8;"/>
      </defs>
      <g>
       <use style="stroke:#000000;stroke-width:0.8;" x="98.755603" xlink:href="#m797745368b" y="307.584"/>
      </g>
     </g>
     <g id="text_1">
      <!-- −2.5 -->
      <defs>
       <path d="M 10.59375 35.5 
L 73.1875 35.5 
L 73.1875 27.203125 
L 10.59375 27.203125 
z
" id="DejaVuSans-8722"/>
       <path d="M 19.1875 8.296875 
L 53.609375 8.296875 
L 53.609375 0 
L 7.328125 0 
L 7.328125 8.296875 
Q 12.9375 14.109375 22.625 23.890625 
Q 32.328125 33.6875 34.8125 36.53125 
Q 39.546875 41.84375 41.421875 45.53125 
Q 43.3125 49.21875 43.3125 52.78125 
Q 43.3125 58.59375 39.234375 62.25 
Q 35.15625 65.921875 28.609375 65.921875 
Q 23.96875 65.921875 18.8125 64.3125 
Q 13.671875 62.703125 7.8125 59.421875 
L 7.8125 69.390625 
Q 13.765625 71.78125 18.9375 73 
Q 24.125 74.21875 28.421875 74.21875 
Q 39.75 74.21875 46.484375 68.546875 
Q 53.21875 62.890625 53.21875 53.421875 
Q 53.21875 48.921875 51.53125 44.890625 
Q 49.859375 40.875 45.40625 35.40625 
Q 44.1875 33.984375 37.640625 27.21875 
Q 31.109375 20.453125 19.1875 8.296875 
z
" id="DejaVuSans-50"/>
       <path d="M 10.6875 12.40625 
L 21 12.40625 
L 21 0 
L 10.6875 0 
z
" id="DejaVuSans-46"/>
       <path d="M 10.796875 72.90625 
L 49.515625 72.90625 
L 49.515625 64.59375 
L 19.828125 64.59375 
L 19.828125 46.734375 
Q 21.96875 47.46875 24.109375 47.828125 
Q 26.265625 48.1875 28.421875 48.1875 
Q 40.625 48.1875 47.75 41.5 
Q 54.890625 34.8125 54.890625 23.390625 
Q 54.890625 11.625 47.5625 5.09375 
Q 40.234375 -1.421875 26.90625 -1.421875 
Q 22.3125 -1.421875 17.546875 -0.640625 
Q 12.796875 0.140625 7.71875 1.703125 
L 7.71875 11.625 
Q 12.109375 9.234375 16.796875 8.0625 
Q 21.484375 6.890625 26.703125 6.890625 
Q 35.15625 6.890625 40.078125 11.328125 
Q 45.015625 15.765625 45.015625 23.390625 
Q 45.015625 31 40.078125 35.4375 
Q 35.15625 39.890625 26.703125 39.890625 
Q 22.75 39.890625 18.8125 39.015625 
Q 14.890625 38.140625 10.796875 36.28125 
z
" id="DejaVuSans-53"/>
      </defs>
      <g transform="translate(86.614197 322.182437)scale(0.1 -0.1)">
       <use xlink:href="#DejaVuSans-8722"/>
       <use x="83.789062" xlink:href="#DejaVuSans-50"/>
       <use x="147.412109" xlink:href="#DejaVuSans-46"/>
       <use x="179.199219" xlink:href="#DejaVuSans-53"/>
      </g>
     </g>
    </g>
    <g id="xtick_2">
     <g id="line2d_2">
      <g>
       <use style="stroke:#000000;stroke-width:0.8;" x="143.846512" xlink:href="#m797745368b" y="307.584"/>
      </g>
     </g>
     <g id="text_2">
      <!-- 0.0 -->
      <defs>
       <path d="M 31.78125 66.40625 
Q 24.171875 66.40625 20.328125 58.90625 
Q 16.5 51.421875 16.5 36.375 
Q 16.5 21.390625 20.328125 13.890625 
Q 24.171875 6.390625 31.78125 6.390625 
Q 39.453125 6.390625 43.28125 13.890625 
Q 47.125 21.390625 47.125 36.375 
Q 47.125 51.421875 43.28125 58.90625 
Q 39.453125 66.40625 31.78125 66.40625 
z
M 31.78125 74.21875 
Q 44.046875 74.21875 50.515625 64.515625 
Q 56.984375 54.828125 56.984375 36.375 
Q 56.984375 17.96875 50.515625 8.265625 
Q 44.046875 -1.421875 31.78125 -1.421875 
Q 19.53125 -1.421875 13.0625 8.265625 
Q 6.59375 17.96875 6.59375 36.375 
Q 6.59375 54.828125 13.0625 64.515625 
Q 19.53125 74.21875 31.78125 74.21875 
z
" id="DejaVuSans-48"/>
      </defs>
      <g transform="translate(135.894949 322.182437)scale(0.1 -0.1)">
       <use xlink:href="#DejaVuSans-48"/>
       <use x="63.623047" xlink:href="#DejaVuSans-46"/>
       <use x="95.410156" xlink:href="#DejaVuSans-48"/>
      </g>
     </g>
    </g>
    <g id="xtick_3">
     <g id="line2d_3">
      <g>
       <use style="stroke:#000000;stroke-width:0.8;" x="188.937421" xlink:href="#m797745368b" y="307.584"/>
      </g>
     </g>
     <g id="text_3">
      <!-- 2.5 -->
      <g transform="translate(180.985859 322.182437)scale(0.1 -0.1)">
       <use xlink:href="#DejaVuSans-50"/>
       <use x="63.623047" xlink:href="#DejaVuSans-46"/>
       <use x="95.410156" xlink:href="#DejaVuSans-53"/>
      </g>
     </g>
    </g>
    <g id="xtick_4">
     <g id="line2d_4">
      <g>
       <use style="stroke:#000000;stroke-width:0.8;" x="234.02833" xlink:href="#m797745368b" y="307.584"/>
      </g>
     </g>
     <g id="text_4">
      <!-- 5.0 -->
      <g transform="translate(226.076768 322.182437)scale(0.1 -0.1)">
       <use xlink:href="#DejaVuSans-53"/>
       <use x="63.623047" xlink:href="#DejaVuSans-46"/>
       <use x="95.410156" xlink:href="#DejaVuSans-48"/>
      </g>
     </g>
    </g>
    <g id="xtick_5">
     <g id="line2d_5">
      <g>
       <use style="stroke:#000000;stroke-width:0.8;" x="279.119239" xlink:href="#m797745368b" y="307.584"/>
      </g>
     </g>
     <g id="text_5">
      <!-- 7.5 -->
      <defs>
       <path d="M 8.203125 72.90625 
L 55.078125 72.90625 
L 55.078125 68.703125 
L 28.609375 0 
L 18.3125 0 
L 43.21875 64.59375 
L 8.203125 64.59375 
z
" id="DejaVuSans-55"/>
      </defs>
      <g transform="translate(271.167677 322.182437)scale(0.1 -0.1)">
       <use xlink:href="#DejaVuSans-55"/>
       <use x="63.623047" xlink:href="#DejaVuSans-46"/>
       <use x="95.410156" xlink:href="#DejaVuSans-53"/>
      </g>
     </g>
    </g>
    <g id="xtick_6">
     <g id="line2d_6">
      <g>
       <use style="stroke:#000000;stroke-width:0.8;" x="324.210148" xlink:href="#m797745368b" y="307.584"/>
      </g>
     </g>
     <g id="text_6">
      <!-- 10.0 -->
      <defs>
       <path d="M 12.40625 8.296875 
L 28.515625 8.296875 
L 28.515625 63.921875 
L 10.984375 60.40625 
L 10.984375 69.390625 
L 28.421875 72.90625 
L 38.28125 72.90625 
L 38.28125 8.296875 
L 54.390625 8.296875 
L 54.390625 0 
L 12.40625 0 
z
" id="DejaVuSans-49"/>
      </defs>
      <g transform="translate(313.077336 322.182437)scale(0.1 -0.1)">
       <use xlink:href="#DejaVuSans-49"/>
       <use x="63.623047" xlink:href="#DejaVuSans-48"/>
       <use x="127.246094" xlink:href="#DejaVuSans-46"/>
       <use x="159.033203" xlink:href="#DejaVuSans-48"/>
      </g>
     </g>
    </g>
    <g id="xtick_7">
     <g id="line2d_7">
      <g>
       <use style="stroke:#000000;stroke-width:0.8;" x="369.301057" xlink:href="#m797745368b" y="307.584"/>
      </g>
     </g>
     <g id="text_7">
      <!-- 12.5 -->
      <g transform="translate(358.168245 322.182437)scale(0.1 -0.1)">
       <use xlink:href="#DejaVuSans-49"/>
       <use x="63.623047" xlink:href="#DejaVuSans-50"/>
       <use x="127.246094" xlink:href="#DejaVuSans-46"/>
       <use x="159.033203" xlink:href="#DejaVuSans-53"/>
      </g>
     </g>
    </g>
    <g id="xtick_8">
     <g id="line2d_8">
      <g>
       <use style="stroke:#000000;stroke-width:0.8;" x="414.391966" xlink:href="#m797745368b" y="307.584"/>
      </g>
     </g>
     <g id="text_8">
      <!-- 15.0 -->
      <g transform="translate(403.259154 322.182437)scale(0.1 -0.1)">
       <use xlink:href="#DejaVuSans-49"/>
       <use x="63.623047" xlink:href="#DejaVuSans-53"/>
       <use x="127.246094" xlink:href="#DejaVuSans-46"/>
       <use x="159.033203" xlink:href="#DejaVuSans-48"/>
      </g>
     </g>
    </g>
    <g id="text_9">
     <!-- X1 -->
     <defs>
      <path d="M 6.296875 72.90625 
L 16.890625 72.90625 
L 35.015625 45.796875 
L 53.21875 72.90625 
L 63.8125 72.90625 
L 40.375 37.890625 
L 65.375 0 
L 54.78125 0 
L 34.28125 31 
L 13.625 0 
L 2.984375 0 
L 29 38.921875 
z
" id="DejaVuSans-88"/>
     </defs>
     <g transform="translate(229.55375 335.860562)scale(0.1 -0.1)">
      <use xlink:href="#DejaVuSans-88"/>
      <use x="68.505859" xlink:href="#DejaVuSans-49"/>
     </g>
    </g>
   </g>
   <g id="matplotlib.axis_2">
    <g id="ytick_1">
     <g id="line2d_9">
      <defs>
       <path d="M 0 0 
L -3.5 0 
" id="m5713acf906" style="stroke:#000000;stroke-width:0.8;"/>
      </defs>
      <g>
       <use style="stroke:#000000;stroke-width:0.8;" x="57.6" xlink:href="#m5713acf906" y="291.927781"/>
      </g>
     </g>
     <g id="text_10">
      <!-- −10 -->
      <g transform="translate(29.495313 295.727)scale(0.1 -0.1)">
       <use xlink:href="#DejaVuSans-8722"/>
       <use x="83.789062" xlink:href="#DejaVuSans-49"/>
       <use x="147.412109" xlink:href="#DejaVuSans-48"/>
      </g>
     </g>
    </g>
    <g id="ytick_2">
     <g id="line2d_10">
      <g>
       <use style="stroke:#000000;stroke-width:0.8;" x="57.6" xlink:href="#m5713acf906" y="252.994303"/>
      </g>
     </g>
     <g id="text_11">
      <!-- −5 -->
      <g transform="translate(35.857813 256.793521)scale(0.1 -0.1)">
       <use xlink:href="#DejaVuSans-8722"/>
       <use x="83.789062" xlink:href="#DejaVuSans-53"/>
      </g>
     </g>
    </g>
    <g id="ytick_3">
     <g id="line2d_11">
      <g>
       <use style="stroke:#000000;stroke-width:0.8;" x="57.6" xlink:href="#m5713acf906" y="214.060825"/>
      </g>
     </g>
     <g id="text_12">
      <!-- 0 -->
      <g transform="translate(44.2375 217.860043)scale(0.1 -0.1)">
       <use xlink:href="#DejaVuSans-48"/>
      </g>
     </g>
    </g>
    <g id="ytick_4">
     <g id="line2d_12">
      <g>
       <use style="stroke:#000000;stroke-width:0.8;" x="57.6" xlink:href="#m5713acf906" y="175.127347"/>
      </g>
     </g>
     <g id="text_13">
      <!-- 5 -->
      <g transform="translate(44.2375 178.926565)scale(0.1 -0.1)">
       <use xlink:href="#DejaVuSans-53"/>
      </g>
     </g>
    </g>
    <g id="ytick_5">
     <g id="line2d_13">
      <g>
       <use style="stroke:#000000;stroke-width:0.8;" x="57.6" xlink:href="#m5713acf906" y="136.193868"/>
      </g>
     </g>
     <g id="text_14">
      <!-- 10 -->
      <g transform="translate(37.875 139.993087)scale(0.1 -0.1)">
       <use xlink:href="#DejaVuSans-49"/>
       <use x="63.623047" xlink:href="#DejaVuSans-48"/>
      </g>
     </g>
    </g>
    <g id="ytick_6">
     <g id="line2d_14">
      <g>
       <use style="stroke:#000000;stroke-width:0.8;" x="57.6" xlink:href="#m5713acf906" y="97.26039"/>
      </g>
     </g>
     <g id="text_15">
      <!-- 15 -->
      <g transform="translate(37.875 101.059609)scale(0.1 -0.1)">
       <use xlink:href="#DejaVuSans-49"/>
       <use x="63.623047" xlink:href="#DejaVuSans-53"/>
      </g>
     </g>
    </g>
    <g id="ytick_7">
     <g id="line2d_15">
      <g>
       <use style="stroke:#000000;stroke-width:0.8;" x="57.6" xlink:href="#m5713acf906" y="58.326912"/>
      </g>
     </g>
     <g id="text_16">
      <!-- 20 -->
      <g transform="translate(37.875 62.126131)scale(0.1 -0.1)">
       <use xlink:href="#DejaVuSans-50"/>
       <use x="63.623047" xlink:href="#DejaVuSans-48"/>
      </g>
     </g>
    </g>
    <g id="text_17">
     <!-- X2 -->
     <g transform="translate(23.415625 181.13425)rotate(-90)scale(0.1 -0.1)">
      <use xlink:href="#DejaVuSans-88"/>
      <use x="68.505859" xlink:href="#DejaVuSans-50"/>
     </g>
    </g>
   </g>
   <g id="line2d_16">
    <path clip-path="url(#p1036cbb20e)" d="M 73.832727 295.488 
L 398.487273 53.568 
L 398.487273 53.568 
" style="fill:none;stroke:#1f77b4;stroke-linecap:square;stroke-width:1.5;"/>
   </g>
   <g id="patch_3">
    <path d="M 57.6 307.584 
L 57.6 41.472 
" style="fill:none;stroke:#000000;stroke-linecap:square;stroke-linejoin:miter;stroke-width:0.8;"/>
   </g>
   <g id="patch_4">
    <path d="M 414.72 307.584 
L 414.72 41.472 
" style="fill:none;stroke:#000000;stroke-linecap:square;stroke-linejoin:miter;stroke-width:0.8;"/>
   </g>
   <g id="patch_5">
    <path d="M 57.6 307.584 
L 414.72 307.584 
" style="fill:none;stroke:#000000;stroke-linecap:square;stroke-linejoin:miter;stroke-width:0.8;"/>
   </g>
   <g id="patch_6">
    <path d="M 57.6 41.472 
L 414.72 41.472 
" style="fill:none;stroke:#000000;stroke-linecap:square;stroke-linejoin:miter;stroke-width:0.8;"/>
   </g>
  </g>
 </g>
 <defs>
  <clipPath id="p1036cbb20e">
   <rect height="266.112" width="357.12" x="57.6" y="41.472"/>
  </clipPath>
 </defs>
</svg>
