<?xml version="1.0" encoding="utf-8" standalone="no"?>
<!DOCTYPE svg PUBLIC "-//W3C//DTD SVG 1.1//EN"
  "http://www.w3.org/Graphics/SVG/1.1/DTD/svg11.dtd">
<!-- Created with matplotlib (https://matplotlib.org/) -->
<svg height="345.6pt" version="1.1" viewBox="0 0 460.8 345.6" width="460.8pt" xmlns="http://www.w3.org/2000/svg" xmlns:xlink="http://www.w3.org/1999/xlink">
 <defs>
  <style type="text/css">
*{stroke-linecap:butt;stroke-linejoin:round;}
  </style>
 </defs>
 <g id="figure_1">
  <g id="patch_1">
   <path d="M 0 345.6 
L 460.8 345.6 
L 460.8 0 
L 0 0 
z
" style="fill:#ffffff;"/>
  </g>
  <g id="axes_1">
   <g id="patch_2">
    <path d="M 57.6 307.584 
L 414.72 307.584 
L 414.72 41.472 
L 57.6 41.472 
z
" style="fill:#ffffff;"/>
   </g>
   <g id="PathCollection_1">
    <defs>
     <path d="M 0 3 
C 0.795609 3 1.55874 2.683901 2.12132 2.12132 
C 2.683901 1.55874 3 0.795609 3 0 
C 3 -0.795609 2.683901 -1.55874 2.12132 -2.12132 
C 1.55874 -2.683901 0.795609 -3 0 -3 
C -0.795609 -3 -1.55874 -2.683901 -2.12132 -2.12132 
C -2.683901 -1.55874 -3 -0.795609 -3 0 
C -3 0.795609 -2.683901 1.55874 -2.12132 2.12132 
C -1.55874 2.683901 -0.795609 3 0 3 
z
" id="m8a2d00a65d" style="stroke:#1f77b4;"/>
    </defs>
    <g clip-path="url(#p1839afee1e)">
     <use style="fill:#1f77b4;stroke:#1f77b4;" x="161.863833" xlink:href="#m8a2d00a65d" y="139.886782"/>
     <use style="fill:#1f77b4;stroke:#1f77b4;" x="156.858465" xlink:href="#m8a2d00a65d" y="53.568"/>
     <use style="fill:#1f77b4;stroke:#1f77b4;" x="172.059328" xlink:href="#m8a2d00a65d" y="100.321494"/>
     <use style="fill:#1f77b4;stroke:#1f77b4;" x="172.740103" xlink:href="#m8a2d00a65d" y="108.745277"/>
     <use style="fill:#1f77b4;stroke:#1f77b4;" x="175.355941" xlink:href="#m8a2d00a65d" y="114.952343"/>
     <use style="fill:#1f77b4;stroke:#1f77b4;" x="158.62864" xlink:href="#m8a2d00a65d" y="217.474861"/>
     <use style="fill:#1f77b4;stroke:#1f77b4;" x="203.105346" xlink:href="#m8a2d00a65d" y="188.048957"/>
     <use style="fill:#1f77b4;stroke:#1f77b4;" x="130.724985" xlink:href="#m8a2d00a65d" y="90.552082"/>
     <use style="fill:#1f77b4;stroke:#1f77b4;" x="199.180773" xlink:href="#m8a2d00a65d" y="160.881768"/>
     <use style="fill:#1f77b4;stroke:#1f77b4;" x="162.564825" xlink:href="#m8a2d00a65d" y="144.029393"/>
     <use style="fill:#1f77b4;stroke:#1f77b4;" x="150.910076" xlink:href="#m8a2d00a65d" y="91.287584"/>
     <use style="fill:#1f77b4;stroke:#1f77b4;" x="157.291761" xlink:href="#m8a2d00a65d" y="185.765737"/>
     <use style="fill:#1f77b4;stroke:#1f77b4;" x="91.869091" xlink:href="#m8a2d00a65d" y="97.538914"/>
     <use style="fill:#1f77b4;stroke:#1f77b4;" x="141.421779" xlink:href="#m8a2d00a65d" y="84.518519"/>
     <use style="fill:#1f77b4;stroke:#1f77b4;" x="173.392559" xlink:href="#m8a2d00a65d" y="122.093775"/>
     <use style="fill:#1f77b4;stroke:#1f77b4;" x="175.203458" xlink:href="#m8a2d00a65d" y="133.249201"/>
     <use style="fill:#1f77b4;stroke:#1f77b4;" x="127.909239" xlink:href="#m8a2d00a65d" y="183.025029"/>
     <use style="fill:#1f77b4;stroke:#1f77b4;" x="236.937488" xlink:href="#m8a2d00a65d" y="133.981454"/>
     <use style="fill:#1f77b4;stroke:#1f77b4;" x="189.290641" xlink:href="#m8a2d00a65d" y="59.57528"/>
     <use style="fill:#1f77b4;stroke:#1f77b4;" x="138.048648" xlink:href="#m8a2d00a65d" y="160.244345"/>
     <use style="fill:#1f77b4;stroke:#1f77b4;" x="193.908247" xlink:href="#m8a2d00a65d" y="137.691976"/>
     <use style="fill:#1f77b4;stroke:#1f77b4;" x="127.991664" xlink:href="#m8a2d00a65d" y="106.482202"/>
     <use style="fill:#1f77b4;stroke:#1f77b4;" x="242.076614" xlink:href="#m8a2d00a65d" y="91.183908"/>
     <use style="fill:#1f77b4;stroke:#1f77b4;" x="203.354772" xlink:href="#m8a2d00a65d" y="135.328428"/>
     <use style="fill:#1f77b4;stroke:#1f77b4;" x="102.342103" xlink:href="#m8a2d00a65d" y="184.972234"/>
     <use style="fill:#1f77b4;stroke:#1f77b4;" x="173.453621" xlink:href="#m8a2d00a65d" y="98.390772"/>
     <use style="fill:#1f77b4;stroke:#1f77b4;" x="153.196397" xlink:href="#m8a2d00a65d" y="123.077429"/>
     <use style="fill:#1f77b4;stroke:#1f77b4;" x="160.674418" xlink:href="#m8a2d00a65d" y="126.028713"/>
     <use style="fill:#1f77b4;stroke:#1f77b4;" x="199.187361" xlink:href="#m8a2d00a65d" y="169.910005"/>
     <use style="fill:#1f77b4;stroke:#1f77b4;" x="125.32012" xlink:href="#m8a2d00a65d" y="145.43858"/>
     <use style="fill:#1f77b4;stroke:#1f77b4;" x="195.508186" xlink:href="#m8a2d00a65d" y="117.263109"/>
     <use style="fill:#1f77b4;stroke:#1f77b4;" x="127.885367" xlink:href="#m8a2d00a65d" y="117.112468"/>
     <use style="fill:#1f77b4;stroke:#1f77b4;" x="112.479337" xlink:href="#m8a2d00a65d" y="137.528498"/>
     <use style="fill:#1f77b4;stroke:#1f77b4;" x="157.743665" xlink:href="#m8a2d00a65d" y="105.610033"/>
     <use style="fill:#1f77b4;stroke:#1f77b4;" x="181.912052" xlink:href="#m8a2d00a65d" y="242.362471"/>
     <use style="fill:#1f77b4;stroke:#1f77b4;" x="135.171901" xlink:href="#m8a2d00a65d" y="93.301215"/>
     <use style="fill:#1f77b4;stroke:#1f77b4;" x="201.490297" xlink:href="#m8a2d00a65d" y="110.477273"/>
     <use style="fill:#1f77b4;stroke:#1f77b4;" x="207.370662" xlink:href="#m8a2d00a65d" y="105.121755"/>
     <use style="fill:#1f77b4;stroke:#1f77b4;" x="185.597087" xlink:href="#m8a2d00a65d" y="159.217566"/>
     <use style="fill:#1f77b4;stroke:#1f77b4;" x="143.164447" xlink:href="#m8a2d00a65d" y="159.265076"/>
     <use style="fill:#1f77b4;stroke:#1f77b4;" x="111.17165" xlink:href="#m8a2d00a65d" y="154.276001"/>
     <use style="fill:#1f77b4;stroke:#1f77b4;" x="184.483055" xlink:href="#m8a2d00a65d" y="147.521344"/>
     <use style="fill:#1f77b4;stroke:#1f77b4;" x="102.691181" xlink:href="#m8a2d00a65d" y="146.493372"/>
     <use style="fill:#1f77b4;stroke:#1f77b4;" x="166.586419" xlink:href="#m8a2d00a65d" y="95.639011"/>
     <use style="fill:#1f77b4;stroke:#1f77b4;" x="173.716819" xlink:href="#m8a2d00a65d" y="153.699698"/>
     <use style="fill:#1f77b4;stroke:#1f77b4;" x="181.992899" xlink:href="#m8a2d00a65d" y="100.569882"/>
     <use style="fill:#1f77b4;stroke:#1f77b4;" x="121.530847" xlink:href="#m8a2d00a65d" y="116.86515"/>
     <use style="fill:#1f77b4;stroke:#1f77b4;" x="196.144641" xlink:href="#m8a2d00a65d" y="152.514546"/>
     <use style="fill:#1f77b4;stroke:#1f77b4;" x="195.186854" xlink:href="#m8a2d00a65d" y="142.290813"/>
     <use style="fill:#1f77b4;stroke:#1f77b4;" x="160.193021" xlink:href="#m8a2d00a65d" y="165.923016"/>
    </g>
   </g>
   <g id="PathCollection_2">
    <defs>
     <path d="M 0 3 
C 0.795609 3 1.55874 2.683901 2.12132 2.12132 
C 2.683901 1.55874 3 0.795609 3 0 
C 3 -0.795609 2.683901 -1.55874 2.12132 -2.12132 
C 1.55874 -2.683901 0.795609 -3 0 -3 
C -0.795609 -3 -1.55874 -2.683901 -2.12132 -2.12132 
C -2.683901 -1.55874 -3 -0.795609 -3 0 
C -3 0.795609 -2.683901 1.55874 -2.12132 2.12132 
C -1.55874 2.683901 -0.795609 3 0 3 
z
" id="me02f5767a6" style="stroke:#ff7f0e;"/>
    </defs>
    <g clip-path="url(#p1839afee1e)">
     <use style="fill:#ff7f0e;stroke:#ff7f0e;" x="313.861009" xlink:href="#me02f5767a6" y="249.381625"/>
     <use style="fill:#ff7f0e;stroke:#ff7f0e;" x="251.541937" xlink:href="#me02f5767a6" y="201.229272"/>
     <use style="fill:#ff7f0e;stroke:#ff7f0e;" x="354.536503" xlink:href="#me02f5767a6" y="227.408903"/>
     <use style="fill:#ff7f0e;stroke:#ff7f0e;" x="338.370017" xlink:href="#me02f5767a6" y="187.339515"/>
     <use style="fill:#ff7f0e;stroke:#ff7f0e;" x="345.131195" xlink:href="#me02f5767a6" y="180.161772"/>
     <use style="fill:#ff7f0e;stroke:#ff7f0e;" x="333.49762" xlink:href="#me02f5767a6" y="193.362745"/>
     <use style="fill:#ff7f0e;stroke:#ff7f0e;" x="314.751604" xlink:href="#me02f5767a6" y="243.695375"/>
     <use style="fill:#ff7f0e;stroke:#ff7f0e;" x="305.680497" xlink:href="#me02f5767a6" y="175.137835"/>
     <use style="fill:#ff7f0e;stroke:#ff7f0e;" x="263.426319" xlink:href="#me02f5767a6" y="117.534733"/>
     <use style="fill:#ff7f0e;stroke:#ff7f0e;" x="315.861447" xlink:href="#me02f5767a6" y="205.162116"/>
     <use style="fill:#ff7f0e;stroke:#ff7f0e;" x="280.537659" xlink:href="#me02f5767a6" y="252.979372"/>
     <use style="fill:#ff7f0e;stroke:#ff7f0e;" x="290.869211" xlink:href="#me02f5767a6" y="150.236803"/>
     <use style="fill:#ff7f0e;stroke:#ff7f0e;" x="364.96686" xlink:href="#me02f5767a6" y="209.497294"/>
     <use style="fill:#ff7f0e;stroke:#ff7f0e;" x="299.854097" xlink:href="#me02f5767a6" y="97.995795"/>
     <use style="fill:#ff7f0e;stroke:#ff7f0e;" x="381.311588" xlink:href="#me02f5767a6" y="245.536866"/>
     <use style="fill:#ff7f0e;stroke:#ff7f0e;" x="376.37736" xlink:href="#me02f5767a6" y="179.647441"/>
     <use style="fill:#ff7f0e;stroke:#ff7f0e;" x="331.934503" xlink:href="#me02f5767a6" y="219.978203"/>
     <use style="fill:#ff7f0e;stroke:#ff7f0e;" x="278.975584" xlink:href="#me02f5767a6" y="143.11094"/>
     <use style="fill:#ff7f0e;stroke:#ff7f0e;" x="331.485374" xlink:href="#me02f5767a6" y="111.131181"/>
     <use style="fill:#ff7f0e;stroke:#ff7f0e;" x="324.430225" xlink:href="#me02f5767a6" y="162.460618"/>
     <use style="fill:#ff7f0e;stroke:#ff7f0e;" x="349.818195" xlink:href="#me02f5767a6" y="227.973856"/>
     <use style="fill:#ff7f0e;stroke:#ff7f0e;" x="336.053793" xlink:href="#me02f5767a6" y="240.720399"/>
     <use style="fill:#ff7f0e;stroke:#ff7f0e;" x="343.162904" xlink:href="#me02f5767a6" y="143.669194"/>
     <use style="fill:#ff7f0e;stroke:#ff7f0e;" x="344.522375" xlink:href="#me02f5767a6" y="122.9796"/>
     <use style="fill:#ff7f0e;stroke:#ff7f0e;" x="342.56288" xlink:href="#me02f5767a6" y="262.677357"/>
     <use style="fill:#ff7f0e;stroke:#ff7f0e;" x="345.158056" xlink:href="#me02f5767a6" y="175.065349"/>
     <use style="fill:#ff7f0e;stroke:#ff7f0e;" x="346.596774" xlink:href="#me02f5767a6" y="265.383489"/>
     <use style="fill:#ff7f0e;stroke:#ff7f0e;" x="333.567241" xlink:href="#me02f5767a6" y="114.832024"/>
     <use style="fill:#ff7f0e;stroke:#ff7f0e;" x="313.958824" xlink:href="#me02f5767a6" y="203.356005"/>
     <use style="fill:#ff7f0e;stroke:#ff7f0e;" x="330.870365" xlink:href="#me02f5767a6" y="138.709788"/>
     <use style="fill:#ff7f0e;stroke:#ff7f0e;" x="320.565112" xlink:href="#me02f5767a6" y="211.715905"/>
     <use style="fill:#ff7f0e;stroke:#ff7f0e;" x="350.872539" xlink:href="#me02f5767a6" y="207.703439"/>
     <use style="fill:#ff7f0e;stroke:#ff7f0e;" x="371.945493" xlink:href="#me02f5767a6" y="200.029528"/>
     <use style="fill:#ff7f0e;stroke:#ff7f0e;" x="326.301708" xlink:href="#me02f5767a6" y="183.184633"/>
     <use style="fill:#ff7f0e;stroke:#ff7f0e;" x="359.451309" xlink:href="#me02f5767a6" y="186.264536"/>
     <use style="fill:#ff7f0e;stroke:#ff7f0e;" x="304.908078" xlink:href="#me02f5767a6" y="166.904071"/>
     <use style="fill:#ff7f0e;stroke:#ff7f0e;" x="307.04947" xlink:href="#me02f5767a6" y="229.106571"/>
     <use style="fill:#ff7f0e;stroke:#ff7f0e;" x="369.267591" xlink:href="#me02f5767a6" y="130.357091"/>
     <use style="fill:#ff7f0e;stroke:#ff7f0e;" x="349.431373" xlink:href="#me02f5767a6" y="157.36339"/>
     <use style="fill:#ff7f0e;stroke:#ff7f0e;" x="277.625566" xlink:href="#me02f5767a6" y="207.960129"/>
     <use style="fill:#ff7f0e;stroke:#ff7f0e;" x="318.526146" xlink:href="#me02f5767a6" y="163.58106"/>
     <use style="fill:#ff7f0e;stroke:#ff7f0e;" x="254.203532" xlink:href="#me02f5767a6" y="217.63211"/>
     <use style="fill:#ff7f0e;stroke:#ff7f0e;" x="336.883612" xlink:href="#me02f5767a6" y="162.104868"/>
     <use style="fill:#ff7f0e;stroke:#ff7f0e;" x="290.613592" xlink:href="#me02f5767a6" y="123.660957"/>
     <use style="fill:#ff7f0e;stroke:#ff7f0e;" x="340.386807" xlink:href="#me02f5767a6" y="177.324037"/>
     <use style="fill:#ff7f0e;stroke:#ff7f0e;" x="309.129143" xlink:href="#me02f5767a6" y="156.916392"/>
     <use style="fill:#ff7f0e;stroke:#ff7f0e;" x="277.602118" xlink:href="#me02f5767a6" y="186.630625"/>
     <use style="fill:#ff7f0e;stroke:#ff7f0e;" x="354.438224" xlink:href="#me02f5767a6" y="241.013003"/>
     <use style="fill:#ff7f0e;stroke:#ff7f0e;" x="300.028828" xlink:href="#me02f5767a6" y="197.793639"/>
     <use style="fill:#ff7f0e;stroke:#ff7f0e;" x="342.194455" xlink:href="#me02f5767a6" y="179.163995"/>
    </g>
   </g>
   <g id="matplotlib.axis_1">
    <g id="xtick_1">
     <g id="line2d_1">
      <defs>
       <path d="M 0 0 
L 0 3.5 
" id="mf9e0e95409" style="stroke:#000000;stroke-width:0.8;"/>
      </defs>
      <g>
       <use style="stroke:#000000;stroke-width:0.8;" x="98.755603" xlink:href="#mf9e0e95409" y="307.584"/>
      </g>
     </g>
     <g id="text_1">
      <!-- −2.5 -->
      <defs>
       <path d="M 10.59375 35.5 
L 73.1875 35.5 
L 73.1875 27.203125 
L 10.59375 27.203125 
z
" id="DejaVuSans-8722"/>
       <path d="M 19.1875 8.296875 
L 53.609375 8.296875 
L 53.609375 0 
L 7.328125 0 
L 7.328125 8.296875 
Q 12.9375 14.109375 22.625 23.890625 
Q 32.328125 33.6875 34.8125 36.53125 
Q 39.546875 41.84375 41.421875 45.53125 
Q 43.3125 49.21875 43.3125 52.78125 
Q 43.3125 58.59375 39.234375 62.25 
Q 35.15625 65.921875 28.609375 65.921875 
Q 23.96875 65.921875 18.8125 64.3125 
Q 13.671875 62.703125 7.8125 59.421875 
L 7.8125 69.390625 
Q 13.765625 71.78125 18.9375 73 
Q 24.125 74.21875 28.421875 74.21875 
Q 39.75 74.21875 46.484375 68.546875 
Q 53.21875 62.890625 53.21875 53.421875 
Q 53.21875 48.921875 51.53125 44.890625 
Q 49.859375 40.875 45.40625 35.40625 
Q 44.1875 33.984375 37.640625 27.21875 
Q 31.109375 20.453125 19.1875 8.296875 
z
" id="DejaVuSans-50"/>
       <path d="M 10.6875 12.40625 
L 21 12.40625 
L 21 0 
L 10.6875 0 
z
" id="DejaVuSans-46"/>
       <path d="M 10.796875 72.90625 
L 49.515625 72.90625 
L 49.515625 64.59375 
L 19.828125 64.59375 
L 19.828125 46.734375 
Q 21.96875 47.46875 24.109375 47.828125 
Q 26.265625 48.1875 28.421875 48.1875 
Q 40.625 48.1875 47.75 41.5 
Q 54.890625 34.8125 54.890625 23.390625 
Q 54.890625 11.625 47.5625 5.09375 
Q 40.234375 -1.421875 26.90625 -1.421875 
Q 22.3125 -1.421875 17.546875 -0.640625 
Q 12.796875 0.140625 7.71875 1.703125 
L 7.71875 11.625 
Q 12.109375 9.234375 16.796875 8.0625 
Q 21.484375 6.890625 26.703125 6.890625 
Q 35.15625 6.890625 40.078125 11.328125 
Q 45.015625 15.765625 45.015625 23.390625 
Q 45.015625 31 40.078125 35.4375 
Q 35.15625 39.890625 26.703125 39.890625 
Q 22.75 39.890625 18.8125 39.015625 
Q 14.890625 38.140625 10.796875 36.28125 
z
" id="DejaVuSans-53"/>
      </defs>
      <g transform="translate(86.614197 322.182437)scale(0.1 -0.1)">
       <use xlink:href="#DejaVuSans-8722"/>
       <use x="83.789062" xlink:href="#DejaVuSans-50"/>
       <use x="147.412109" xlink:href="#DejaVuSans-46"/>
       <use x="179.199219" xlink:href="#DejaVuSans-53"/>
      </g>
     </g>
    </g>
    <g id="xtick_2">
     <g id="line2d_2">
      <g>
       <use style="stroke:#000000;stroke-width:0.8;" x="143.846512" xlink:href="#mf9e0e95409" y="307.584"/>
      </g>
     </g>
     <g id="text_2">
      <!-- 0.0 -->
      <defs>
       <path d="M 31.78125 66.40625 
Q 24.171875 66.40625 20.328125 58.90625 
Q 16.5 51.421875 16.5 36.375 
Q 16.5 21.390625 20.328125 13.890625 
Q 24.171875 6.390625 31.78125 6.390625 
Q 39.453125 6.390625 43.28125 13.890625 
Q 47.125 21.390625 47.125 36.375 
Q 47.125 51.421875 43.28125 58.90625 
Q 39.453125 66.40625 31.78125 66.40625 
z
M 31.78125 74.21875 
Q 44.046875 74.21875 50.515625 64.515625 
Q 56.984375 54.828125 56.984375 36.375 
Q 56.984375 17.96875 50.515625 8.265625 
Q 44.046875 -1.421875 31.78125 -1.421875 
Q 19.53125 -1.421875 13.0625 8.265625 
Q 6.59375 17.96875 6.59375 36.375 
Q 6.59375 54.828125 13.0625 64.515625 
Q 19.53125 74.21875 31.78125 74.21875 
z
" id="DejaVuSans-48"/>
      </defs>
      <g transform="translate(135.894949 322.182437)scale(0.1 -0.1)">
       <use xlink:href="#DejaVuSans-48"/>
       <use x="63.623047" xlink:href="#DejaVuSans-46"/>
       <use x="95.410156" xlink:href="#DejaVuSans-48"/>
      </g>
     </g>
    </g>
    <g id="xtick_3">
     <g id="line2d_3">
      <g>
       <use style="stroke:#000000;stroke-width:0.8;" x="188.937421" xlink:href="#mf9e0e95409" y="307.584"/>
      </g>
     </g>
     <g id="text_3">
      <!-- 2.5 -->
      <g transform="translate(180.985859 322.182437)scale(0.1 -0.1)">
       <use xlink:href="#DejaVuSans-50"/>
       <use x="63.623047" xlink:href="#DejaVuSans-46"/>
       <use x="95.410156" xlink:href="#DejaVuSans-53"/>
      </g>
     </g>
    </g>
    <g id="xtick_4">
     <g id="line2d_4">
      <g>
       <use style="stroke:#000000;stroke-width:0.8;" x="234.02833" xlink:href="#mf9e0e95409" y="307.584"/>
      </g>
     </g>
     <g id="text_4">
      <!-- 5.0 -->
      <g transform="translate(226.076768 322.182437)scale(0.1 -0.1)">
       <use xlink:href="#DejaVuSans-53"/>
       <use x="63.623047" xlink:href="#DejaVuSans-46"/>
       <use x="95.410156" xlink:href="#DejaVuSans-48"/>
      </g>
     </g>
    </g>
    <g id="xtick_5">
     <g id="line2d_5">
      <g>
       <use style="stroke:#000000;stroke-width:0.8;" x="279.119239" xlink:href="#mf9e0e95409" y="307.584"/>
      </g>
     </g>
     <g id="text_5">
      <!-- 7.5 -->
      <defs>
       <path d="M 8.203125 72.90625 
L 55.078125 72.90625 
L 55.078125 68.703125 
L 28.609375 0 
L 18.3125 0 
L 43.21875 64.59375 
L 8.203125 64.59375 
z
" id="DejaVuSans-55"/>
      </defs>
      <g transform="translate(271.167677 322.182437)scale(0.1 -0.1)">
       <use xlink:href="#DejaVuSans-55"/>
       <use x="63.623047" xlink:href="#DejaVuSans-46"/>
       <use x="95.410156" xlink:href="#DejaVuSans-53"/>
      </g>
     </g>
    </g>
    <g id="xtick_6">
     <g id="line2d_6">
      <g>
       <use style="stroke:#000000;stroke-width:0.8;" x="324.210148" xlink:href="#mf9e0e95409" y="307.584"/>
      </g>
     </g>
     <g id="text_6">
      <!-- 10.0 -->
      <defs>
       <path d="M 12.40625 8.296875 
L 28.515625 8.296875 
L 28.515625 63.921875 
L 10.984375 60.40625 
L 10.984375 69.390625 
L 28.421875 72.90625 
L 38.28125 72.90625 
L 38.28125 8.296875 
L 54.390625 8.296875 
L 54.390625 0 
L 12.40625 0 
z
" id="DejaVuSans-49"/>
      </defs>
      <g transform="translate(313.077336 322.182437)scale(0.1 -0.1)">
       <use xlink:href="#DejaVuSans-49"/>
       <use x="63.623047" xlink:href="#DejaVuSans-48"/>
       <use x="127.246094" xlink:href="#DejaVuSans-46"/>
       <use x="159.033203" xlink:href="#DejaVuSans-48"/>
      </g>
     </g>
    </g>
    <g id="xtick_7">
     <g id="line2d_7">
      <g>
       <use style="stroke:#000000;stroke-width:0.8;" x="369.301057" xlink:href="#mf9e0e95409" y="307.584"/>
      </g>
     </g>
     <g id="text_7">
      <!-- 12.5 -->
      <g transform="translate(358.168245 322.182437)scale(0.1 -0.1)">
       <use xlink:href="#DejaVuSans-49"/>
       <use x="63.623047" xlink:href="#DejaVuSans-50"/>
       <use x="127.246094" xlink:href="#DejaVuSans-46"/>
       <use x="159.033203" xlink:href="#DejaVuSans-53"/>
      </g>
     </g>
    </g>
    <g id="xtick_8">
     <g id="line2d_8">
      <g>
       <use style="stroke:#000000;stroke-width:0.8;" x="414.391966" xlink:href="#mf9e0e95409" y="307.584"/>
      </g>
     </g>
     <g id="text_8">
      <!-- 15.0 -->
      <g transform="translate(403.259154 322.182437)scale(0.1 -0.1)">
       <use xlink:href="#DejaVuSans-49"/>
       <use x="63.623047" xlink:href="#DejaVuSans-53"/>
       <use x="127.246094" xlink:href="#DejaVuSans-46"/>
       <use x="159.033203" xlink:href="#DejaVuSans-48"/>
      </g>
     </g>
    </g>
    <g id="text_9">
     <!-- X1 -->
     <defs>
      <path d="M 6.296875 72.90625 
L 16.890625 72.90625 
L 35.015625 45.796875 
L 53.21875 72.90625 
L 63.8125 72.90625 
L 40.375 37.890625 
L 65.375 0 
L 54.78125 0 
L 34.28125 31 
L 13.625 0 
L 2.984375 0 
L 29 38.921875 
z
" id="DejaVuSans-88"/>
     </defs>
     <g transform="translate(229.55375 335.860562)scale(0.1 -0.1)">
      <use xlink:href="#DejaVuSans-88"/>
      <use x="68.505859" xlink:href="#DejaVuSans-49"/>
     </g>
    </g>
   </g>
   <g id="matplotlib.axis_2">
    <g id="ytick_1">
     <g id="line2d_9">
      <defs>
       <path d="M 0 0 
L -3.5 0 
" id="m611d56997f" style="stroke:#000000;stroke-width:0.8;"/>
      </defs>
      <g>
       <use style="stroke:#000000;stroke-width:0.8;" x="57.6" xlink:href="#m611d56997f" y="282.189729"/>
      </g>
     </g>
     <g id="text_10">
      <!-- −2 -->
      <g transform="translate(35.857813 285.988948)scale(0.1 -0.1)">
       <use xlink:href="#DejaVuSans-8722"/>
       <use x="83.789062" xlink:href="#DejaVuSans-50"/>
      </g>
     </g>
    </g>
    <g id="ytick_2">
     <g id="line2d_10">
      <g>
       <use style="stroke:#000000;stroke-width:0.8;" x="57.6" xlink:href="#m611d56997f" y="243.988607"/>
      </g>
     </g>
     <g id="text_11">
      <!-- 0 -->
      <g transform="translate(44.2375 247.787826)scale(0.1 -0.1)">
       <use xlink:href="#DejaVuSans-48"/>
      </g>
     </g>
    </g>
    <g id="ytick_3">
     <g id="line2d_11">
      <g>
       <use style="stroke:#000000;stroke-width:0.8;" x="57.6" xlink:href="#m611d56997f" y="205.787484"/>
      </g>
     </g>
     <g id="text_12">
      <!-- 2 -->
      <g transform="translate(44.2375 209.586703)scale(0.1 -0.1)">
       <use xlink:href="#DejaVuSans-50"/>
      </g>
     </g>
    </g>
    <g id="ytick_4">
     <g id="line2d_12">
      <g>
       <use style="stroke:#000000;stroke-width:0.8;" x="57.6" xlink:href="#m611d56997f" y="167.586362"/>
      </g>
     </g>
     <g id="text_13">
      <!-- 4 -->
      <defs>
       <path d="M 37.796875 64.3125 
L 12.890625 25.390625 
L 37.796875 25.390625 
z
M 35.203125 72.90625 
L 47.609375 72.90625 
L 47.609375 25.390625 
L 58.015625 25.390625 
L 58.015625 17.1875 
L 47.609375 17.1875 
L 47.609375 0 
L 37.796875 0 
L 37.796875 17.1875 
L 4.890625 17.1875 
L 4.890625 26.703125 
z
" id="DejaVuSans-52"/>
      </defs>
      <g transform="translate(44.2375 171.38558)scale(0.1 -0.1)">
       <use xlink:href="#DejaVuSans-52"/>
      </g>
     </g>
    </g>
    <g id="ytick_5">
     <g id="line2d_13">
      <g>
       <use style="stroke:#000000;stroke-width:0.8;" x="57.6" xlink:href="#m611d56997f" y="129.385239"/>
      </g>
     </g>
     <g id="text_14">
      <!-- 6 -->
      <defs>
       <path d="M 33.015625 40.375 
Q 26.375 40.375 22.484375 35.828125 
Q 18.609375 31.296875 18.609375 23.390625 
Q 18.609375 15.53125 22.484375 10.953125 
Q 26.375 6.390625 33.015625 6.390625 
Q 39.65625 6.390625 43.53125 10.953125 
Q 47.40625 15.53125 47.40625 23.390625 
Q 47.40625 31.296875 43.53125 35.828125 
Q 39.65625 40.375 33.015625 40.375 
z
M 52.59375 71.296875 
L 52.59375 62.3125 
Q 48.875 64.0625 45.09375 64.984375 
Q 41.3125 65.921875 37.59375 65.921875 
Q 27.828125 65.921875 22.671875 59.328125 
Q 17.53125 52.734375 16.796875 39.40625 
Q 19.671875 43.65625 24.015625 45.921875 
Q 28.375 48.1875 33.59375 48.1875 
Q 44.578125 48.1875 50.953125 41.515625 
Q 57.328125 34.859375 57.328125 23.390625 
Q 57.328125 12.15625 50.6875 5.359375 
Q 44.046875 -1.421875 33.015625 -1.421875 
Q 20.359375 -1.421875 13.671875 8.265625 
Q 6.984375 17.96875 6.984375 36.375 
Q 6.984375 53.65625 15.1875 63.9375 
Q 23.390625 74.21875 37.203125 74.21875 
Q 40.921875 74.21875 44.703125 73.484375 
Q 48.484375 72.75 52.59375 71.296875 
z
" id="DejaVuSans-54"/>
      </defs>
      <g transform="translate(44.2375 133.184458)scale(0.1 -0.1)">
       <use xlink:href="#DejaVuSans-54"/>
      </g>
     </g>
    </g>
    <g id="ytick_6">
     <g id="line2d_14">
      <g>
       <use style="stroke:#000000;stroke-width:0.8;" x="57.6" xlink:href="#m611d56997f" y="91.184117"/>
      </g>
     </g>
     <g id="text_15">
      <!-- 8 -->
      <defs>
       <path d="M 31.78125 34.625 
Q 24.75 34.625 20.71875 30.859375 
Q 16.703125 27.09375 16.703125 20.515625 
Q 16.703125 13.921875 20.71875 10.15625 
Q 24.75 6.390625 31.78125 6.390625 
Q 38.8125 6.390625 42.859375 10.171875 
Q 46.921875 13.96875 46.921875 20.515625 
Q 46.921875 27.09375 42.890625 30.859375 
Q 38.875 34.625 31.78125 34.625 
z
M 21.921875 38.8125 
Q 15.578125 40.375 12.03125 44.71875 
Q 8.5 49.078125 8.5 55.328125 
Q 8.5 64.0625 14.71875 69.140625 
Q 20.953125 74.21875 31.78125 74.21875 
Q 42.671875 74.21875 48.875 69.140625 
Q 55.078125 64.0625 55.078125 55.328125 
Q 55.078125 49.078125 51.53125 44.71875 
Q 48 40.375 41.703125 38.8125 
Q 48.828125 37.15625 52.796875 32.3125 
Q 56.78125 27.484375 56.78125 20.515625 
Q 56.78125 9.90625 50.3125 4.234375 
Q 43.84375 -1.421875 31.78125 -1.421875 
Q 19.734375 -1.421875 13.25 4.234375 
Q 6.78125 9.90625 6.78125 20.515625 
Q 6.78125 27.484375 10.78125 32.3125 
Q 14.796875 37.15625 21.921875 38.8125 
z
M 18.3125 54.390625 
Q 18.3125 48.734375 21.84375 45.5625 
Q 25.390625 42.390625 31.78125 42.390625 
Q 38.140625 42.390625 41.71875 45.5625 
Q 45.3125 48.734375 45.3125 54.390625 
Q 45.3125 60.0625 41.71875 63.234375 
Q 38.140625 66.40625 31.78125 66.40625 
Q 25.390625 66.40625 21.84375 63.234375 
Q 18.3125 60.0625 18.3125 54.390625 
z
" id="DejaVuSans-56"/>
      </defs>
      <g transform="translate(44.2375 94.983335)scale(0.1 -0.1)">
       <use xlink:href="#DejaVuSans-56"/>
      </g>
     </g>
    </g>
    <g id="ytick_7">
     <g id="line2d_15">
      <g>
       <use style="stroke:#000000;stroke-width:0.8;" x="57.6" xlink:href="#m611d56997f" y="52.982994"/>
      </g>
     </g>
     <g id="text_16">
      <!-- 10 -->
      <g transform="translate(37.875 56.782213)scale(0.1 -0.1)">
       <use xlink:href="#DejaVuSans-49"/>
       <use x="63.623047" xlink:href="#DejaVuSans-48"/>
      </g>
     </g>
    </g>
    <g id="text_17">
     <!-- X2 -->
     <g transform="translate(29.778125 181.13425)rotate(-90)scale(0.1 -0.1)">
      <use xlink:href="#DejaVuSans-88"/>
      <use x="68.505859" xlink:href="#DejaVuSans-50"/>
     </g>
    </g>
   </g>
   <g id="line2d_16">
    <path clip-path="url(#p1839afee1e)" d="M 73.832727 295.488 
L 398.487273 65.589651 
L 398.487273 65.589651 
" style="fill:none;stroke:#1f77b4;stroke-linecap:square;stroke-width:1.5;"/>
   </g>
   <g id="patch_3">
    <path d="M 57.6 307.584 
L 57.6 41.472 
" style="fill:none;stroke:#000000;stroke-linecap:square;stroke-linejoin:miter;stroke-width:0.8;"/>
   </g>
   <g id="patch_4">
    <path d="M 414.72 307.584 
L 414.72 41.472 
" style="fill:none;stroke:#000000;stroke-linecap:square;stroke-linejoin:miter;stroke-width:0.8;"/>
   </g>
   <g id="patch_5">
    <path d="M 57.6 307.584 
L 414.72 307.584 
" style="fill:none;stroke:#000000;stroke-linecap:square;stroke-linejoin:miter;stroke-width:0.8;"/>
   </g>
   <g id="patch_6">
    <path d="M 57.6 41.472 
L 414.72 41.472 
" style="fill:none;stroke:#000000;stroke-linecap:square;stroke-linejoin:miter;stroke-width:0.8;"/>
   </g>
  </g>
 </g>
 <defs>
  <clipPath id="p1839afee1e">
   <rect height="266.112" width="357.12" x="57.6" y="41.472"/>
  </clipPath>
 </defs>
</svg>
