<?xml version="1.0" encoding="utf-8" standalone="no"?>
<!DOCTYPE svg PUBLIC "-//W3C//DTD SVG 1.1//EN"
  "http://www.w3.org/Graphics/SVG/1.1/DTD/svg11.dtd">
<!-- Created with matplotlib (https://matplotlib.org/) -->
<svg height="345.6pt" version="1.1" viewBox="0 0 460.8 345.6" width="460.8pt" xmlns="http://www.w3.org/2000/svg" xmlns:xlink="http://www.w3.org/1999/xlink">
 <defs>
  <style type="text/css">
*{stroke-linecap:butt;stroke-linejoin:round;}
  </style>
 </defs>
 <g id="figure_1">
  <g id="patch_1">
   <path d="M 0 345.6 
L 460.8 345.6 
L 460.8 0 
L 0 0 
z
" style="fill:#ffffff;"/>
  </g>
  <g id="axes_1">
   <g id="patch_2">
    <path d="M 57.6 307.584 
L 414.72 307.584 
L 414.72 41.472 
L 57.6 41.472 
z
" style="fill:#ffffff;"/>
   </g>
   <g id="PathCollection_1">
    <defs>
     <path d="M 0 3 
C 0.795609 3 1.55874 2.683901 2.12132 2.12132 
C 2.683901 1.55874 3 0.795609 3 0 
C 3 -0.795609 2.683901 -1.55874 2.12132 -2.12132 
C 1.55874 -2.683901 0.795609 -3 0 -3 
C -0.795609 -3 -1.55874 -2.683901 -2.12132 -2.12132 
C -2.683901 -1.55874 -3 -0.795609 -3 0 
C -3 0.795609 -2.683901 1.55874 -2.12132 2.12132 
C -1.55874 2.683901 -0.795609 3 0 3 
z
" id="me34774f5ab" style="stroke:#1f77b4;"/>
    </defs>
    <g clip-path="url(#p7185475118)">
     <use style="fill:#1f77b4;stroke:#1f77b4;" x="152.142996" xlink:href="#me34774f5ab" y="171.977266"/>
     <use style="fill:#1f77b4;stroke:#1f77b4;" x="205.51814" xlink:href="#me34774f5ab" y="166.424858"/>
     <use style="fill:#1f77b4;stroke:#1f77b4;" x="124.099282" xlink:href="#me34774f5ab" y="151.401844"/>
     <use style="fill:#1f77b4;stroke:#1f77b4;" x="144.638959" xlink:href="#me34774f5ab" y="159.893918"/>
     <use style="fill:#1f77b4;stroke:#1f77b4;" x="115.982589" xlink:href="#me34774f5ab" y="150.457013"/>
     <use style="fill:#1f77b4;stroke:#1f77b4;" x="126.487764" xlink:href="#me34774f5ab" y="166.759662"/>
     <use style="fill:#1f77b4;stroke:#1f77b4;" x="140.279831" xlink:href="#me34774f5ab" y="178.068132"/>
     <use style="fill:#1f77b4;stroke:#1f77b4;" x="169.311274" xlink:href="#me34774f5ab" y="157.944016"/>
     <use style="fill:#1f77b4;stroke:#1f77b4;" x="158.702326" xlink:href="#me34774f5ab" y="172.290181"/>
     <use style="fill:#1f77b4;stroke:#1f77b4;" x="159.542675" xlink:href="#me34774f5ab" y="168.053767"/>
     <use style="fill:#1f77b4;stroke:#1f77b4;" x="167.983553" xlink:href="#me34774f5ab" y="153.842489"/>
     <use style="fill:#1f77b4;stroke:#1f77b4;" x="134.749058" xlink:href="#me34774f5ab" y="157.084338"/>
     <use style="fill:#1f77b4;stroke:#1f77b4;" x="143.568514" xlink:href="#me34774f5ab" y="162.334268"/>
     <use style="fill:#1f77b4;stroke:#1f77b4;" x="133.213257" xlink:href="#me34774f5ab" y="158.472585"/>
     <use style="fill:#1f77b4;stroke:#1f77b4;" x="178.312991" xlink:href="#me34774f5ab" y="169.973347"/>
     <use style="fill:#1f77b4;stroke:#1f77b4;" x="151.171748" xlink:href="#me34774f5ab" y="162.070494"/>
     <use style="fill:#1f77b4;stroke:#1f77b4;" x="185.342006" xlink:href="#me34774f5ab" y="171.007813"/>
     <use style="fill:#1f77b4;stroke:#1f77b4;" x="161.983294" xlink:href="#me34774f5ab" y="174.92719"/>
     <use style="fill:#1f77b4;stroke:#1f77b4;" x="143.798545" xlink:href="#me34774f5ab" y="153.605023"/>
     <use style="fill:#1f77b4;stroke:#1f77b4;" x="138.083561" xlink:href="#me34774f5ab" y="173.608111"/>
     <use style="fill:#1f77b4;stroke:#1f77b4;" x="153.367553" xlink:href="#me34774f5ab" y="189.396651"/>
     <use style="fill:#1f77b4;stroke:#1f77b4;" x="133.232502" xlink:href="#me34774f5ab" y="159.336335"/>
     <use style="fill:#1f77b4;stroke:#1f77b4;" x="141.482215" xlink:href="#me34774f5ab" y="172.16189"/>
     <use style="fill:#1f77b4;stroke:#1f77b4;" x="164.830755" xlink:href="#me34774f5ab" y="152.32111"/>
     <use style="fill:#1f77b4;stroke:#1f77b4;" x="145.502845" xlink:href="#me34774f5ab" y="144.098323"/>
     <use style="fill:#1f77b4;stroke:#1f77b4;" x="142.889187" xlink:href="#me34774f5ab" y="156.549326"/>
     <use style="fill:#1f77b4;stroke:#1f77b4;" x="178.973989" xlink:href="#me34774f5ab" y="160.932253"/>
     <use style="fill:#1f77b4;stroke:#1f77b4;" x="139.964712" xlink:href="#me34774f5ab" y="148.751592"/>
     <use style="fill:#1f77b4;stroke:#1f77b4;" x="141.432002" xlink:href="#me34774f5ab" y="147.861471"/>
     <use style="fill:#1f77b4;stroke:#1f77b4;" x="151.152462" xlink:href="#me34774f5ab" y="166.988977"/>
     <use style="fill:#1f77b4;stroke:#1f77b4;" x="127.110386" xlink:href="#me34774f5ab" y="166.216212"/>
     <use style="fill:#1f77b4;stroke:#1f77b4;" x="159.188298" xlink:href="#me34774f5ab" y="161.505793"/>
     <use style="fill:#1f77b4;stroke:#1f77b4;" x="161.601284" xlink:href="#me34774f5ab" y="158.289698"/>
     <use style="fill:#1f77b4;stroke:#1f77b4;" x="145.422414" xlink:href="#me34774f5ab" y="140.385804"/>
     <use style="fill:#1f77b4;stroke:#1f77b4;" x="114.414545" xlink:href="#me34774f5ab" y="159.339468"/>
     <use style="fill:#1f77b4;stroke:#1f77b4;" x="165.967756" xlink:href="#me34774f5ab" y="157.925327"/>
     <use style="fill:#1f77b4;stroke:#1f77b4;" x="163.546921" xlink:href="#me34774f5ab" y="154.915076"/>
     <use style="fill:#1f77b4;stroke:#1f77b4;" x="139.910288" xlink:href="#me34774f5ab" y="157.410867"/>
     <use style="fill:#1f77b4;stroke:#1f77b4;" x="121.987741" xlink:href="#me34774f5ab" y="165.771058"/>
     <use style="fill:#1f77b4;stroke:#1f77b4;" x="151.529928" xlink:href="#me34774f5ab" y="155.692014"/>
     <use style="fill:#1f77b4;stroke:#1f77b4;" x="162.927382" xlink:href="#me34774f5ab" y="179.024256"/>
     <use style="fill:#1f77b4;stroke:#1f77b4;" x="154.720988" xlink:href="#me34774f5ab" y="155.31154"/>
     <use style="fill:#1f77b4;stroke:#1f77b4;" x="158.691599" xlink:href="#me34774f5ab" y="168.274723"/>
     <use style="fill:#1f77b4;stroke:#1f77b4;" x="142.032109" xlink:href="#me34774f5ab" y="169.219186"/>
     <use style="fill:#1f77b4;stroke:#1f77b4;" x="153.046891" xlink:href="#me34774f5ab" y="162.550585"/>
     <use style="fill:#1f77b4;stroke:#1f77b4;" x="164.985503" xlink:href="#me34774f5ab" y="149.472908"/>
     <use style="fill:#1f77b4;stroke:#1f77b4;" x="130.712157" xlink:href="#me34774f5ab" y="148.140041"/>
     <use style="fill:#1f77b4;stroke:#1f77b4;" x="157.457287" xlink:href="#me34774f5ab" y="172.836084"/>
     <use style="fill:#1f77b4;stroke:#1f77b4;" x="158.775722" xlink:href="#me34774f5ab" y="161.001171"/>
     <use style="fill:#1f77b4;stroke:#1f77b4;" x="119.815509" xlink:href="#me34774f5ab" y="143.705729"/>
    </g>
   </g>
   <g id="PathCollection_2">
    <defs>
     <path d="M 0 3 
C 0.795609 3 1.55874 2.683901 2.12132 2.12132 
C 2.683901 1.55874 3 0.795609 3 0 
C 3 -0.795609 2.683901 -1.55874 2.12132 -2.12132 
C 1.55874 -2.683901 0.795609 -3 0 -3 
C -0.795609 -3 -1.55874 -2.683901 -2.12132 -2.12132 
C -2.683901 -1.55874 -3 -0.795609 -3 0 
C -3 0.795609 -2.683901 1.55874 -2.12132 2.12132 
C -1.55874 2.683901 -0.795609 3 0 3 
z
" id="m2bf1304437" style="stroke:#ff7f0e;"/>
    </defs>
    <g clip-path="url(#p7185475118)">
     <use style="fill:#ff7f0e;stroke:#ff7f0e;" x="317.431454" xlink:href="#m2bf1304437" y="201.012762"/>
     <use style="fill:#ff7f0e;stroke:#ff7f0e;" x="319.174196" xlink:href="#m2bf1304437" y="207.760758"/>
     <use style="fill:#ff7f0e;stroke:#ff7f0e;" x="332.713493" xlink:href="#m2bf1304437" y="213.577173"/>
     <use style="fill:#ff7f0e;stroke:#ff7f0e;" x="282.584507" xlink:href="#m2bf1304437" y="193.871731"/>
     <use style="fill:#ff7f0e;stroke:#ff7f0e;" x="301.497246" xlink:href="#m2bf1304437" y="183.82972"/>
     <use style="fill:#ff7f0e;stroke:#ff7f0e;" x="296.387318" xlink:href="#m2bf1304437" y="207.581512"/>
     <use style="fill:#ff7f0e;stroke:#ff7f0e;" x="292.842825" xlink:href="#m2bf1304437" y="185.047867"/>
     <use style="fill:#ff7f0e;stroke:#ff7f0e;" x="337.007972" xlink:href="#m2bf1304437" y="207.339606"/>
     <use style="fill:#ff7f0e;stroke:#ff7f0e;" x="300.35066" xlink:href="#m2bf1304437" y="214.115843"/>
     <use style="fill:#ff7f0e;stroke:#ff7f0e;" x="322.529992" xlink:href="#m2bf1304437" y="195.571957"/>
     <use style="fill:#ff7f0e;stroke:#ff7f0e;" x="281.454297" xlink:href="#m2bf1304437" y="214.437603"/>
     <use style="fill:#ff7f0e;stroke:#ff7f0e;" x="287.597471" xlink:href="#m2bf1304437" y="217.583972"/>
     <use style="fill:#ff7f0e;stroke:#ff7f0e;" x="328.346382" xlink:href="#m2bf1304437" y="199.717091"/>
     <use style="fill:#ff7f0e;stroke:#ff7f0e;" x="317.865075" xlink:href="#m2bf1304437" y="207.850643"/>
     <use style="fill:#ff7f0e;stroke:#ff7f0e;" x="318.819074" xlink:href="#m2bf1304437" y="204.974501"/>
     <use style="fill:#ff7f0e;stroke:#ff7f0e;" x="302.158736" xlink:href="#m2bf1304437" y="208.166655"/>
     <use style="fill:#ff7f0e;stroke:#ff7f0e;" x="291.114649" xlink:href="#m2bf1304437" y="175.305728"/>
     <use style="fill:#ff7f0e;stroke:#ff7f0e;" x="313.261222" xlink:href="#m2bf1304437" y="201.037538"/>
     <use style="fill:#ff7f0e;stroke:#ff7f0e;" x="259.043226" xlink:href="#m2bf1304437" y="192.15169"/>
     <use style="fill:#ff7f0e;stroke:#ff7f0e;" x="305.572517" xlink:href="#m2bf1304437" y="206.612516"/>
     <use style="fill:#ff7f0e;stroke:#ff7f0e;" x="287.795669" xlink:href="#m2bf1304437" y="208.163688"/>
     <use style="fill:#ff7f0e;stroke:#ff7f0e;" x="290.080257" xlink:href="#m2bf1304437" y="193.533275"/>
     <use style="fill:#ff7f0e;stroke:#ff7f0e;" x="320.228293" xlink:href="#m2bf1304437" y="210.204307"/>
     <use style="fill:#ff7f0e;stroke:#ff7f0e;" x="295.230561" xlink:href="#m2bf1304437" y="204.525553"/>
     <use style="fill:#ff7f0e;stroke:#ff7f0e;" x="321.050659" xlink:href="#m2bf1304437" y="210.987421"/>
     <use style="fill:#ff7f0e;stroke:#ff7f0e;" x="359.556001" xlink:href="#m2bf1304437" y="209.336489"/>
     <use style="fill:#ff7f0e;stroke:#ff7f0e;" x="286.420499" xlink:href="#m2bf1304437" y="202.624106"/>
     <use style="fill:#ff7f0e;stroke:#ff7f0e;" x="289.618693" xlink:href="#m2bf1304437" y="204.478207"/>
     <use style="fill:#ff7f0e;stroke:#ff7f0e;" x="301.402589" xlink:href="#m2bf1304437" y="188.393234"/>
     <use style="fill:#ff7f0e;stroke:#ff7f0e;" x="312.959009" xlink:href="#m2bf1304437" y="202.024232"/>
     <use style="fill:#ff7f0e;stroke:#ff7f0e;" x="300.678734" xlink:href="#m2bf1304437" y="219.843384"/>
     <use style="fill:#ff7f0e;stroke:#ff7f0e;" x="321.905975" xlink:href="#m2bf1304437" y="210.090741"/>
     <use style="fill:#ff7f0e;stroke:#ff7f0e;" x="289.88765" xlink:href="#m2bf1304437" y="201.329135"/>
     <use style="fill:#ff7f0e;stroke:#ff7f0e;" x="265.884528" xlink:href="#m2bf1304437" y="198.716717"/>
     <use style="fill:#ff7f0e;stroke:#ff7f0e;" x="315.601099" xlink:href="#m2bf1304437" y="194.211705"/>
     <use style="fill:#ff7f0e;stroke:#ff7f0e;" x="334.436417" xlink:href="#m2bf1304437" y="207.49747"/>
     <use style="fill:#ff7f0e;stroke:#ff7f0e;" x="257.20021" xlink:href="#m2bf1304437" y="198.62278"/>
     <use style="fill:#ff7f0e;stroke:#ff7f0e;" x="322.796716" xlink:href="#m2bf1304437" y="206.280393"/>
     <use style="fill:#ff7f0e;stroke:#ff7f0e;" x="321.652711" xlink:href="#m2bf1304437" y="193.776131"/>
     <use style="fill:#ff7f0e;stroke:#ff7f0e;" x="315.234576" xlink:href="#m2bf1304437" y="212.203101"/>
     <use style="fill:#ff7f0e;stroke:#ff7f0e;" x="319.707165" xlink:href="#m2bf1304437" y="202.551636"/>
     <use style="fill:#ff7f0e;stroke:#ff7f0e;" x="333.011605" xlink:href="#m2bf1304437" y="213.696328"/>
     <use style="fill:#ff7f0e;stroke:#ff7f0e;" x="310.530865" xlink:href="#m2bf1304437" y="201.350035"/>
     <use style="fill:#ff7f0e;stroke:#ff7f0e;" x="316.499378" xlink:href="#m2bf1304437" y="195.918164"/>
     <use style="fill:#ff7f0e;stroke:#ff7f0e;" x="331.729883" xlink:href="#m2bf1304437" y="193.500949"/>
     <use style="fill:#ff7f0e;stroke:#ff7f0e;" x="321.93151" xlink:href="#m2bf1304437" y="195.734376"/>
     <use style="fill:#ff7f0e;stroke:#ff7f0e;" x="307.403899" xlink:href="#m2bf1304437" y="195.779935"/>
     <use style="fill:#ff7f0e;stroke:#ff7f0e;" x="330.026417" xlink:href="#m2bf1304437" y="213.689982"/>
     <use style="fill:#ff7f0e;stroke:#ff7f0e;" x="310.574073" xlink:href="#m2bf1304437" y="204.639712"/>
     <use style="fill:#ff7f0e;stroke:#ff7f0e;" x="323.026493" xlink:href="#m2bf1304437" y="177.267954"/>
    </g>
   </g>
   <g id="matplotlib.axis_1">
    <g id="xtick_1">
     <g id="line2d_1">
      <defs>
       <path d="M 0 0 
L 0 3.5 
" id="m8ee88949b0" style="stroke:#000000;stroke-width:0.8;"/>
      </defs>
      <g>
       <use style="stroke:#000000;stroke-width:0.8;" x="64.026596" xlink:href="#m8ee88949b0" y="307.584"/>
      </g>
     </g>
     <g id="text_1">
      <!-- −2 -->
      <defs>
       <path d="M 10.59375 35.5 
L 73.1875 35.5 
L 73.1875 27.203125 
L 10.59375 27.203125 
z
" id="DejaVuSans-8722"/>
       <path d="M 19.1875 8.296875 
L 53.609375 8.296875 
L 53.609375 0 
L 7.328125 0 
L 7.328125 8.296875 
Q 12.9375 14.109375 22.625 23.890625 
Q 32.328125 33.6875 34.8125 36.53125 
Q 39.546875 41.84375 41.421875 45.53125 
Q 43.3125 49.21875 43.3125 52.78125 
Q 43.3125 58.59375 39.234375 62.25 
Q 35.15625 65.921875 28.609375 65.921875 
Q 23.96875 65.921875 18.8125 64.3125 
Q 13.671875 62.703125 7.8125 59.421875 
L 7.8125 69.390625 
Q 13.765625 71.78125 18.9375 73 
Q 24.125 74.21875 28.421875 74.21875 
Q 39.75 74.21875 46.484375 68.546875 
Q 53.21875 62.890625 53.21875 53.421875 
Q 53.21875 48.921875 51.53125 44.890625 
Q 49.859375 40.875 45.40625 35.40625 
Q 44.1875 33.984375 37.640625 27.21875 
Q 31.109375 20.453125 19.1875 8.296875 
z
" id="DejaVuSans-50"/>
      </defs>
      <g transform="translate(56.655502 322.182437)scale(0.1 -0.1)">
       <use xlink:href="#DejaVuSans-8722"/>
       <use x="83.789062" xlink:href="#DejaVuSans-50"/>
      </g>
     </g>
    </g>
    <g id="xtick_2">
     <g id="line2d_2">
      <g>
       <use style="stroke:#000000;stroke-width:0.8;" x="104.608414" xlink:href="#m8ee88949b0" y="307.584"/>
      </g>
     </g>
     <g id="text_2">
      <!-- −1 -->
      <defs>
       <path d="M 12.40625 8.296875 
L 28.515625 8.296875 
L 28.515625 63.921875 
L 10.984375 60.40625 
L 10.984375 69.390625 
L 28.421875 72.90625 
L 38.28125 72.90625 
L 38.28125 8.296875 
L 54.390625 8.296875 
L 54.390625 0 
L 12.40625 0 
z
" id="DejaVuSans-49"/>
      </defs>
      <g transform="translate(97.23732 322.182437)scale(0.1 -0.1)">
       <use xlink:href="#DejaVuSans-8722"/>
       <use x="83.789062" xlink:href="#DejaVuSans-49"/>
      </g>
     </g>
    </g>
    <g id="xtick_3">
     <g id="line2d_3">
      <g>
       <use style="stroke:#000000;stroke-width:0.8;" x="145.190232" xlink:href="#m8ee88949b0" y="307.584"/>
      </g>
     </g>
     <g id="text_3">
      <!-- 0 -->
      <defs>
       <path d="M 31.78125 66.40625 
Q 24.171875 66.40625 20.328125 58.90625 
Q 16.5 51.421875 16.5 36.375 
Q 16.5 21.390625 20.328125 13.890625 
Q 24.171875 6.390625 31.78125 6.390625 
Q 39.453125 6.390625 43.28125 13.890625 
Q 47.125 21.390625 47.125 36.375 
Q 47.125 51.421875 43.28125 58.90625 
Q 39.453125 66.40625 31.78125 66.40625 
z
M 31.78125 74.21875 
Q 44.046875 74.21875 50.515625 64.515625 
Q 56.984375 54.828125 56.984375 36.375 
Q 56.984375 17.96875 50.515625 8.265625 
Q 44.046875 -1.421875 31.78125 -1.421875 
Q 19.53125 -1.421875 13.0625 8.265625 
Q 6.59375 17.96875 6.59375 36.375 
Q 6.59375 54.828125 13.0625 64.515625 
Q 19.53125 74.21875 31.78125 74.21875 
z
" id="DejaVuSans-48"/>
      </defs>
      <g transform="translate(142.008982 322.182437)scale(0.1 -0.1)">
       <use xlink:href="#DejaVuSans-48"/>
      </g>
     </g>
    </g>
    <g id="xtick_4">
     <g id="line2d_4">
      <g>
       <use style="stroke:#000000;stroke-width:0.8;" x="185.77205" xlink:href="#m8ee88949b0" y="307.584"/>
      </g>
     </g>
     <g id="text_4">
      <!-- 1 -->
      <g transform="translate(182.5908 322.182437)scale(0.1 -0.1)">
       <use xlink:href="#DejaVuSans-49"/>
      </g>
     </g>
    </g>
    <g id="xtick_5">
     <g id="line2d_5">
      <g>
       <use style="stroke:#000000;stroke-width:0.8;" x="226.353869" xlink:href="#m8ee88949b0" y="307.584"/>
      </g>
     </g>
     <g id="text_5">
      <!-- 2 -->
      <g transform="translate(223.172619 322.182437)scale(0.1 -0.1)">
       <use xlink:href="#DejaVuSans-50"/>
      </g>
     </g>
    </g>
    <g id="xtick_6">
     <g id="line2d_6">
      <g>
       <use style="stroke:#000000;stroke-width:0.8;" x="266.935687" xlink:href="#m8ee88949b0" y="307.584"/>
      </g>
     </g>
     <g id="text_6">
      <!-- 3 -->
      <defs>
       <path d="M 40.578125 39.3125 
Q 47.65625 37.796875 51.625 33 
Q 55.609375 28.21875 55.609375 21.1875 
Q 55.609375 10.40625 48.1875 4.484375 
Q 40.765625 -1.421875 27.09375 -1.421875 
Q 22.515625 -1.421875 17.65625 -0.515625 
Q 12.796875 0.390625 7.625 2.203125 
L 7.625 11.71875 
Q 11.71875 9.328125 16.59375 8.109375 
Q 21.484375 6.890625 26.8125 6.890625 
Q 36.078125 6.890625 40.9375 10.546875 
Q 45.796875 14.203125 45.796875 21.1875 
Q 45.796875 27.640625 41.28125 31.265625 
Q 36.765625 34.90625 28.71875 34.90625 
L 20.21875 34.90625 
L 20.21875 43.015625 
L 29.109375 43.015625 
Q 36.375 43.015625 40.234375 45.921875 
Q 44.09375 48.828125 44.09375 54.296875 
Q 44.09375 59.90625 40.109375 62.90625 
Q 36.140625 65.921875 28.71875 65.921875 
Q 24.65625 65.921875 20.015625 65.03125 
Q 15.375 64.15625 9.8125 62.3125 
L 9.8125 71.09375 
Q 15.4375 72.65625 20.34375 73.4375 
Q 25.25 74.21875 29.59375 74.21875 
Q 40.828125 74.21875 47.359375 69.109375 
Q 53.90625 64.015625 53.90625 55.328125 
Q 53.90625 49.265625 50.4375 45.09375 
Q 46.96875 40.921875 40.578125 39.3125 
z
" id="DejaVuSans-51"/>
      </defs>
      <g transform="translate(263.754437 322.182437)scale(0.1 -0.1)">
       <use xlink:href="#DejaVuSans-51"/>
      </g>
     </g>
    </g>
    <g id="xtick_7">
     <g id="line2d_7">
      <g>
       <use style="stroke:#000000;stroke-width:0.8;" x="307.517505" xlink:href="#m8ee88949b0" y="307.584"/>
      </g>
     </g>
     <g id="text_7">
      <!-- 4 -->
      <defs>
       <path d="M 37.796875 64.3125 
L 12.890625 25.390625 
L 37.796875 25.390625 
z
M 35.203125 72.90625 
L 47.609375 72.90625 
L 47.609375 25.390625 
L 58.015625 25.390625 
L 58.015625 17.1875 
L 47.609375 17.1875 
L 47.609375 0 
L 37.796875 0 
L 37.796875 17.1875 
L 4.890625 17.1875 
L 4.890625 26.703125 
z
" id="DejaVuSans-52"/>
      </defs>
      <g transform="translate(304.336255 322.182437)scale(0.1 -0.1)">
       <use xlink:href="#DejaVuSans-52"/>
      </g>
     </g>
    </g>
    <g id="xtick_8">
     <g id="line2d_8">
      <g>
       <use style="stroke:#000000;stroke-width:0.8;" x="348.099323" xlink:href="#m8ee88949b0" y="307.584"/>
      </g>
     </g>
     <g id="text_8">
      <!-- 5 -->
      <defs>
       <path d="M 10.796875 72.90625 
L 49.515625 72.90625 
L 49.515625 64.59375 
L 19.828125 64.59375 
L 19.828125 46.734375 
Q 21.96875 47.46875 24.109375 47.828125 
Q 26.265625 48.1875 28.421875 48.1875 
Q 40.625 48.1875 47.75 41.5 
Q 54.890625 34.8125 54.890625 23.390625 
Q 54.890625 11.625 47.5625 5.09375 
Q 40.234375 -1.421875 26.90625 -1.421875 
Q 22.3125 -1.421875 17.546875 -0.640625 
Q 12.796875 0.140625 7.71875 1.703125 
L 7.71875 11.625 
Q 12.109375 9.234375 16.796875 8.0625 
Q 21.484375 6.890625 26.703125 6.890625 
Q 35.15625 6.890625 40.078125 11.328125 
Q 45.015625 15.765625 45.015625 23.390625 
Q 45.015625 31 40.078125 35.4375 
Q 35.15625 39.890625 26.703125 39.890625 
Q 22.75 39.890625 18.8125 39.015625 
Q 14.890625 38.140625 10.796875 36.28125 
z
" id="DejaVuSans-53"/>
      </defs>
      <g transform="translate(344.918073 322.182437)scale(0.1 -0.1)">
       <use xlink:href="#DejaVuSans-53"/>
      </g>
     </g>
    </g>
    <g id="xtick_9">
     <g id="line2d_9">
      <g>
       <use style="stroke:#000000;stroke-width:0.8;" x="388.681141" xlink:href="#m8ee88949b0" y="307.584"/>
      </g>
     </g>
     <g id="text_9">
      <!-- 6 -->
      <defs>
       <path d="M 33.015625 40.375 
Q 26.375 40.375 22.484375 35.828125 
Q 18.609375 31.296875 18.609375 23.390625 
Q 18.609375 15.53125 22.484375 10.953125 
Q 26.375 6.390625 33.015625 6.390625 
Q 39.65625 6.390625 43.53125 10.953125 
Q 47.40625 15.53125 47.40625 23.390625 
Q 47.40625 31.296875 43.53125 35.828125 
Q 39.65625 40.375 33.015625 40.375 
z
M 52.59375 71.296875 
L 52.59375 62.3125 
Q 48.875 64.0625 45.09375 64.984375 
Q 41.3125 65.921875 37.59375 65.921875 
Q 27.828125 65.921875 22.671875 59.328125 
Q 17.53125 52.734375 16.796875 39.40625 
Q 19.671875 43.65625 24.015625 45.921875 
Q 28.375 48.1875 33.59375 48.1875 
Q 44.578125 48.1875 50.953125 41.515625 
Q 57.328125 34.859375 57.328125 23.390625 
Q 57.328125 12.15625 50.6875 5.359375 
Q 44.046875 -1.421875 33.015625 -1.421875 
Q 20.359375 -1.421875 13.671875 8.265625 
Q 6.984375 17.96875 6.984375 36.375 
Q 6.984375 53.65625 15.1875 63.9375 
Q 23.390625 74.21875 37.203125 74.21875 
Q 40.921875 74.21875 44.703125 73.484375 
Q 48.484375 72.75 52.59375 71.296875 
z
" id="DejaVuSans-54"/>
      </defs>
      <g transform="translate(385.499891 322.182437)scale(0.1 -0.1)">
       <use xlink:href="#DejaVuSans-54"/>
      </g>
     </g>
    </g>
    <g id="text_10">
     <!-- X1 -->
     <defs>
      <path d="M 6.296875 72.90625 
L 16.890625 72.90625 
L 35.015625 45.796875 
L 53.21875 72.90625 
L 63.8125 72.90625 
L 40.375 37.890625 
L 65.375 0 
L 54.78125 0 
L 34.28125 31 
L 13.625 0 
L 2.984375 0 
L 29 38.921875 
z
" id="DejaVuSans-88"/>
     </defs>
     <g transform="translate(229.55375 335.860562)scale(0.1 -0.1)">
      <use xlink:href="#DejaVuSans-88"/>
      <use x="68.505859" xlink:href="#DejaVuSans-49"/>
     </g>
    </g>
   </g>
   <g id="matplotlib.axis_2">
    <g id="ytick_1">
     <g id="line2d_10">
      <defs>
       <path d="M 0 0 
L -3.5 0 
" id="m585b9e6a37" style="stroke:#000000;stroke-width:0.8;"/>
      </defs>
      <g>
       <use style="stroke:#000000;stroke-width:0.8;" x="57.6" xlink:href="#m585b9e6a37" y="281.314535"/>
      </g>
     </g>
     <g id="text_11">
      <!-- −2 -->
      <g transform="translate(35.857813 285.113753)scale(0.1 -0.1)">
       <use xlink:href="#DejaVuSans-8722"/>
       <use x="83.789062" xlink:href="#DejaVuSans-50"/>
      </g>
     </g>
    </g>
    <g id="ytick_2">
     <g id="line2d_11">
      <g>
       <use style="stroke:#000000;stroke-width:0.8;" x="57.6" xlink:href="#m585b9e6a37" y="240.767121"/>
      </g>
     </g>
     <g id="text_12">
      <!-- 0 -->
      <g transform="translate(44.2375 244.56634)scale(0.1 -0.1)">
       <use xlink:href="#DejaVuSans-48"/>
      </g>
     </g>
    </g>
    <g id="ytick_3">
     <g id="line2d_12">
      <g>
       <use style="stroke:#000000;stroke-width:0.8;" x="57.6" xlink:href="#m585b9e6a37" y="200.219708"/>
      </g>
     </g>
     <g id="text_13">
      <!-- 2 -->
      <g transform="translate(44.2375 204.018926)scale(0.1 -0.1)">
       <use xlink:href="#DejaVuSans-50"/>
      </g>
     </g>
    </g>
    <g id="ytick_4">
     <g id="line2d_13">
      <g>
       <use style="stroke:#000000;stroke-width:0.8;" x="57.6" xlink:href="#m585b9e6a37" y="159.672294"/>
      </g>
     </g>
     <g id="text_14">
      <!-- 4 -->
      <g transform="translate(44.2375 163.471513)scale(0.1 -0.1)">
       <use xlink:href="#DejaVuSans-52"/>
      </g>
     </g>
    </g>
    <g id="ytick_5">
     <g id="line2d_14">
      <g>
       <use style="stroke:#000000;stroke-width:0.8;" x="57.6" xlink:href="#m585b9e6a37" y="119.124881"/>
      </g>
     </g>
     <g id="text_15">
      <!-- 6 -->
      <g transform="translate(44.2375 122.924099)scale(0.1 -0.1)">
       <use xlink:href="#DejaVuSans-54"/>
      </g>
     </g>
    </g>
    <g id="ytick_6">
     <g id="line2d_15">
      <g>
       <use style="stroke:#000000;stroke-width:0.8;" x="57.6" xlink:href="#m585b9e6a37" y="78.577467"/>
      </g>
     </g>
     <g id="text_16">
      <!-- 8 -->
      <defs>
       <path d="M 31.78125 34.625 
Q 24.75 34.625 20.71875 30.859375 
Q 16.703125 27.09375 16.703125 20.515625 
Q 16.703125 13.921875 20.71875 10.15625 
Q 24.75 6.390625 31.78125 6.390625 
Q 38.8125 6.390625 42.859375 10.171875 
Q 46.921875 13.96875 46.921875 20.515625 
Q 46.921875 27.09375 42.890625 30.859375 
Q 38.875 34.625 31.78125 34.625 
z
M 21.921875 38.8125 
Q 15.578125 40.375 12.03125 44.71875 
Q 8.5 49.078125 8.5 55.328125 
Q 8.5 64.0625 14.71875 69.140625 
Q 20.953125 74.21875 31.78125 74.21875 
Q 42.671875 74.21875 48.875 69.140625 
Q 55.078125 64.0625 55.078125 55.328125 
Q 55.078125 49.078125 51.53125 44.71875 
Q 48 40.375 41.703125 38.8125 
Q 48.828125 37.15625 52.796875 32.3125 
Q 56.78125 27.484375 56.78125 20.515625 
Q 56.78125 9.90625 50.3125 4.234375 
Q 43.84375 -1.421875 31.78125 -1.421875 
Q 19.734375 -1.421875 13.25 4.234375 
Q 6.78125 9.90625 6.78125 20.515625 
Q 6.78125 27.484375 10.78125 32.3125 
Q 14.796875 37.15625 21.921875 38.8125 
z
M 18.3125 54.390625 
Q 18.3125 48.734375 21.84375 45.5625 
Q 25.390625 42.390625 31.78125 42.390625 
Q 38.140625 42.390625 41.71875 45.5625 
Q 45.3125 48.734375 45.3125 54.390625 
Q 45.3125 60.0625 41.71875 63.234375 
Q 38.140625 66.40625 31.78125 66.40625 
Q 25.390625 66.40625 21.84375 63.234375 
Q 18.3125 60.0625 18.3125 54.390625 
z
" id="DejaVuSans-56"/>
      </defs>
      <g transform="translate(44.2375 82.376686)scale(0.1 -0.1)">
       <use xlink:href="#DejaVuSans-56"/>
      </g>
     </g>
    </g>
    <g id="text_17">
     <!-- X2 -->
     <g transform="translate(29.778125 181.13425)rotate(-90)scale(0.1 -0.1)">
      <use xlink:href="#DejaVuSans-88"/>
      <use x="68.505859" xlink:href="#DejaVuSans-50"/>
     </g>
    </g>
   </g>
   <g id="line2d_16">
    <path clip-path="url(#p7185475118)" d="M 73.832727 295.488 
L 77.890909 292.464 
L 81.949091 289.44 
L 86.007273 286.416 
L 90.065455 283.392 
L 94.123636 280.368 
L 98.181818 277.344 
L 102.24 274.32 
L 106.298182 271.296 
L 110.356364 268.272 
L 114.414545 265.248 
L 118.472727 262.224 
L 122.530909 259.2 
L 126.589091 256.176 
L 130.647273 253.152 
L 134.705455 250.128 
L 138.763636 247.104 
L 142.821818 244.08 
L 146.88 241.056 
L 150.938182 238.032 
L 154.996364 235.008 
L 159.054545 231.984 
L 163.112727 228.96 
L 167.170909 225.936 
L 171.229091 222.912 
L 175.287273 219.888 
L 179.345455 216.864 
L 183.403636 213.84 
L 187.461818 210.816 
L 191.52 207.792 
L 195.578182 204.768 
L 199.636364 201.744 
L 203.694545 198.72 
L 207.752727 195.696 
L 211.810909 192.672 
L 215.869091 189.648 
L 219.927273 186.624 
L 223.985455 183.6 
L 228.043636 180.576 
L 232.101818 177.552 
L 236.16 174.528 
L 240.218182 171.504 
L 244.276364 168.48 
L 248.334545 165.456 
L 252.392727 162.432 
L 256.450909 159.408 
L 260.509091 156.384 
L 264.567273 153.36 
L 268.625455 150.336 
L 272.683636 147.312 
L 276.741818 144.288 
L 280.8 141.264 
L 284.858182 138.24 
L 288.916364 135.216 
L 292.974545 132.192 
L 297.032727 129.168 
L 301.090909 126.144 
L 305.149091 123.12 
L 309.207273 120.096 
L 313.265455 117.072 
L 317.323636 114.048 
L 321.381818 111.024 
L 325.44 108 
L 329.498182 104.976 
L 333.556364 101.952 
L 337.614545 98.928 
L 341.672727 95.904 
L 345.730909 92.88 
L 349.789091 89.856 
L 353.847273 86.832 
L 357.905455 83.808 
L 361.963636 80.784 
L 366.021818 77.76 
L 370.08 74.736 
L 374.138182 71.712 
L 378.196364 68.688 
L 382.254545 65.664 
L 386.312727 62.64 
L 390.370909 59.616 
L 394.429091 56.592 
L 398.487273 53.568 
" style="fill:none;stroke:#1f77b4;stroke-linecap:square;stroke-width:1.5;"/>
   </g>
   <g id="patch_3">
    <path d="M 57.6 307.584 
L 57.6 41.472 
" style="fill:none;stroke:#000000;stroke-linecap:square;stroke-linejoin:miter;stroke-width:0.8;"/>
   </g>
   <g id="patch_4">
    <path d="M 414.72 307.584 
L 414.72 41.472 
" style="fill:none;stroke:#000000;stroke-linecap:square;stroke-linejoin:miter;stroke-width:0.8;"/>
   </g>
   <g id="patch_5">
    <path d="M 57.6 307.584 
L 414.72 307.584 
" style="fill:none;stroke:#000000;stroke-linecap:square;stroke-linejoin:miter;stroke-width:0.8;"/>
   </g>
   <g id="patch_6">
    <path d="M 57.6 41.472 
L 414.72 41.472 
" style="fill:none;stroke:#000000;stroke-linecap:square;stroke-linejoin:miter;stroke-width:0.8;"/>
   </g>
  </g>
 </g>
 <defs>
  <clipPath id="p7185475118">
   <rect height="266.112" width="357.12" x="57.6" y="41.472"/>
  </clipPath>
 </defs>
</svg>
