<?xml version="1.0" encoding="utf-8" standalone="no"?>
<!DOCTYPE svg PUBLIC "-//W3C//DTD SVG 1.1//EN"
  "http://www.w3.org/Graphics/SVG/1.1/DTD/svg11.dtd">
<!-- Created with matplotlib (https://matplotlib.org/) -->
<svg height="345.6pt" version="1.1" viewBox="0 0 460.8 345.6" width="460.8pt" xmlns="http://www.w3.org/2000/svg" xmlns:xlink="http://www.w3.org/1999/xlink">
 <defs>
  <style type="text/css">
*{stroke-linecap:butt;stroke-linejoin:round;}
  </style>
 </defs>
 <g id="figure_1">
  <g id="patch_1">
   <path d="M 0 345.6 
L 460.8 345.6 
L 460.8 0 
L 0 0 
z
" style="fill:#ffffff;"/>
  </g>
  <g id="axes_1">
   <g id="patch_2">
    <path d="M 57.6 307.584 
L 414.72 307.584 
L 414.72 41.472 
L 57.6 41.472 
z
" style="fill:#ffffff;"/>
   </g>
   <g id="PathCollection_1">
    <defs>
     <path d="M 0 3 
C 0.795609 3 1.55874 2.683901 2.12132 2.12132 
C 2.683901 1.55874 3 0.795609 3 0 
C 3 -0.795609 2.683901 -1.55874 2.12132 -2.12132 
C 1.55874 -2.683901 0.795609 -3 0 -3 
C -0.795609 -3 -1.55874 -2.683901 -2.12132 -2.12132 
C -2.683901 -1.55874 -3 -0.795609 -3 0 
C -3 0.795609 -2.683901 1.55874 -2.12132 2.12132 
C -1.55874 2.683901 -0.795609 3 0 3 
z
" id="mce4f68dcf1" style="stroke:#1f77b4;"/>
    </defs>
    <g clip-path="url(#p4fb1b9aedd)">
     <use style="fill:#1f77b4;stroke:#1f77b4;" x="169.845168" xlink:href="#mce4f68dcf1" y="172.616913"/>
     <use style="fill:#1f77b4;stroke:#1f77b4;" x="171.504922" xlink:href="#mce4f68dcf1" y="188.986556"/>
     <use style="fill:#1f77b4;stroke:#1f77b4;" x="184.399491" xlink:href="#mce4f68dcf1" y="203.096322"/>
     <use style="fill:#1f77b4;stroke:#1f77b4;" x="136.657599" xlink:href="#mce4f68dcf1" y="155.293825"/>
     <use style="fill:#1f77b4;stroke:#1f77b4;" x="154.669732" xlink:href="#mce4f68dcf1" y="130.933385"/>
     <use style="fill:#1f77b4;stroke:#1f77b4;" x="149.803133" xlink:href="#mce4f68dcf1" y="188.551733"/>
     <use style="fill:#1f77b4;stroke:#1f77b4;" x="146.427426" xlink:href="#mce4f68dcf1" y="133.888432"/>
     <use style="fill:#1f77b4;stroke:#1f77b4;" x="188.48947" xlink:href="#mce4f68dcf1" y="187.964905"/>
     <use style="fill:#1f77b4;stroke:#1f77b4;" x="153.577745" xlink:href="#mce4f68dcf1" y="204.403056"/>
     <use style="fill:#1f77b4;stroke:#1f77b4;" x="174.700919" xlink:href="#mce4f68dcf1" y="159.418323"/>
     <use style="fill:#1f77b4;stroke:#1f77b4;" x="135.581209" xlink:href="#mce4f68dcf1" y="205.183599"/>
     <use style="fill:#1f77b4;stroke:#1f77b4;" x="141.43185" xlink:href="#mce4f68dcf1" y="212.816226"/>
     <use style="fill:#1f77b4;stroke:#1f77b4;" x="180.240337" xlink:href="#mce4f68dcf1" y="169.473807"/>
     <use style="fill:#1f77b4;stroke:#1f77b4;" x="170.25814" xlink:href="#mce4f68dcf1" y="189.204604"/>
     <use style="fill:#1f77b4;stroke:#1f77b4;" x="171.16671" xlink:href="#mce4f68dcf1" y="182.227509"/>
     <use style="fill:#1f77b4;stroke:#1f77b4;" x="155.299722" xlink:href="#mce4f68dcf1" y="189.971204"/>
     <use style="fill:#1f77b4;stroke:#1f77b4;" x="144.781544" xlink:href="#mce4f68dcf1" y="110.255439"/>
     <use style="fill:#1f77b4;stroke:#1f77b4;" x="165.873518" xlink:href="#mce4f68dcf1" y="172.677016"/>
     <use style="fill:#1f77b4;stroke:#1f77b4;" x="114.237331" xlink:href="#mce4f68dcf1" y="151.12126"/>
     <use style="fill:#1f77b4;stroke:#1f77b4;" x="158.550941" xlink:href="#mce4f68dcf1" y="186.201092"/>
     <use style="fill:#1f77b4;stroke:#1f77b4;" x="141.62061" xlink:href="#mce4f68dcf1" y="189.964006"/>
     <use style="fill:#1f77b4;stroke:#1f77b4;" x="143.796409" xlink:href="#mce4f68dcf1" y="154.472779"/>
     <use style="fill:#1f77b4;stroke:#1f77b4;" x="172.508824" xlink:href="#mce4f68dcf1" y="194.914246"/>
     <use style="fill:#1f77b4;stroke:#1f77b4;" x="148.70146" xlink:href="#mce4f68dcf1" y="181.138426"/>
     <use style="fill:#1f77b4;stroke:#1f77b4;" x="173.29203" xlink:href="#mce4f68dcf1" y="196.813966"/>
     <use style="fill:#1f77b4;stroke:#1f77b4;" x="209.963783" xlink:href="#mce4f68dcf1" y="192.809049"/>
     <use style="fill:#1f77b4;stroke:#1f77b4;" x="140.310925" xlink:href="#mce4f68dcf1" y="176.525796"/>
     <use style="fill:#1f77b4;stroke:#1f77b4;" x="143.356824" xlink:href="#mce4f68dcf1" y="181.023573"/>
     <use style="fill:#1f77b4;stroke:#1f77b4;" x="154.579582" xlink:href="#mce4f68dcf1" y="142.003797"/>
     <use style="fill:#1f77b4;stroke:#1f77b4;" x="165.585696" xlink:href="#mce4f68dcf1" y="175.070589"/>
     <use style="fill:#1f77b4;stroke:#1f77b4;" x="153.890196" xlink:href="#mce4f68dcf1" y="218.297228"/>
     <use style="fill:#1f77b4;stroke:#1f77b4;" x="174.106617" xlink:href="#mce4f68dcf1" y="194.638752"/>
     <use style="fill:#1f77b4;stroke:#1f77b4;" x="143.612973" xlink:href="#mce4f68dcf1" y="173.384388"/>
     <use style="fill:#1f77b4;stroke:#1f77b4;" x="120.752857" xlink:href="#mce4f68dcf1" y="167.047048"/>
     <use style="fill:#1f77b4;stroke:#1f77b4;" x="168.101972" xlink:href="#mce4f68dcf1" y="156.118551"/>
     <use style="fill:#1f77b4;stroke:#1f77b4;" x="186.040371" xlink:href="#mce4f68dcf1" y="188.34786"/>
     <use style="fill:#1f77b4;stroke:#1f77b4;" x="112.482078" xlink:href="#mce4f68dcf1" y="166.819169"/>
     <use style="fill:#1f77b4;stroke:#1f77b4;" x="174.954941" xlink:href="#mce4f68dcf1" y="185.39541"/>
     <use style="fill:#1f77b4;stroke:#1f77b4;" x="173.865413" xlink:href="#mce4f68dcf1" y="155.061912"/>
     <use style="fill:#1f77b4;stroke:#1f77b4;" x="167.752903" xlink:href="#mce4f68dcf1" y="199.763027"/>
     <use style="fill:#1f77b4;stroke:#1f77b4;" x="172.012512" xlink:href="#mce4f68dcf1" y="176.349994"/>
     <use style="fill:#1f77b4;stroke:#1f77b4;" x="184.683407" xlink:href="#mce4f68dcf1" y="203.385375"/>
     <use style="fill:#1f77b4;stroke:#1f77b4;" x="163.273178" xlink:href="#mce4f68dcf1" y="173.435087"/>
     <use style="fill:#1f77b4;stroke:#1f77b4;" x="168.957476" xlink:href="#mce4f68dcf1" y="160.25817"/>
     <use style="fill:#1f77b4;stroke:#1f77b4;" x="183.462719" xlink:href="#mce4f68dcf1" y="154.394361"/>
     <use style="fill:#1f77b4;stroke:#1f77b4;" x="174.130935" xlink:href="#mce4f68dcf1" y="159.812328"/>
     <use style="fill:#1f77b4;stroke:#1f77b4;" x="160.295116" xlink:href="#mce4f68dcf1" y="159.922847"/>
     <use style="fill:#1f77b4;stroke:#1f77b4;" x="181.84037" xlink:href="#mce4f68dcf1" y="203.369981"/>
     <use style="fill:#1f77b4;stroke:#1f77b4;" x="163.314328" xlink:href="#mce4f68dcf1" y="181.41536"/>
     <use style="fill:#1f77b4;stroke:#1f77b4;" x="175.173776" xlink:href="#mce4f68dcf1" y="115.015508"/>
    </g>
   </g>
   <g id="PathCollection_2">
    <defs>
     <path d="M 0 3 
C 0.795609 3 1.55874 2.683901 2.12132 2.12132 
C 2.683901 1.55874 3 0.795609 3 0 
C 3 -0.795609 2.683901 -1.55874 2.12132 -2.12132 
C 1.55874 -2.683901 0.795609 -3 0 -3 
C -0.795609 -3 -1.55874 -2.683901 -2.12132 -2.12132 
C -2.683901 -1.55874 -3 -0.795609 -3 0 
C -3 0.795609 -2.683901 1.55874 -2.12132 2.12132 
C -1.55874 2.683901 -0.795609 3 0 3 
z
" id="m668d09355f" style="stroke:#ff7f0e;"/>
    </defs>
    <g clip-path="url(#p4fb1b9aedd)">
     <use style="fill:#ff7f0e;stroke:#ff7f0e;" x="331.760979" xlink:href="#m668d09355f" y="205.484349"/>
     <use style="fill:#ff7f0e;stroke:#ff7f0e;" x="354.230799" xlink:href="#m668d09355f" y="176.644871"/>
     <use style="fill:#ff7f0e;stroke:#ff7f0e;" x="291.061978" xlink:href="#m668d09355f" y="172.421567"/>
     <use style="fill:#ff7f0e;stroke:#ff7f0e;" x="308.77982" xlink:href="#m668d09355f" y="176.00478"/>
     <use style="fill:#ff7f0e;stroke:#ff7f0e;" x="333.800833" xlink:href="#m668d09355f" y="145.727533"/>
     <use style="fill:#ff7f0e;stroke:#ff7f0e;" x="328.690232" xlink:href="#m668d09355f" y="202.199315"/>
     <use style="fill:#ff7f0e;stroke:#ff7f0e;" x="304.003256" xlink:href="#m668d09355f" y="184.870333"/>
     <use style="fill:#ff7f0e;stroke:#ff7f0e;" x="318.216772" xlink:href="#m668d09355f" y="149.836912"/>
     <use style="fill:#ff7f0e;stroke:#ff7f0e;" x="341.002603" xlink:href="#m668d09355f" y="182.854464"/>
     <use style="fill:#ff7f0e;stroke:#ff7f0e;" x="314.588944" xlink:href="#m668d09355f" y="191.466262"/>
     <use style="fill:#ff7f0e;stroke:#ff7f0e;" x="309.076232" xlink:href="#m668d09355f" y="128.144209"/>
     <use style="fill:#ff7f0e;stroke:#ff7f0e;" x="307.494111" xlink:href="#m668d09355f" y="157.666968"/>
     <use style="fill:#ff7f0e;stroke:#ff7f0e;" x="321.2585" xlink:href="#m668d09355f" y="216.642191"/>
     <use style="fill:#ff7f0e;stroke:#ff7f0e;" x="326.408259" xlink:href="#m668d09355f" y="140.958965"/>
     <use style="fill:#ff7f0e;stroke:#ff7f0e;" x="326.854623" xlink:href="#m668d09355f" y="158.606826"/>
     <use style="fill:#ff7f0e;stroke:#ff7f0e;" x="298.890956" xlink:href="#m668d09355f" y="161.378841"/>
     <use style="fill:#ff7f0e;stroke:#ff7f0e;" x="304.970744" xlink:href="#m668d09355f" y="202.415694"/>
     <use style="fill:#ff7f0e;stroke:#ff7f0e;" x="360.279051" xlink:href="#m668d09355f" y="175.930052"/>
     <use style="fill:#ff7f0e;stroke:#ff7f0e;" x="308.949963" xlink:href="#m668d09355f" y="212.933489"/>
     <use style="fill:#ff7f0e;stroke:#ff7f0e;" x="346.358124" xlink:href="#m668d09355f" y="161.905871"/>
     <use style="fill:#ff7f0e;stroke:#ff7f0e;" x="313.735937" xlink:href="#m668d09355f" y="168.475762"/>
     <use style="fill:#ff7f0e;stroke:#ff7f0e;" x="307.068617" xlink:href="#m668d09355f" y="189.594578"/>
     <use style="fill:#ff7f0e;stroke:#ff7f0e;" x="316.153199" xlink:href="#m668d09355f" y="170.738392"/>
     <use style="fill:#ff7f0e;stroke:#ff7f0e;" x="321.290867" xlink:href="#m668d09355f" y="125.872414"/>
     <use style="fill:#ff7f0e;stroke:#ff7f0e;" x="302.212505" xlink:href="#m668d09355f" y="208.560235"/>
     <use style="fill:#ff7f0e;stroke:#ff7f0e;" x="318.443294" xlink:href="#m668d09355f" y="185.991568"/>
     <use style="fill:#ff7f0e;stroke:#ff7f0e;" x="312.82615" xlink:href="#m668d09355f" y="177.03172"/>
     <use style="fill:#ff7f0e;stroke:#ff7f0e;" x="297.854248" xlink:href="#m668d09355f" y="201.761797"/>
     <use style="fill:#ff7f0e;stroke:#ff7f0e;" x="341.913874" xlink:href="#m668d09355f" y="141.92383"/>
     <use style="fill:#ff7f0e;stroke:#ff7f0e;" x="305.264766" xlink:href="#m668d09355f" y="143.52446"/>
     <use style="fill:#ff7f0e;stroke:#ff7f0e;" x="321.431333" xlink:href="#m668d09355f" y="168.765915"/>
     <use style="fill:#ff7f0e;stroke:#ff7f0e;" x="305.300663" xlink:href="#m668d09355f" y="181.560962"/>
     <use style="fill:#ff7f0e;stroke:#ff7f0e;" x="321.033952" xlink:href="#m668d09355f" y="146.570644"/>
     <use style="fill:#ff7f0e;stroke:#ff7f0e;" x="323.34227" xlink:href="#m668d09355f" y="227.724221"/>
     <use style="fill:#ff7f0e;stroke:#ff7f0e;" x="307.735183" xlink:href="#m668d09355f" y="200.349431"/>
     <use style="fill:#ff7f0e;stroke:#ff7f0e;" x="293.345419" xlink:href="#m668d09355f" y="183.728719"/>
     <use style="fill:#ff7f0e;stroke:#ff7f0e;" x="303.526471" xlink:href="#m668d09355f" y="153.116942"/>
     <use style="fill:#ff7f0e;stroke:#ff7f0e;" x="301.106013" xlink:href="#m668d09355f" y="169.695292"/>
     <use style="fill:#ff7f0e;stroke:#ff7f0e;" x="306.333302" xlink:href="#m668d09355f" y="160.993024"/>
     <use style="fill:#ff7f0e;stroke:#ff7f0e;" x="315.853272" xlink:href="#m668d09355f" y="153.302462"/>
     <use style="fill:#ff7f0e;stroke:#ff7f0e;" x="347.06137" xlink:href="#m668d09355f" y="143.806789"/>
     <use style="fill:#ff7f0e;stroke:#ff7f0e;" x="351.58794" xlink:href="#m668d09355f" y="181.06352"/>
     <use style="fill:#ff7f0e;stroke:#ff7f0e;" x="338.803811" xlink:href="#m668d09355f" y="178.563021"/>
     <use style="fill:#ff7f0e;stroke:#ff7f0e;" x="312.436939" xlink:href="#m668d09355f" y="160.107255"/>
     <use style="fill:#ff7f0e;stroke:#ff7f0e;" x="317.002822" xlink:href="#m668d09355f" y="178.771875"/>
     <use style="fill:#ff7f0e;stroke:#ff7f0e;" x="299.457965" xlink:href="#m668d09355f" y="176.899621"/>
     <use style="fill:#ff7f0e;stroke:#ff7f0e;" x="293.823705" xlink:href="#m668d09355f" y="195.577999"/>
     <use style="fill:#ff7f0e;stroke:#ff7f0e;" x="303.368697" xlink:href="#m668d09355f" y="152.922386"/>
     <use style="fill:#ff7f0e;stroke:#ff7f0e;" x="312.286913" xlink:href="#m668d09355f" y="183.475539"/>
     <use style="fill:#ff7f0e;stroke:#ff7f0e;" x="335.01127" xlink:href="#m668d09355f" y="195.003248"/>
    </g>
   </g>
   <g id="matplotlib.axis_1">
    <g id="xtick_1">
     <g id="line2d_1">
      <defs>
       <path d="M 0 0 
L 0 3.5 
" id="m6da7078d2b" style="stroke:#000000;stroke-width:0.8;"/>
      </defs>
      <g>
       <use style="stroke:#000000;stroke-width:0.8;" x="83.10461" xlink:href="#m6da7078d2b" y="307.584"/>
      </g>
     </g>
     <g id="text_1">
      <!-- 2 -->
      <defs>
       <path d="M 19.1875 8.296875 
L 53.609375 8.296875 
L 53.609375 0 
L 7.328125 0 
L 7.328125 8.296875 
Q 12.9375 14.109375 22.625 23.890625 
Q 32.328125 33.6875 34.8125 36.53125 
Q 39.546875 41.84375 41.421875 45.53125 
Q 43.3125 49.21875 43.3125 52.78125 
Q 43.3125 58.59375 39.234375 62.25 
Q 35.15625 65.921875 28.609375 65.921875 
Q 23.96875 65.921875 18.8125 64.3125 
Q 13.671875 62.703125 7.8125 59.421875 
L 7.8125 69.390625 
Q 13.765625 71.78125 18.9375 73 
Q 24.125 74.21875 28.421875 74.21875 
Q 39.75 74.21875 46.484375 68.546875 
Q 53.21875 62.890625 53.21875 53.421875 
Q 53.21875 48.921875 51.53125 44.890625 
Q 49.859375 40.875 45.40625 35.40625 
Q 44.1875 33.984375 37.640625 27.21875 
Q 31.109375 20.453125 19.1875 8.296875 
z
" id="DejaVuSans-50"/>
      </defs>
      <g transform="translate(79.92336 322.182437)scale(0.1 -0.1)">
       <use xlink:href="#DejaVuSans-50"/>
      </g>
     </g>
    </g>
    <g id="xtick_2">
     <g id="line2d_2">
      <g>
       <use style="stroke:#000000;stroke-width:0.8;" x="160.403311" xlink:href="#m6da7078d2b" y="307.584"/>
      </g>
     </g>
     <g id="text_2">
      <!-- 4 -->
      <defs>
       <path d="M 37.796875 64.3125 
L 12.890625 25.390625 
L 37.796875 25.390625 
z
M 35.203125 72.90625 
L 47.609375 72.90625 
L 47.609375 25.390625 
L 58.015625 25.390625 
L 58.015625 17.1875 
L 47.609375 17.1875 
L 47.609375 0 
L 37.796875 0 
L 37.796875 17.1875 
L 4.890625 17.1875 
L 4.890625 26.703125 
z
" id="DejaVuSans-52"/>
      </defs>
      <g transform="translate(157.222061 322.182437)scale(0.1 -0.1)">
       <use xlink:href="#DejaVuSans-52"/>
      </g>
     </g>
    </g>
    <g id="xtick_3">
     <g id="line2d_3">
      <g>
       <use style="stroke:#000000;stroke-width:0.8;" x="237.702013" xlink:href="#m6da7078d2b" y="307.584"/>
      </g>
     </g>
     <g id="text_3">
      <!-- 6 -->
      <defs>
       <path d="M 33.015625 40.375 
Q 26.375 40.375 22.484375 35.828125 
Q 18.609375 31.296875 18.609375 23.390625 
Q 18.609375 15.53125 22.484375 10.953125 
Q 26.375 6.390625 33.015625 6.390625 
Q 39.65625 6.390625 43.53125 10.953125 
Q 47.40625 15.53125 47.40625 23.390625 
Q 47.40625 31.296875 43.53125 35.828125 
Q 39.65625 40.375 33.015625 40.375 
z
M 52.59375 71.296875 
L 52.59375 62.3125 
Q 48.875 64.0625 45.09375 64.984375 
Q 41.3125 65.921875 37.59375 65.921875 
Q 27.828125 65.921875 22.671875 59.328125 
Q 17.53125 52.734375 16.796875 39.40625 
Q 19.671875 43.65625 24.015625 45.921875 
Q 28.375 48.1875 33.59375 48.1875 
Q 44.578125 48.1875 50.953125 41.515625 
Q 57.328125 34.859375 57.328125 23.390625 
Q 57.328125 12.15625 50.6875 5.359375 
Q 44.046875 -1.421875 33.015625 -1.421875 
Q 20.359375 -1.421875 13.671875 8.265625 
Q 6.984375 17.96875 6.984375 36.375 
Q 6.984375 53.65625 15.1875 63.9375 
Q 23.390625 74.21875 37.203125 74.21875 
Q 40.921875 74.21875 44.703125 73.484375 
Q 48.484375 72.75 52.59375 71.296875 
z
" id="DejaVuSans-54"/>
      </defs>
      <g transform="translate(234.520763 322.182437)scale(0.1 -0.1)">
       <use xlink:href="#DejaVuSans-54"/>
      </g>
     </g>
    </g>
    <g id="xtick_4">
     <g id="line2d_4">
      <g>
       <use style="stroke:#000000;stroke-width:0.8;" x="315.000714" xlink:href="#m6da7078d2b" y="307.584"/>
      </g>
     </g>
     <g id="text_4">
      <!-- 8 -->
      <defs>
       <path d="M 31.78125 34.625 
Q 24.75 34.625 20.71875 30.859375 
Q 16.703125 27.09375 16.703125 20.515625 
Q 16.703125 13.921875 20.71875 10.15625 
Q 24.75 6.390625 31.78125 6.390625 
Q 38.8125 6.390625 42.859375 10.171875 
Q 46.921875 13.96875 46.921875 20.515625 
Q 46.921875 27.09375 42.890625 30.859375 
Q 38.875 34.625 31.78125 34.625 
z
M 21.921875 38.8125 
Q 15.578125 40.375 12.03125 44.71875 
Q 8.5 49.078125 8.5 55.328125 
Q 8.5 64.0625 14.71875 69.140625 
Q 20.953125 74.21875 31.78125 74.21875 
Q 42.671875 74.21875 48.875 69.140625 
Q 55.078125 64.0625 55.078125 55.328125 
Q 55.078125 49.078125 51.53125 44.71875 
Q 48 40.375 41.703125 38.8125 
Q 48.828125 37.15625 52.796875 32.3125 
Q 56.78125 27.484375 56.78125 20.515625 
Q 56.78125 9.90625 50.3125 4.234375 
Q 43.84375 -1.421875 31.78125 -1.421875 
Q 19.734375 -1.421875 13.25 4.234375 
Q 6.78125 9.90625 6.78125 20.515625 
Q 6.78125 27.484375 10.78125 32.3125 
Q 14.796875 37.15625 21.921875 38.8125 
z
M 18.3125 54.390625 
Q 18.3125 48.734375 21.84375 45.5625 
Q 25.390625 42.390625 31.78125 42.390625 
Q 38.140625 42.390625 41.71875 45.5625 
Q 45.3125 48.734375 45.3125 54.390625 
Q 45.3125 60.0625 41.71875 63.234375 
Q 38.140625 66.40625 31.78125 66.40625 
Q 25.390625 66.40625 21.84375 63.234375 
Q 18.3125 60.0625 18.3125 54.390625 
z
" id="DejaVuSans-56"/>
      </defs>
      <g transform="translate(311.819464 322.182437)scale(0.1 -0.1)">
       <use xlink:href="#DejaVuSans-56"/>
      </g>
     </g>
    </g>
    <g id="xtick_5">
     <g id="line2d_5">
      <g>
       <use style="stroke:#000000;stroke-width:0.8;" x="392.299415" xlink:href="#m6da7078d2b" y="307.584"/>
      </g>
     </g>
     <g id="text_5">
      <!-- 10 -->
      <defs>
       <path d="M 12.40625 8.296875 
L 28.515625 8.296875 
L 28.515625 63.921875 
L 10.984375 60.40625 
L 10.984375 69.390625 
L 28.421875 72.90625 
L 38.28125 72.90625 
L 38.28125 8.296875 
L 54.390625 8.296875 
L 54.390625 0 
L 12.40625 0 
z
" id="DejaVuSans-49"/>
       <path d="M 31.78125 66.40625 
Q 24.171875 66.40625 20.328125 58.90625 
Q 16.5 51.421875 16.5 36.375 
Q 16.5 21.390625 20.328125 13.890625 
Q 24.171875 6.390625 31.78125 6.390625 
Q 39.453125 6.390625 43.28125 13.890625 
Q 47.125 21.390625 47.125 36.375 
Q 47.125 51.421875 43.28125 58.90625 
Q 39.453125 66.40625 31.78125 66.40625 
z
M 31.78125 74.21875 
Q 44.046875 74.21875 50.515625 64.515625 
Q 56.984375 54.828125 56.984375 36.375 
Q 56.984375 17.96875 50.515625 8.265625 
Q 44.046875 -1.421875 31.78125 -1.421875 
Q 19.53125 -1.421875 13.0625 8.265625 
Q 6.59375 17.96875 6.59375 36.375 
Q 6.59375 54.828125 13.0625 64.515625 
Q 19.53125 74.21875 31.78125 74.21875 
z
" id="DejaVuSans-48"/>
      </defs>
      <g transform="translate(385.936915 322.182437)scale(0.1 -0.1)">
       <use xlink:href="#DejaVuSans-49"/>
       <use x="63.623047" xlink:href="#DejaVuSans-48"/>
      </g>
     </g>
    </g>
    <g id="text_6">
     <!-- X1 -->
     <defs>
      <path d="M 6.296875 72.90625 
L 16.890625 72.90625 
L 35.015625 45.796875 
L 53.21875 72.90625 
L 63.8125 72.90625 
L 40.375 37.890625 
L 65.375 0 
L 54.78125 0 
L 34.28125 31 
L 13.625 0 
L 2.984375 0 
L 29 38.921875 
z
" id="DejaVuSans-88"/>
     </defs>
     <g transform="translate(229.55375 335.860562)scale(0.1 -0.1)">
      <use xlink:href="#DejaVuSans-88"/>
      <use x="68.505859" xlink:href="#DejaVuSans-49"/>
     </g>
    </g>
   </g>
   <g id="matplotlib.axis_2">
    <g id="ytick_1">
     <g id="line2d_6">
      <defs>
       <path d="M 0 0 
L -3.5 0 
" id="m1347c806b0" style="stroke:#000000;stroke-width:0.8;"/>
      </defs>
      <g>
       <use style="stroke:#000000;stroke-width:0.8;" x="57.6" xlink:href="#m1347c806b0" y="269.055129"/>
      </g>
     </g>
     <g id="text_7">
      <!-- 0 -->
      <g transform="translate(44.2375 272.854348)scale(0.1 -0.1)">
       <use xlink:href="#DejaVuSans-48"/>
      </g>
     </g>
    </g>
    <g id="ytick_2">
     <g id="line2d_7">
      <g>
       <use style="stroke:#000000;stroke-width:0.8;" x="57.6" xlink:href="#m1347c806b0" y="219.874105"/>
      </g>
     </g>
     <g id="text_8">
      <!-- 1 -->
      <g transform="translate(44.2375 223.673323)scale(0.1 -0.1)">
       <use xlink:href="#DejaVuSans-49"/>
      </g>
     </g>
    </g>
    <g id="ytick_3">
     <g id="line2d_8">
      <g>
       <use style="stroke:#000000;stroke-width:0.8;" x="57.6" xlink:href="#m1347c806b0" y="170.69308"/>
      </g>
     </g>
     <g id="text_9">
      <!-- 2 -->
      <g transform="translate(44.2375 174.492299)scale(0.1 -0.1)">
       <use xlink:href="#DejaVuSans-50"/>
      </g>
     </g>
    </g>
    <g id="ytick_4">
     <g id="line2d_9">
      <g>
       <use style="stroke:#000000;stroke-width:0.8;" x="57.6" xlink:href="#m1347c806b0" y="121.512056"/>
      </g>
     </g>
     <g id="text_10">
      <!-- 3 -->
      <defs>
       <path d="M 40.578125 39.3125 
Q 47.65625 37.796875 51.625 33 
Q 55.609375 28.21875 55.609375 21.1875 
Q 55.609375 10.40625 48.1875 4.484375 
Q 40.765625 -1.421875 27.09375 -1.421875 
Q 22.515625 -1.421875 17.65625 -0.515625 
Q 12.796875 0.390625 7.625 2.203125 
L 7.625 11.71875 
Q 11.71875 9.328125 16.59375 8.109375 
Q 21.484375 6.890625 26.8125 6.890625 
Q 36.078125 6.890625 40.9375 10.546875 
Q 45.796875 14.203125 45.796875 21.1875 
Q 45.796875 27.640625 41.28125 31.265625 
Q 36.765625 34.90625 28.71875 34.90625 
L 20.21875 34.90625 
L 20.21875 43.015625 
L 29.109375 43.015625 
Q 36.375 43.015625 40.234375 45.921875 
Q 44.09375 48.828125 44.09375 54.296875 
Q 44.09375 59.90625 40.109375 62.90625 
Q 36.140625 65.921875 28.71875 65.921875 
Q 24.65625 65.921875 20.015625 65.03125 
Q 15.375 64.15625 9.8125 62.3125 
L 9.8125 71.09375 
Q 15.4375 72.65625 20.34375 73.4375 
Q 25.25 74.21875 29.59375 74.21875 
Q 40.828125 74.21875 47.359375 69.109375 
Q 53.90625 64.015625 53.90625 55.328125 
Q 53.90625 49.265625 50.4375 45.09375 
Q 46.96875 40.921875 40.578125 39.3125 
z
" id="DejaVuSans-51"/>
      </defs>
      <g transform="translate(44.2375 125.311275)scale(0.1 -0.1)">
       <use xlink:href="#DejaVuSans-51"/>
      </g>
     </g>
    </g>
    <g id="ytick_5">
     <g id="line2d_10">
      <g>
       <use style="stroke:#000000;stroke-width:0.8;" x="57.6" xlink:href="#m1347c806b0" y="72.331032"/>
      </g>
     </g>
     <g id="text_11">
      <!-- 4 -->
      <g transform="translate(44.2375 76.13025)scale(0.1 -0.1)">
       <use xlink:href="#DejaVuSans-52"/>
      </g>
     </g>
    </g>
    <g id="text_12">
     <!-- X2 -->
     <g transform="translate(38.157812 181.13425)rotate(-90)scale(0.1 -0.1)">
      <use xlink:href="#DejaVuSans-88"/>
      <use x="68.505859" xlink:href="#DejaVuSans-50"/>
     </g>
    </g>
   </g>
   <g id="line2d_11">
    <path clip-path="url(#p4fb1b9aedd)" d="M 73.832727 295.488 
L 77.697662 292.608 
L 81.562597 289.728 
L 85.427532 286.848 
L 89.292468 283.968 
L 93.157403 281.088 
L 97.022338 278.208 
L 100.887273 275.328 
L 104.752208 272.448 
L 108.617143 269.568 
L 112.482078 266.688 
L 116.347013 263.808 
L 120.211948 260.928 
L 124.076883 258.048 
L 127.941818 255.168 
L 131.806753 252.288 
L 135.671688 249.408 
L 139.536623 246.528 
L 143.401558 243.648 
L 147.266494 240.768 
L 151.131429 237.888 
L 154.996364 235.008 
L 158.861299 232.128 
L 162.726234 229.248 
L 166.591169 226.368 
L 170.456104 223.488 
L 174.321039 220.608 
L 178.185974 217.728 
L 182.050909 214.848 
L 185.915844 211.968 
L 189.780779 209.088 
L 193.645714 206.208 
L 197.510649 203.328 
L 201.375584 200.448 
L 205.240519 197.568 
L 209.105455 194.688 
L 212.97039 191.808 
L 216.835325 188.928 
L 220.70026 186.048 
L 224.565195 183.168 
L 228.43013 180.288 
L 232.295065 177.408 
L 236.16 174.528 
L 240.024935 171.648 
L 243.88987 168.768 
L 247.754805 165.888 
L 251.61974 163.008 
L 255.484675 160.128 
L 259.34961 157.248 
L 263.214545 154.368 
L 267.079481 151.488 
L 270.944416 148.608 
L 274.809351 145.728 
L 278.674286 142.848 
L 282.539221 139.968 
L 286.404156 137.088 
L 290.269091 134.208 
L 294.134026 131.328 
L 297.998961 128.448 
L 301.863896 125.568 
L 305.728831 122.688 
L 309.593766 119.808 
L 313.458701 116.928 
L 317.323636 114.048 
L 321.188571 111.168 
L 325.053506 108.288 
L 328.918442 105.408 
L 332.783377 102.528 
L 336.648312 99.648 
L 340.513247 96.768 
L 344.378182 93.888 
L 348.243117 91.008 
L 352.108052 88.128 
L 355.972987 85.248 
L 359.837922 82.368 
L 363.702857 79.488 
L 367.567792 76.608 
L 371.432727 73.728 
L 375.297662 70.848 
L 379.162597 67.968 
L 383.027532 65.088 
L 386.892468 62.208 
L 390.757403 59.328 
L 394.622338 56.448 
L 398.487273 53.568 
" style="fill:none;stroke:#1f77b4;stroke-linecap:square;stroke-width:1.5;"/>
   </g>
   <g id="patch_3">
    <path d="M 57.6 307.584 
L 57.6 41.472 
" style="fill:none;stroke:#000000;stroke-linecap:square;stroke-linejoin:miter;stroke-width:0.8;"/>
   </g>
   <g id="patch_4">
    <path d="M 414.72 307.584 
L 414.72 41.472 
" style="fill:none;stroke:#000000;stroke-linecap:square;stroke-linejoin:miter;stroke-width:0.8;"/>
   </g>
   <g id="patch_5">
    <path d="M 57.6 307.584 
L 414.72 307.584 
" style="fill:none;stroke:#000000;stroke-linecap:square;stroke-linejoin:miter;stroke-width:0.8;"/>
   </g>
   <g id="patch_6">
    <path d="M 57.6 41.472 
L 414.72 41.472 
" style="fill:none;stroke:#000000;stroke-linecap:square;stroke-linejoin:miter;stroke-width:0.8;"/>
   </g>
  </g>
 </g>
 <defs>
  <clipPath id="p4fb1b9aedd">
   <rect height="266.112" width="357.12" x="57.6" y="41.472"/>
  </clipPath>
 </defs>
</svg>
