<?xml version="1.0" encoding="utf-8" standalone="no"?>
<!DOCTYPE svg PUBLIC "-//W3C//DTD SVG 1.1//EN"
  "http://www.w3.org/Graphics/SVG/1.1/DTD/svg11.dtd">
<!-- Created with matplotlib (https://matplotlib.org/) -->
<svg height="345.6pt" version="1.1" viewBox="0 0 460.8 345.6" width="460.8pt" xmlns="http://www.w3.org/2000/svg" xmlns:xlink="http://www.w3.org/1999/xlink">
 <defs>
  <style type="text/css">
*{stroke-linecap:butt;stroke-linejoin:round;}
  </style>
 </defs>
 <g id="figure_1">
  <g id="patch_1">
   <path d="M 0 345.6 
L 460.8 345.6 
L 460.8 0 
L 0 0 
z
" style="fill:#ffffff;"/>
  </g>
  <g id="axes_1">
   <g id="patch_2">
    <path d="M 57.6 307.584 
L 414.72 307.584 
L 414.72 41.472 
L 57.6 41.472 
z
" style="fill:#ffffff;"/>
   </g>
   <g id="PathCollection_1">
    <defs>
     <path d="M 0 3 
C 0.795609 3 1.55874 2.683901 2.12132 2.12132 
C 2.683901 1.55874 3 0.795609 3 0 
C 3 -0.795609 2.683901 -1.55874 2.12132 -2.12132 
C 1.55874 -2.683901 0.795609 -3 0 -3 
C -0.795609 -3 -1.55874 -2.683901 -2.12132 -2.12132 
C -2.683901 -1.55874 -3 -0.795609 -3 0 
C -3 0.795609 -2.683901 1.55874 -2.12132 2.12132 
C -1.55874 2.683901 -0.795609 3 0 3 
z
" id="mafcac81ec7" style="stroke:#1f77b4;"/>
    </defs>
    <g clip-path="url(#p2174209d94)">
     <use style="fill:#1f77b4;stroke:#1f77b4;" x="126.478286" xlink:href="#mafcac81ec7" y="170.491512"/>
     <use style="fill:#1f77b4;stroke:#1f77b4;" x="162.360736" xlink:href="#mafcac81ec7" y="163.731543"/>
     <use style="fill:#1f77b4;stroke:#1f77b4;" x="107.625369" xlink:href="#mafcac81ec7" y="145.441262"/>
     <use style="fill:#1f77b4;stroke:#1f77b4;" x="121.433555" xlink:href="#mafcac81ec7" y="155.780227"/>
     <use style="fill:#1f77b4;stroke:#1f77b4;" x="102.168769" xlink:href="#mafcac81ec7" y="144.290945"/>
     <use style="fill:#1f77b4;stroke:#1f77b4;" x="109.231072" xlink:href="#mafcac81ec7" y="164.139162"/>
     <use style="fill:#1f77b4;stroke:#1f77b4;" x="118.503049" xlink:href="#mafcac81ec7" y="177.907045"/>
     <use style="fill:#1f77b4;stroke:#1f77b4;" x="138.019985" xlink:href="#mafcac81ec7" y="153.406253"/>
     <use style="fill:#1f77b4;stroke:#1f77b4;" x="130.88792" xlink:href="#mafcac81ec7" y="170.872481"/>
     <use style="fill:#1f77b4;stroke:#1f77b4;" x="131.45286" xlink:href="#mafcac81ec7" y="165.714715"/>
     <use style="fill:#1f77b4;stroke:#1f77b4;" x="137.1274" xlink:href="#mafcac81ec7" y="148.412708"/>
     <use style="fill:#1f77b4;stroke:#1f77b4;" x="114.784882" xlink:href="#mafcac81ec7" y="152.359608"/>
     <use style="fill:#1f77b4;stroke:#1f77b4;" x="120.713928" xlink:href="#mafcac81ec7" y="158.751315"/>
     <use style="fill:#1f77b4;stroke:#1f77b4;" x="113.752411" xlink:href="#mafcac81ec7" y="154.049777"/>
     <use style="fill:#1f77b4;stroke:#1f77b4;" x="144.07156" xlink:href="#mafcac81ec7" y="168.051773"/>
     <use style="fill:#1f77b4;stroke:#1f77b4;" x="125.825346" xlink:href="#mafcac81ec7" y="158.430174"/>
     <use style="fill:#1f77b4;stroke:#1f77b4;" x="148.796948" xlink:href="#mafcac81ec7" y="169.311219"/>
     <use style="fill:#1f77b4;stroke:#1f77b4;" x="133.093613" xlink:href="#mafcac81ec7" y="174.082998"/>
     <use style="fill:#1f77b4;stroke:#1f77b4;" x="120.868571" xlink:href="#mafcac81ec7" y="148.123597"/>
     <use style="fill:#1f77b4;stroke:#1f77b4;" x="117.026565" xlink:href="#mafcac81ec7" y="172.47704"/>
     <use style="fill:#1f77b4;stroke:#1f77b4;" x="127.301518" xlink:href="#mafcac81ec7" y="191.699338"/>
     <use style="fill:#1f77b4;stroke:#1f77b4;" x="113.765349" xlink:href="#mafcac81ec7" y="155.101378"/>
     <use style="fill:#1f77b4;stroke:#1f77b4;" x="119.311375" xlink:href="#mafcac81ec7" y="170.716289"/>
     <use style="fill:#1f77b4;stroke:#1f77b4;" x="135.007872" xlink:href="#mafcac81ec7" y="146.560454"/>
     <use style="fill:#1f77b4;stroke:#1f77b4;" x="122.014319" xlink:href="#mafcac81ec7" y="136.549341"/>
     <use style="fill:#1f77b4;stroke:#1f77b4;" x="120.257238" xlink:href="#mafcac81ec7" y="151.70824"/>
     <use style="fill:#1f77b4;stroke:#1f77b4;" x="144.515928" xlink:href="#mafcac81ec7" y="157.044383"/>
     <use style="fill:#1f77b4;stroke:#1f77b4;" x="118.291204" xlink:href="#mafcac81ec7" y="142.214622"/>
     <use style="fill:#1f77b4;stroke:#1f77b4;" x="119.277618" xlink:href="#mafcac81ec7" y="141.130914"/>
     <use style="fill:#1f77b4;stroke:#1f77b4;" x="125.812381" xlink:href="#mafcac81ec7" y="164.41835"/>
     <use style="fill:#1f77b4;stroke:#1f77b4;" x="109.649641" xlink:href="#mafcac81ec7" y="163.47752"/>
     <use style="fill:#1f77b4;stroke:#1f77b4;" x="131.214624" xlink:href="#mafcac81ec7" y="157.74266"/>
     <use style="fill:#1f77b4;stroke:#1f77b4;" x="132.836799" xlink:href="#mafcac81ec7" y="153.827115"/>
     <use style="fill:#1f77b4;stroke:#1f77b4;" x="121.960248" xlink:href="#mafcac81ec7" y="132.029407"/>
     <use style="fill:#1f77b4;stroke:#1f77b4;" x="101.114622" xlink:href="#mafcac81ec7" y="155.105193"/>
     <use style="fill:#1f77b4;stroke:#1f77b4;" x="135.772242" xlink:href="#mafcac81ec7" y="153.383499"/>
     <use style="fill:#1f77b4;stroke:#1f77b4;" x="134.144791" xlink:href="#mafcac81ec7" y="149.718566"/>
     <use style="fill:#1f77b4;stroke:#1f77b4;" x="118.254617" xlink:href="#mafcac81ec7" y="152.757151"/>
     <use style="fill:#1f77b4;stroke:#1f77b4;" x="106.205846" xlink:href="#mafcac81ec7" y="162.935552"/>
     <use style="fill:#1f77b4;stroke:#1f77b4;" x="126.066139" xlink:href="#mafcac81ec7" y="150.664475"/>
     <use style="fill:#1f77b4;stroke:#1f77b4;" x="133.728294" xlink:href="#mafcac81ec7" y="179.071111"/>
     <use style="fill:#1f77b4;stroke:#1f77b4;" x="128.21139" xlink:href="#mafcac81ec7" y="150.201254"/>
     <use style="fill:#1f77b4;stroke:#1f77b4;" x="130.880709" xlink:href="#mafcac81ec7" y="165.983725"/>
     <use style="fill:#1f77b4;stroke:#1f77b4;" x="119.681051" xlink:href="#mafcac81ec7" y="167.133594"/>
     <use style="fill:#1f77b4;stroke:#1f77b4;" x="127.085947" xlink:href="#mafcac81ec7" y="159.014677"/>
     <use style="fill:#1f77b4;stroke:#1f77b4;" x="135.111904" xlink:href="#mafcac81ec7" y="143.092812"/>
     <use style="fill:#1f77b4;stroke:#1f77b4;" x="112.070999" xlink:href="#mafcac81ec7" y="141.470068"/>
     <use style="fill:#1f77b4;stroke:#1f77b4;" x="130.050919" xlink:href="#mafcac81ec7" y="171.537109"/>
     <use style="fill:#1f77b4;stroke:#1f77b4;" x="130.937262" xlink:href="#mafcac81ec7" y="157.12829"/>
     <use style="fill:#1f77b4;stroke:#1f77b4;" x="104.745522" xlink:href="#mafcac81ec7" y="136.071363"/>
    </g>
   </g>
   <g id="PathCollection_2">
    <defs>
     <path d="M 0 3 
C 0.795609 3 1.55874 2.683901 2.12132 2.12132 
C 2.683901 1.55874 3 0.795609 3 0 
C 3 -0.795609 2.683901 -1.55874 2.12132 -2.12132 
C 1.55874 -2.683901 0.795609 -3 0 -3 
C -0.795609 -3 -1.55874 -2.683901 -2.12132 -2.12132 
C -2.683901 -1.55874 -3 -0.795609 -3 0 
C -3 0.795609 -2.683901 1.55874 -2.12132 2.12132 
C -1.55874 2.683901 -0.795609 3 0 3 
z
" id="mf68094e0af" style="stroke:#ff7f0e;"/>
    </defs>
    <g clip-path="url(#p2174209d94)">
     <use style="fill:#ff7f0e;stroke:#ff7f0e;" x="351.890091" xlink:href="#mf68094e0af" y="222.337241"/>
     <use style="fill:#ff7f0e;stroke:#ff7f0e;" x="367.75114" xlink:href="#mf68094e0af" y="207.863316"/>
     <use style="fill:#ff7f0e;stroke:#ff7f0e;" x="323.161385" xlink:href="#mf68094e0af" y="205.743729"/>
     <use style="fill:#ff7f0e;stroke:#ff7f0e;" x="335.668096" xlink:href="#mf68094e0af" y="207.542068"/>
     <use style="fill:#ff7f0e;stroke:#ff7f0e;" x="353.329988" xlink:href="#mf68094e0af" y="192.346557"/>
     <use style="fill:#ff7f0e;stroke:#ff7f0e;" x="349.722505" xlink:href="#mf68094e0af" y="220.688551"/>
     <use style="fill:#ff7f0e;stroke:#ff7f0e;" x="332.296404" xlink:href="#mf68094e0af" y="211.991502"/>
     <use style="fill:#ff7f0e;stroke:#ff7f0e;" x="342.329475" xlink:href="#mf68094e0af" y="194.408967"/>
     <use style="fill:#ff7f0e;stroke:#ff7f0e;" x="358.413591" xlink:href="#mf68094e0af" y="210.979779"/>
     <use style="fill:#ff7f0e;stroke:#ff7f0e;" x="339.768654" xlink:href="#mf68094e0af" y="215.301859"/>
     <use style="fill:#ff7f0e;stroke:#ff7f0e;" x="335.877328" xlink:href="#mf68094e0af" y="183.521858"/>
     <use style="fill:#ff7f0e;stroke:#ff7f0e;" x="334.760537" xlink:href="#mf68094e0af" y="198.338707"/>
     <use style="fill:#ff7f0e;stroke:#ff7f0e;" x="344.476576" xlink:href="#mf68094e0af" y="227.937126"/>
     <use style="fill:#ff7f0e;stroke:#ff7f0e;" x="348.111701" xlink:href="#mf68094e0af" y="189.953314"/>
     <use style="fill:#ff7f0e;stroke:#ff7f0e;" x="348.426781" xlink:href="#mf68094e0af" y="198.810402"/>
     <use style="fill:#ff7f0e;stroke:#ff7f0e;" x="328.687722" xlink:href="#mf68094e0af" y="200.201618"/>
     <use style="fill:#ff7f0e;stroke:#ff7f0e;" x="332.979337" xlink:href="#mf68094e0af" y="220.797148"/>
     <use style="fill:#ff7f0e;stroke:#ff7f0e;" x="372.020495" xlink:href="#mf68094e0af" y="207.504563"/>
     <use style="fill:#ff7f0e;stroke:#ff7f0e;" x="335.788197" xlink:href="#mf68094e0af" y="226.075806"/>
     <use style="fill:#ff7f0e;stroke:#ff7f0e;" x="362.193958" xlink:href="#mf68094e0af" y="200.466123"/>
     <use style="fill:#ff7f0e;stroke:#ff7f0e;" x="339.166532" xlink:href="#mf68094e0af" y="203.763413"/>
     <use style="fill:#ff7f0e;stroke:#ff7f0e;" x="334.460188" xlink:href="#mf68094e0af" y="214.3625"/>
     <use style="fill:#ff7f0e;stroke:#ff7f0e;" x="340.872834" xlink:href="#mf68094e0af" y="204.898979"/>
     <use style="fill:#ff7f0e;stroke:#ff7f0e;" x="344.499424" xlink:href="#mf68094e0af" y="182.381693"/>
     <use style="fill:#ff7f0e;stroke:#ff7f0e;" x="331.032345" xlink:href="#mf68094e0af" y="223.880963"/>
     <use style="fill:#ff7f0e;stroke:#ff7f0e;" x="342.489373" xlink:href="#mf68094e0af" y="212.554225"/>
     <use style="fill:#ff7f0e;stroke:#ff7f0e;" x="338.524329" xlink:href="#mf68094e0af" y="208.057467"/>
     <use style="fill:#ff7f0e;stroke:#ff7f0e;" x="327.955928" xlink:href="#mf68094e0af" y="220.46897"/>
     <use style="fill:#ff7f0e;stroke:#ff7f0e;" x="359.056841" xlink:href="#mf68094e0af" y="190.437559"/>
     <use style="fill:#ff7f0e;stroke:#ff7f0e;" x="333.186882" xlink:href="#mf68094e0af" y="191.240881"/>
     <use style="fill:#ff7f0e;stroke:#ff7f0e;" x="344.598576" xlink:href="#mf68094e0af" y="203.909034"/>
     <use style="fill:#ff7f0e;stroke:#ff7f0e;" x="333.212221" xlink:href="#mf68094e0af" y="210.330598"/>
     <use style="fill:#ff7f0e;stroke:#ff7f0e;" x="344.318072" xlink:href="#mf68094e0af" y="192.769697"/>
     <use style="fill:#ff7f0e;stroke:#ff7f0e;" x="345.947473" xlink:href="#mf68094e0af" y="233.498963"/>
     <use style="fill:#ff7f0e;stroke:#ff7f0e;" x="334.930705" xlink:href="#mf68094e0af" y="219.760134"/>
     <use style="fill:#ff7f0e;stroke:#ff7f0e;" x="324.773225" xlink:href="#mf68094e0af" y="211.418549"/>
     <use style="fill:#ff7f0e;stroke:#ff7f0e;" x="331.95985" xlink:href="#mf68094e0af" y="196.055145"/>
     <use style="fill:#ff7f0e;stroke:#ff7f0e;" x="330.251291" xlink:href="#mf68094e0af" y="204.375469"/>
     <use style="fill:#ff7f0e;stroke:#ff7f0e;" x="333.941142" xlink:href="#mf68094e0af" y="200.007984"/>
     <use style="fill:#ff7f0e;stroke:#ff7f0e;" x="340.661122" xlink:href="#mf68094e0af" y="196.148254"/>
     <use style="fill:#ff7f0e;stroke:#ff7f0e;" x="362.690367" xlink:href="#mf68094e0af" y="191.382576"/>
     <use style="fill:#ff7f0e;stroke:#ff7f0e;" x="365.885593" xlink:href="#mf68094e0af" y="210.080943"/>
     <use style="fill:#ff7f0e;stroke:#ff7f0e;" x="356.861502" xlink:href="#mf68094e0af" y="208.825995"/>
     <use style="fill:#ff7f0e;stroke:#ff7f0e;" x="338.249593" xlink:href="#mf68094e0af" y="199.563436"/>
     <use style="fill:#ff7f0e;stroke:#ff7f0e;" x="341.472569" xlink:href="#mf68094e0af" y="208.930814"/>
     <use style="fill:#ff7f0e;stroke:#ff7f0e;" x="329.087963" xlink:href="#mf68094e0af" y="207.991169"/>
     <use style="fill:#ff7f0e;stroke:#ff7f0e;" x="325.110839" xlink:href="#mf68094e0af" y="217.365453"/>
     <use style="fill:#ff7f0e;stroke:#ff7f0e;" x="331.848481" xlink:href="#mf68094e0af" y="195.957502"/>
     <use style="fill:#ff7f0e;stroke:#ff7f0e;" x="338.143691" xlink:href="#mf68094e0af" y="211.291484"/>
     <use style="fill:#ff7f0e;stroke:#ff7f0e;" x="354.184414" xlink:href="#mf68094e0af" y="217.076997"/>
    </g>
   </g>
   <g id="matplotlib.axis_1">
    <g id="xtick_1">
     <g id="line2d_1">
      <defs>
       <path d="M 0 0 
L 0 3.5 
" id="m07b21e7df6" style="stroke:#000000;stroke-width:0.8;"/>
      </defs>
      <g>
       <use style="stroke:#000000;stroke-width:0.8;" x="67.24037" xlink:href="#m07b21e7df6" y="307.584"/>
      </g>
     </g>
     <g id="text_1">
      <!-- −2 -->
      <defs>
       <path d="M 10.59375 35.5 
L 73.1875 35.5 
L 73.1875 27.203125 
L 10.59375 27.203125 
z
" id="DejaVuSans-8722"/>
       <path d="M 19.1875 8.296875 
L 53.609375 8.296875 
L 53.609375 0 
L 7.328125 0 
L 7.328125 8.296875 
Q 12.9375 14.109375 22.625 23.890625 
Q 32.328125 33.6875 34.8125 36.53125 
Q 39.546875 41.84375 41.421875 45.53125 
Q 43.3125 49.21875 43.3125 52.78125 
Q 43.3125 58.59375 39.234375 62.25 
Q 35.15625 65.921875 28.609375 65.921875 
Q 23.96875 65.921875 18.8125 64.3125 
Q 13.671875 62.703125 7.8125 59.421875 
L 7.8125 69.390625 
Q 13.765625 71.78125 18.9375 73 
Q 24.125 74.21875 28.421875 74.21875 
Q 39.75 74.21875 46.484375 68.546875 
Q 53.21875 62.890625 53.21875 53.421875 
Q 53.21875 48.921875 51.53125 44.890625 
Q 49.859375 40.875 45.40625 35.40625 
Q 44.1875 33.984375 37.640625 27.21875 
Q 31.109375 20.453125 19.1875 8.296875 
z
" id="DejaVuSans-50"/>
      </defs>
      <g transform="translate(59.869276 322.182437)scale(0.1 -0.1)">
       <use xlink:href="#DejaVuSans-8722"/>
       <use x="83.789062" xlink:href="#DejaVuSans-50"/>
      </g>
     </g>
    </g>
    <g id="xtick_2">
     <g id="line2d_2">
      <g>
       <use style="stroke:#000000;stroke-width:0.8;" x="121.804159" xlink:href="#m07b21e7df6" y="307.584"/>
      </g>
     </g>
     <g id="text_2">
      <!-- 0 -->
      <defs>
       <path d="M 31.78125 66.40625 
Q 24.171875 66.40625 20.328125 58.90625 
Q 16.5 51.421875 16.5 36.375 
Q 16.5 21.390625 20.328125 13.890625 
Q 24.171875 6.390625 31.78125 6.390625 
Q 39.453125 6.390625 43.28125 13.890625 
Q 47.125 21.390625 47.125 36.375 
Q 47.125 51.421875 43.28125 58.90625 
Q 39.453125 66.40625 31.78125 66.40625 
z
M 31.78125 74.21875 
Q 44.046875 74.21875 50.515625 64.515625 
Q 56.984375 54.828125 56.984375 36.375 
Q 56.984375 17.96875 50.515625 8.265625 
Q 44.046875 -1.421875 31.78125 -1.421875 
Q 19.53125 -1.421875 13.0625 8.265625 
Q 6.59375 17.96875 6.59375 36.375 
Q 6.59375 54.828125 13.0625 64.515625 
Q 19.53125 74.21875 31.78125 74.21875 
z
" id="DejaVuSans-48"/>
      </defs>
      <g transform="translate(118.622909 322.182437)scale(0.1 -0.1)">
       <use xlink:href="#DejaVuSans-48"/>
      </g>
     </g>
    </g>
    <g id="xtick_3">
     <g id="line2d_3">
      <g>
       <use style="stroke:#000000;stroke-width:0.8;" x="176.367948" xlink:href="#m07b21e7df6" y="307.584"/>
      </g>
     </g>
     <g id="text_3">
      <!-- 2 -->
      <g transform="translate(173.186698 322.182437)scale(0.1 -0.1)">
       <use xlink:href="#DejaVuSans-50"/>
      </g>
     </g>
    </g>
    <g id="xtick_4">
     <g id="line2d_4">
      <g>
       <use style="stroke:#000000;stroke-width:0.8;" x="230.931738" xlink:href="#m07b21e7df6" y="307.584"/>
      </g>
     </g>
     <g id="text_4">
      <!-- 4 -->
      <defs>
       <path d="M 37.796875 64.3125 
L 12.890625 25.390625 
L 37.796875 25.390625 
z
M 35.203125 72.90625 
L 47.609375 72.90625 
L 47.609375 25.390625 
L 58.015625 25.390625 
L 58.015625 17.1875 
L 47.609375 17.1875 
L 47.609375 0 
L 37.796875 0 
L 37.796875 17.1875 
L 4.890625 17.1875 
L 4.890625 26.703125 
z
" id="DejaVuSans-52"/>
      </defs>
      <g transform="translate(227.750488 322.182437)scale(0.1 -0.1)">
       <use xlink:href="#DejaVuSans-52"/>
      </g>
     </g>
    </g>
    <g id="xtick_5">
     <g id="line2d_5">
      <g>
       <use style="stroke:#000000;stroke-width:0.8;" x="285.495527" xlink:href="#m07b21e7df6" y="307.584"/>
      </g>
     </g>
     <g id="text_5">
      <!-- 6 -->
      <defs>
       <path d="M 33.015625 40.375 
Q 26.375 40.375 22.484375 35.828125 
Q 18.609375 31.296875 18.609375 23.390625 
Q 18.609375 15.53125 22.484375 10.953125 
Q 26.375 6.390625 33.015625 6.390625 
Q 39.65625 6.390625 43.53125 10.953125 
Q 47.40625 15.53125 47.40625 23.390625 
Q 47.40625 31.296875 43.53125 35.828125 
Q 39.65625 40.375 33.015625 40.375 
z
M 52.59375 71.296875 
L 52.59375 62.3125 
Q 48.875 64.0625 45.09375 64.984375 
Q 41.3125 65.921875 37.59375 65.921875 
Q 27.828125 65.921875 22.671875 59.328125 
Q 17.53125 52.734375 16.796875 39.40625 
Q 19.671875 43.65625 24.015625 45.921875 
Q 28.375 48.1875 33.59375 48.1875 
Q 44.578125 48.1875 50.953125 41.515625 
Q 57.328125 34.859375 57.328125 23.390625 
Q 57.328125 12.15625 50.6875 5.359375 
Q 44.046875 -1.421875 33.015625 -1.421875 
Q 20.359375 -1.421875 13.671875 8.265625 
Q 6.984375 17.96875 6.984375 36.375 
Q 6.984375 53.65625 15.1875 63.9375 
Q 23.390625 74.21875 37.203125 74.21875 
Q 40.921875 74.21875 44.703125 73.484375 
Q 48.484375 72.75 52.59375 71.296875 
z
" id="DejaVuSans-54"/>
      </defs>
      <g transform="translate(282.314277 322.182437)scale(0.1 -0.1)">
       <use xlink:href="#DejaVuSans-54"/>
      </g>
     </g>
    </g>
    <g id="xtick_6">
     <g id="line2d_6">
      <g>
       <use style="stroke:#000000;stroke-width:0.8;" x="340.059316" xlink:href="#m07b21e7df6" y="307.584"/>
      </g>
     </g>
     <g id="text_6">
      <!-- 8 -->
      <defs>
       <path d="M 31.78125 34.625 
Q 24.75 34.625 20.71875 30.859375 
Q 16.703125 27.09375 16.703125 20.515625 
Q 16.703125 13.921875 20.71875 10.15625 
Q 24.75 6.390625 31.78125 6.390625 
Q 38.8125 6.390625 42.859375 10.171875 
Q 46.921875 13.96875 46.921875 20.515625 
Q 46.921875 27.09375 42.890625 30.859375 
Q 38.875 34.625 31.78125 34.625 
z
M 21.921875 38.8125 
Q 15.578125 40.375 12.03125 44.71875 
Q 8.5 49.078125 8.5 55.328125 
Q 8.5 64.0625 14.71875 69.140625 
Q 20.953125 74.21875 31.78125 74.21875 
Q 42.671875 74.21875 48.875 69.140625 
Q 55.078125 64.0625 55.078125 55.328125 
Q 55.078125 49.078125 51.53125 44.71875 
Q 48 40.375 41.703125 38.8125 
Q 48.828125 37.15625 52.796875 32.3125 
Q 56.78125 27.484375 56.78125 20.515625 
Q 56.78125 9.90625 50.3125 4.234375 
Q 43.84375 -1.421875 31.78125 -1.421875 
Q 19.734375 -1.421875 13.25 4.234375 
Q 6.78125 9.90625 6.78125 20.515625 
Q 6.78125 27.484375 10.78125 32.3125 
Q 14.796875 37.15625 21.921875 38.8125 
z
M 18.3125 54.390625 
Q 18.3125 48.734375 21.84375 45.5625 
Q 25.390625 42.390625 31.78125 42.390625 
Q 38.140625 42.390625 41.71875 45.5625 
Q 45.3125 48.734375 45.3125 54.390625 
Q 45.3125 60.0625 41.71875 63.234375 
Q 38.140625 66.40625 31.78125 66.40625 
Q 25.390625 66.40625 21.84375 63.234375 
Q 18.3125 60.0625 18.3125 54.390625 
z
" id="DejaVuSans-56"/>
      </defs>
      <g transform="translate(336.878066 322.182437)scale(0.1 -0.1)">
       <use xlink:href="#DejaVuSans-56"/>
      </g>
     </g>
    </g>
    <g id="xtick_7">
     <g id="line2d_7">
      <g>
       <use style="stroke:#000000;stroke-width:0.8;" x="394.623105" xlink:href="#m07b21e7df6" y="307.584"/>
      </g>
     </g>
     <g id="text_7">
      <!-- 10 -->
      <defs>
       <path d="M 12.40625 8.296875 
L 28.515625 8.296875 
L 28.515625 63.921875 
L 10.984375 60.40625 
L 10.984375 69.390625 
L 28.421875 72.90625 
L 38.28125 72.90625 
L 38.28125 8.296875 
L 54.390625 8.296875 
L 54.390625 0 
L 12.40625 0 
z
" id="DejaVuSans-49"/>
      </defs>
      <g transform="translate(388.260605 322.182437)scale(0.1 -0.1)">
       <use xlink:href="#DejaVuSans-49"/>
       <use x="63.623047" xlink:href="#DejaVuSans-48"/>
      </g>
     </g>
    </g>
    <g id="text_8">
     <!-- X1 -->
     <defs>
      <path d="M 6.296875 72.90625 
L 16.890625 72.90625 
L 35.015625 45.796875 
L 53.21875 72.90625 
L 63.8125 72.90625 
L 40.375 37.890625 
L 65.375 0 
L 54.78125 0 
L 34.28125 31 
L 13.625 0 
L 2.984375 0 
L 29 38.921875 
z
" id="DejaVuSans-88"/>
     </defs>
     <g transform="translate(229.55375 335.860562)scale(0.1 -0.1)">
      <use xlink:href="#DejaVuSans-88"/>
      <use x="68.505859" xlink:href="#DejaVuSans-49"/>
     </g>
    </g>
   </g>
   <g id="matplotlib.axis_2">
    <g id="ytick_1">
     <g id="line2d_8">
      <defs>
       <path d="M 0 0 
L -3.5 0 
" id="m90f0c0cb80" style="stroke:#000000;stroke-width:0.8;"/>
      </defs>
      <g>
       <use style="stroke:#000000;stroke-width:0.8;" x="57.6" xlink:href="#m90f0c0cb80" y="303.607906"/>
      </g>
     </g>
     <g id="text_9">
      <!-- −2 -->
      <g transform="translate(35.857813 307.407125)scale(0.1 -0.1)">
       <use xlink:href="#DejaVuSans-8722"/>
       <use x="83.789062" xlink:href="#DejaVuSans-50"/>
      </g>
     </g>
    </g>
    <g id="ytick_2">
     <g id="line2d_9">
      <g>
       <use style="stroke:#000000;stroke-width:0.8;" x="57.6" xlink:href="#m90f0c0cb80" y="254.242072"/>
      </g>
     </g>
     <g id="text_10">
      <!-- 0 -->
      <g transform="translate(44.2375 258.041291)scale(0.1 -0.1)">
       <use xlink:href="#DejaVuSans-48"/>
      </g>
     </g>
    </g>
    <g id="ytick_3">
     <g id="line2d_10">
      <g>
       <use style="stroke:#000000;stroke-width:0.8;" x="57.6" xlink:href="#m90f0c0cb80" y="204.876238"/>
      </g>
     </g>
     <g id="text_11">
      <!-- 2 -->
      <g transform="translate(44.2375 208.675457)scale(0.1 -0.1)">
       <use xlink:href="#DejaVuSans-50"/>
      </g>
     </g>
    </g>
    <g id="ytick_4">
     <g id="line2d_11">
      <g>
       <use style="stroke:#000000;stroke-width:0.8;" x="57.6" xlink:href="#m90f0c0cb80" y="155.510404"/>
      </g>
     </g>
     <g id="text_12">
      <!-- 4 -->
      <g transform="translate(44.2375 159.309622)scale(0.1 -0.1)">
       <use xlink:href="#DejaVuSans-52"/>
      </g>
     </g>
    </g>
    <g id="ytick_5">
     <g id="line2d_12">
      <g>
       <use style="stroke:#000000;stroke-width:0.8;" x="57.6" xlink:href="#m90f0c0cb80" y="106.144569"/>
      </g>
     </g>
     <g id="text_13">
      <!-- 6 -->
      <g transform="translate(44.2375 109.943788)scale(0.1 -0.1)">
       <use xlink:href="#DejaVuSans-54"/>
      </g>
     </g>
    </g>
    <g id="ytick_6">
     <g id="line2d_13">
      <g>
       <use style="stroke:#000000;stroke-width:0.8;" x="57.6" xlink:href="#m90f0c0cb80" y="56.778735"/>
      </g>
     </g>
     <g id="text_14">
      <!-- 8 -->
      <g transform="translate(44.2375 60.577954)scale(0.1 -0.1)">
       <use xlink:href="#DejaVuSans-56"/>
      </g>
     </g>
    </g>
    <g id="text_15">
     <!-- X2 -->
     <g transform="translate(29.778125 181.13425)rotate(-90)scale(0.1 -0.1)">
      <use xlink:href="#DejaVuSans-88"/>
      <use x="68.505859" xlink:href="#DejaVuSans-50"/>
     </g>
    </g>
   </g>
   <g id="line2d_14">
    <path clip-path="url(#p2174209d94)" d="M 73.832727 295.488 
L 76.560917 293.455059 
L 79.289106 291.422118 
L 82.017296 289.389176 
L 84.745485 287.356235 
L 87.473675 285.323294 
L 90.201864 283.290353 
L 92.930053 281.257412 
L 95.658243 279.224471 
L 98.386432 277.191529 
L 101.114622 275.158588 
L 103.842811 273.125647 
L 106.571001 271.092706 
L 109.29919 269.059765 
L 112.02738 267.026824 
L 114.755569 264.993882 
L 117.483759 262.960941 
L 120.211948 260.928 
L 122.940138 258.895059 
L 125.668327 256.862118 
L 128.396516 254.829176 
L 131.124706 252.796235 
L 133.852895 250.763294 
L 136.581085 248.730353 
L 139.309274 246.697412 
L 142.037464 244.664471 
L 144.765653 242.631529 
L 147.493843 240.598588 
L 150.222032 238.565647 
L 152.950222 236.532706 
L 155.678411 234.499765 
L 158.4066 232.466824 
L 161.13479 230.433882 
L 163.862979 228.400941 
L 166.591169 226.368 
L 169.319358 224.335059 
L 172.047548 222.302118 
L 174.775737 220.269176 
L 177.503927 218.236235 
L 180.232116 216.203294 
L 182.960306 214.170353 
L 185.688495 212.137412 
L 188.416684 210.104471 
L 191.144874 208.071529 
L 193.873063 206.038588 
L 196.601253 204.005647 
L 199.329442 201.972706 
L 202.057632 199.939765 
L 204.785821 197.906824 
L 207.514011 195.873882 
L 210.2422 193.840941 
L 212.97039 191.808 
L 215.698579 189.775059 
L 218.426769 187.742118 
L 221.154958 185.709176 
L 223.883147 183.676235 
L 226.611337 181.643294 
L 229.339526 179.610353 
L 232.067716 177.577412 
L 234.795905 175.544471 
L 237.524095 173.511529 
L 240.252284 171.478588 
L 242.980474 169.445647 
L 245.708663 167.412706 
L 248.436853 165.379765 
L 251.165042 163.346824 
L 253.893231 161.313882 
L 256.621421 159.280941 
L 259.34961 157.248 
L 262.0778 155.215059 
L 264.805989 153.182118 
L 267.534179 151.149176 
L 270.262368 149.116235 
L 272.990558 147.083294 
L 275.718747 145.050353 
L 278.446937 143.017412 
L 281.175126 140.984471 
L 283.903316 138.951529 
L 286.631505 136.918588 
L 289.359694 134.885647 
L 292.087884 132.852706 
L 294.816073 130.819765 
L 297.544263 128.786824 
L 300.272452 126.753882 
L 303.000642 124.720941 
L 305.728831 122.688 
L 308.457021 120.655059 
L 311.18521 118.622118 
L 313.9134 116.589176 
L 316.641589 114.556235 
L 319.369778 112.523294 
L 322.097968 110.490353 
L 324.826157 108.457412 
L 327.554347 106.424471 
L 330.282536 104.391529 
L 333.010726 102.358588 
L 335.738915 100.325647 
L 338.467105 98.292706 
L 341.195294 96.259765 
L 343.923484 94.226824 
L 346.651673 92.193882 
L 349.379862 90.160941 
L 352.108052 88.128 
L 354.836241 86.095059 
L 357.564431 84.062118 
L 360.29262 82.029176 
L 363.02081 79.996235 
L 365.748999 77.963294 
L 368.477189 75.930353 
L 371.205378 73.897412 
L 373.933568 71.864471 
L 376.661757 69.831529 
L 379.389947 67.798588 
L 382.118136 65.765647 
L 384.846325 63.732706 
L 387.574515 61.699765 
L 390.302704 59.666824 
L 393.030894 57.633882 
L 395.759083 55.600941 
L 398.487273 53.568 
" style="fill:none;stroke:#1f77b4;stroke-linecap:square;stroke-width:1.5;"/>
   </g>
   <g id="patch_3">
    <path d="M 57.6 307.584 
L 57.6 41.472 
" style="fill:none;stroke:#000000;stroke-linecap:square;stroke-linejoin:miter;stroke-width:0.8;"/>
   </g>
   <g id="patch_4">
    <path d="M 414.72 307.584 
L 414.72 41.472 
" style="fill:none;stroke:#000000;stroke-linecap:square;stroke-linejoin:miter;stroke-width:0.8;"/>
   </g>
   <g id="patch_5">
    <path d="M 57.6 307.584 
L 414.72 307.584 
" style="fill:none;stroke:#000000;stroke-linecap:square;stroke-linejoin:miter;stroke-width:0.8;"/>
   </g>
   <g id="patch_6">
    <path d="M 57.6 41.472 
L 414.72 41.472 
" style="fill:none;stroke:#000000;stroke-linecap:square;stroke-linejoin:miter;stroke-width:0.8;"/>
   </g>
  </g>
 </g>
 <defs>
  <clipPath id="p2174209d94">
   <rect height="266.112" width="357.12" x="57.6" y="41.472"/>
  </clipPath>
 </defs>
</svg>
